STARTFONT 2.1
COMMENT
COMMENT Converted from OpenType font "Q:\font stuff\winfont\Rationale-Regular.ttf" by "otf2bdf 3.0".
COMMENT
FONT -FreeType-Rationale-Medium-R-Normal--277-2000-100-100-P-836-ISO10646-1
SIZE 200 100 100
FONTBOUNDINGBOX 221 322 -9 -70
STARTPROPERTIES 19
FOUNDRY "FreeType"
FAMILY_NAME "Rationale"
WEIGHT_NAME "Medium"
SLANT "R"
SETWIDTH_NAME "Normal"
ADD_STYLE_NAME ""
PIXEL_SIZE 277
POINT_SIZE 2000
RESOLUTION_X 100
RESOLUTION_Y 100
SPACING "P"
AVERAGE_WIDTH 836
CHARSET_REGISTRY "ISO10646"
CHARSET_ENCODING "1"
FONT_ASCENT 251
FONT_DESCENT 69
COPYRIGHT "Copyright (c) 2011, Cyreal (www.cyreal.org) with Reserved Font Name "Rationale"."
_OTF_FONTFILE "Q:\font stuff\winfont\Rationale-Regular.ttf"
_OTF_PSNAME "Rationale-Regular"
ENDPROPERTIES
CHARS 214
STARTCHAR 0020
ENCODING 32
SWIDTH 194 0
DWIDTH 54 0
BBX 0 0 0 0
BITMAP
ENDCHAR
STARTCHAR 0021
ENCODING 33
SWIDTH 226 0
DWIDTH 63 0
BBX 24 195 20 0
BITMAP
1FFFFC
3FFFFC
7FFFFC
FFFFFC
FFFFFC
FFFFFC
FFFFFC
FFFFFC
FFFFFC
FFFFFC
FFFFFC
FFFFFC
FFFFFC
FFFFFC
FFFFFC
FFFFFC
FFFFFC
FFFFFC
FFFFFC
FFFFFC
FFFFFC
FFFFFC
FFFFFC
FFFFFC
FFFFFC
FFFFFC
FFFFFC
FFFFFC
FFFFFC
FFFFFC
FFFFFC
FFFFFC
FFFFFC
FFFFFC
FFFFFC
FFFFFC
FFFFFC
FFFFFC
FFFFFC
FFFFFC
FFFFFC
FFFFFC
FFFFFC
FFFFFC
FFFFFC
FFFFFC
FFFFFC
FFFFFC
FFFFFC
FFFFFC
FFFFFC
FFFFFC
FFFFFC
FFFFFC
FFFFFC
FFFFFC
FFFFFC
FFFFFC
FFFFFC
FFFFFC
FFFFFC
FFFFFC
FFFFFC
FFFFFC
FFFFFC
FFFFFC
FFFFFC
FFFFFC
FFFFFC
FFFFFC
FFFFFC
FFFFFC
FFFFFC
FFFFFC
FFFFFC
FFFFFC
FFFFFC
FFFFFC
FFFFFC
FFFFFC
FFFFFC
FFFFFC
FFFFFC
FFFFFC
FFFFFC
FFFFFC
FFFFFC
FFFFFC
FFFFFC
FFFFFC
FFFFFC
FFFFFC
FFFFFC
FFFFFC
FFFFFC
FFFFFC
FFFFFC
FFFFFC
FFFFFC
FFFFFC
FFFFFC
FFFFFC
FFFFFC
FFFFFC
FFFFFC
FFFFFC
FFFFFC
FFFFFC
FFFFFC
FFFFFC
FFFFFC
FFFFFC
FFFFFC
FFFFFC
FFFFFC
FFFFFC
FFFFFC
FFFFFC
FFFFFC
FFFFFC
FFFFFC
FFFFFC
FFFFFC
FFFFFC
FFFFFC
FFFFFC
FFFFFC
FFFFFC
FFFFFC
FFFFFC
FFFFFC
FFFFFC
FFFFFC
FFFFFC
FFFFFC
FFFFFC
FFFFFC
FFFFFC
FFFFFC
FFFFFC
FFFFFC
FFFFFC
FFFFFC
FFFFFC
FFFFFC
FFFFFC
FFFFFC
FFFFFC
FFFFF8
FFFFF8
FFFFE0
000000
000000
000000
000000
000000
000000
000000
000000
000000
000000
000000
000000
000000
000000
000000
000000
000000
000000
000000
000000
000000
000000
FFFFF8
FFFFFE
FFFFFF
FFFFFF
FFFFFF
FFFFFF
FFFFFF
FFFFFF
FFFFFF
FFFFFF
FFFFFF
FFFFFF
FFFFFF
FFFFFF
FFFFFF
FFFFFF
FFFFFF
FFFFFF
FFFFFF
7FFFFF
3FFFFF
1FFFFF
ENDCHAR
STARTCHAR 0022
ENCODING 34
SWIDTH 320 0
DWIDTH 89 0
BBX 55 44 17 151
BITMAP
FFFE00000FFFE0
FFFF80000FFFF8
FFFFC0000FFFFC
FFFFC0000FFFFC
FFFFE0000FFFFE
FFFFE0000FFFFE
FFFFE0000FFFFE
FFFFE0000FFFFE
FFFFE0000FFFFE
FFFFE0000FFFFE
FFFFE0000FFFFE
FFFFE0000FFFFE
FFFFE0000FFFFE
FFFFE0000FFFFE
FFFFE0000FFFFE
FFFFE0000FFFFE
FFFFE0000FFFFE
FFFFE0000FFFFE
FFFFE0000FFFFE
FFFFE0000FFFFE
FFFFE0000FFFFE
FFFFE0000FFFFE
FFFFE0000FFFFE
FFFFE0000FFFFE
FFFFE0000FFFFE
FFFFE0000FFFFE
FFFFE0000FFFFE
FFFFE0000FFFFE
FFFFE0000FFFFE
FFFFE0000FFFFE
FFFFE0000FFFFE
FFFFE0000FFFFE
FFFFE0000FFFFE
FFFFE0000FFFFE
FFFFE0000FFFFE
FFFFE0000FFFFE
FFFFE0000FFFFE
FFFFE0000FFFFE
FFFFE0000FFFFE
FFFFE0000FFFFE
FFFFE0000FFFFE
7FFFE00007FFFE
7FFFE00007FFFE
1FFFE00001FFFE
ENDCHAR
STARTCHAR 0023
ENCODING 35
SWIDTH 799 0
DWIDTH 222 0
BBX 187 195 20 0
BITMAP
1FFFFF000000000000001FFFFC0000000001FFFFFFF80000
3FFFFF000000000000007FFFFC000000003FFFFFFFFF8000
7FFFFF00000000000000FFFFFC00000001FFFFFFFFFFF000
FFFFFF80000000000000FFFFFC00000003FFFFFFFFFFF800
FFFFFF80000000000000FFFFFC00000007FFFFFFFFFFFE00
FFFFFFC0000000000000FFFFFC0000000FFFFFFFFFFFFF00
FFFFFFC0000000000000FFFFFC0000001FFFFFFFFFFFFF00
FFFFFFC0000000000000FFFFFC0000003FFFFFFFFFFFFF80
FFFFFFE0000000000000FFFFFC0000003FFFFFFFFFFFFF80
FFFFFFE0000000000000FFFFFC0000007FFFFFFFFFFFFFC0
FFFFFFF0000000000000FFFFFC0000007FFFFFFFFFFFFFC0
FFFFFFF0000000000000FFFFFC0000007FFFFFFFFFFFFFC0
FFFFFFF0000000000000FFFFFC0000007FFFFFFFFFFFFFE0
FFFFFFF8000000000000FFFFFC0000007FFFFFFFFFFFFFE0
FFFFFFF8000000000000FFFFFC000000FFFFFFFFFFFFFFE0
FFFFFFFC000000000000FFFFFC000000FFFFFF001FFFFFE0
FFFFFFFC000000000000FFFFFC000000FFFFF80003FFFFE0
FFFFFFFE000000000000FFFFFC000000FFFFF00001FFFFE0
FFFFFFFE000000000000FFFFFC000000FFFFE00000FFFFE0
FFFFFFFE000000000000FFFFFC000000FFFFE00000FFFFE0
FFFFFFFF000000000000FFFFFC000000FFFFE000007FFFE0
FFFFFFFF000000000000FFFFFC000000FFFFC000007FFFE0
FFFFFFFF800000000000FFFFFC000000FFFFC000007FFFE0
FFFFFFFF800000000000FFFFFC000000FFFFC000007FFFE0
FFFFFFFF800000000000FFFFFC000000FFFFC000007FFFE0
FFFFFFFFC00000000000FFFFFC000000FFFFC000007FFFE0
FFFFFFFFC00000000000FFFFFC000000FFFFC000007FFFE0
FFFFFFFFE00000000000FFFFFC000000FFFFC000007FFFE0
FFFFFFFFE00000000000FFFFFC000000FFFFC000007FFFE0
FFFFFFFFE00000000000FFFFFC000000FFFFC000007FFFE0
FFFFFFFFF00000000000FFFFFC000000FFFFC000007FFFE0
FFFFFFFFF00000000000FFFFFC000000FFFFC000007FFFE0
FFFFFFFFF80000000000FFFFFC000000FFFFC000007FFFE0
FFFFFFFFF80000000000FFFFFC000000FFFFC000007FFFE0
FFFFFFFFFC0000000000FFFFFC000000FFFFC000007FFFE0
FFFFFFFFFC0000000000FFFFFC000000FFFFC000007FFFE0
FFFFFFFFFC0000000000FFFFFC000000FFFFC000007FFFE0
FFFFFFFFFE0000000000FFFFFC000000FFFFC000007FFFE0
FFFFFFFFFE0000000000FFFFFC000000FFFFC000007FFFE0
FFFFFFFFFF0000000000FFFFFC000000FFFFC000007FFFE0
FFFFFFFFFF0000000000FFFFFC000000FFFFC000007FFFE0
FFFFF7FFFF0000000000FFFFFC000000FFFFC000007FFFE0
FFFFF7FFFF8000000000FFFFFC000000FFFFC000007FFFE0
FFFFF7FFFF8000000000FFFFFC000000FFFFC000007FFFE0
FFFFF3FFFFC000000000FFFFFC000000FFFFC000007FFFE0
FFFFF3FFFFC000000000FFFFFC000000FFFFC000007FFFE0
FFFFF3FFFFC000000000FFFFFC000000FFFFC000007FFFE0
FFFFF1FFFFE000000000FFFFFC000000FFFFC000007FFFE0
FFFFF1FFFFE000000000FFFFFC000000FFFFC000007FFFE0
FFFFF1FFFFF000000000FFFFFC000000FFFFC000007FFFE0
FFFFF0FFFFF000000000FFFFFC000000FFFFC000007FFFE0
FFFFF8FFFFF000000000FFFFFC000000FFFFC000007FFFE0
FFFFF8FFFFF800000000FFFFFC000000FFFFC000007FFFE0
FFFFF87FFFF800000000FFFFFC000000FFFFC000007FFFE0
FFFFF87FFFFC00000000FFFFFC000000FFFFC000007FFFE0
FFFFF87FFFFC00000000FFFFFC000000FFFFC000007FFFE0
FFFFF83FFFFE00000000FFFFFC000000FFFFC000007FFFE0
FFFFF83FFFFE00000000FFFFFC000000FFFFC000007FFFE0
FFFFF83FFFFE00000000FFFFFC000000FFFFC000007FFFE0
FFFFF81FFFFF00000000FFFFFC000000FFFFC000007FFFE0
FFFFF81FFFFF00000000FFFFFC000000FFFFE000007FFFE0
FFFFF81FFFFF80000000FFFFFC000000FFFFE00000FFFFE0
FFFFF80FFFFF80000000FFFFFC000000FFFFE00000FFFFE0
FFFFFC0FFFFF80000000FFFFFC000000FFFFF00001FFFFE0
FFFFFC0FFFFFC0000000FFFFFC000000FFFFF80003FFFFE0
FFFFFC07FFFFC0000000FFFFFC000000FFFFFF001FFFFFE0
FFFFFC07FFFFE0000000FFFFFC000000FFFFFFFFFFFFFFE0
FFFFFC07FFFFE0000000FFFFFC0000007FFFFFFFFFFFFFE0
FFFFFC03FFFFE0000000FFFFFC0000007FFFFFFFFFFFFFE0
FFFFFC03FFFFF0000000FFFFFC0000007FFFFFFFFFFFFFC0
FFFFFC03FFFFF0000000FFFFFC0000007FFFFFFFFFFFFFC0
FFFFFC01FFFFF8000000FFFFFC0000007FFFFFFFFFFFFFC0
FFFFFC01FFFFF8000000FFFFFC0000003FFFFFFFFFFFFF80
FFFFFC00FFFFF8000000FFFFFC0000003FFFFFFFFFFFFF80
FFFFFC00FFFFFC000000FFFFFC0000001FFFFFFFFFFFFF00
FFFFFC00FFFFFC000000FFFFFC0000000FFFFFFFFFFFFF00
FFFFFC007FFFFE000000FFFFFC00000007FFFFFFFFFFFE00
FFFFFC007FFFFE000000FFFFFC00000003FFFFFFFFFFFC00
FFFFFC003FFFFF000000FFFFFC00000001FFFFFFFFFFF000
FFFFFC003FFFFF000000FFFFFC000000003FFFFFFFFFC000
FFFFFC003FFFFF000000FFFFFC0000000003FFFFFFF80000
FFFFFC001FFFFF800000FFFFFC0000000000000000000000
FFFFFC001FFFFF800000FFFFFC0000000000000000000000
FFFFFC000FFFFFC00000FFFFFC0000000000000000000000
FFFFFC000FFFFFC00000FFFFFC0000000000000000000000
FFFFFC0007FFFFC00000FFFFFC0000000000000000000000
FFFFFC0007FFFFE00000FFFFFC0000000000000000000000
FFFFFC0007FFFFE00000FFFFFC0000000000000000000000
FFFFFC0003FFFFF00000FFFFFC0000000000000000000000
FFFFFC0003FFFFF00000FFFFFC0000000000000000000000
FFFFFC0001FFFFF00000FFFFFC0000000000000000000000
FFFFFC0001FFFFF80000FFFFFC0000000000000000000000
FFFFFC0001FFFFF80000FFFFFC0000000000000000000000
FFFFFC0000FFFFFC0000FFFFFC0000000000000000000000
FFFFFC0000FFFFFC0000FFFFFC0000000000000000000000
FFFFFC00007FFFFE0000FFFFFC000000FFFFFFFFFFFFFF00
FFFFFC00007FFFFE0000FFFFFC000000FFFFFFFFFFFFFFC0
FFFFFC00003FFFFE0000FFFFFC000000FFFFFFFFFFFFFFE0
FFFFFC00003FFFFF0000FFFFFC000000FFFFFFFFFFFFFFE0
FFFFFC00003FFFFF0000FFFFFC000000FFFFFFFFFFFFFFE0
FFFFFC00001FFFFF8000FFFFFC000000FFFFFFFFFFFFFFE0
FFFFFC00001FFFFF8000FFFFFC000000FFFFFFFFFFFFFFE0
FFFFFC00000FFFFF8000FFFFFC000000FFFFFFFFFFFFFFE0
FFFFFC00000FFFFFC000FFFFFC000000FFFFFFFFFFFFFFE0
FFFFFC00000FFFFFC000FFFFFC000000FFFFFFFFFFFFFFE0
FFFFFC000007FFFFE000FFFFFC000000FFFFFFFFFFFFFFE0
FFFFFC000007FFFFE000FFFFFC000000FFFFFFFFFFFFFFE0
FFFFFC000003FFFFE000FFFFFC000000FFFFFFFFFFFFFFE0
FFFFFC000003FFFFF000FFFFFC0000007FFFFFFFFFFFFFE0
FFFFFC000001FFFFF000FFFFFC0000007FFFFFFFFFFFFFE0
FFFFFC000001FFFFF800FFFFFC0000001FFFFFFFFFFFFFE0
FFFFFC000001FFFFF800FFFFFC0000000000000000000000
FFFFFC000000FFFFF800FFFFFC0000000000000000000000
FFFFFC000000FFFFFC00FFFFFC0000000000000000000000
FFFFFC0000007FFFFC00FFFFFC0000000000000000000000
FFFFFC0000007FFFFE00FFFFFC0000000000000000000000
FFFFFC0000007FFFFE00FFFFFC0000000000000000000000
FFFFFC0000003FFFFF00FFFFFC0000000000000000000000
FFFFFC0000003FFFFF00FFFFFC0000000000000000000000
FFFFFC0000001FFFFF00FFFFFC0000000000000000000000
FFFFFC0000001FFFFF00FFFFFC0000000000000000000000
FFFFFC0000000FFFFF80FFFFFC0000000000000000000000
FFFFFC0000000FFFFF80FFFFFC0000000000000000000000
FFFFFC0000000FFFFF80FFFFFC0000000000000000000000
FFFFFC00000007FFFFC0FFFFFC0000000000000000000000
FFFFFC00000007FFFFC0FFFFFC0000000000000000000000
FFFFFC00000003FFFFC0FFFFFC0000000000000000000000
FFFFFC00000003FFFFE0FFFFFC0000000000000000000000
FFFFFC00000003FFFFE0FFFFFC0000000000000000000000
FFFFFC00000001FFFFE07FFFFC0000000000000000000000
FFFFFC00000001FFFFF07FFFFC0000000000000000000000
FFFFFC00000000FFFFF07FFFFC0000000000000000000000
FFFFFC00000000FFFFF07FFFFC0000000000000000000000
FFFFFC00000000FFFFF87FFFFC0000000000000000000000
FFFFFC000000007FFFF87FFFFC0000000000000000000000
FFFFFC000000007FFFF87FFFFC0000000000000000000000
FFFFFC000000003FFFFC7FFFFC0000000000000000000000
FFFFFC000000003FFFFC7FFFFC0000000000000000000000
FFFFFC000000001FFFFC7FFFFC0000000000000000000000
FFFFFC000000001FFFFE7FFFFC0000000000000000000000
FFFFFC000000001FFFFE7FFFFC0000000000000000000000
FFFFFC000000000FFFFE7FFFFC0000000000000000000000
FFFFFC000000000FFFFF3FFFFC0000000000000000000000
FFFFFC0000000007FFFF3FFFFC0000000000000000000000
FFFFFC0000000007FFFF3FFFFC0000000000000000000000
FFFFFC0000000007FFFFBFFFFC0000000000000000000000
FFFFFC0000000003FFFFBFFFFC0000000000000000000000
FFFFFC0000000003FFFFBFFFFC0000000000000000000000
FFFFFC0000000001FFFFFFFFFC0000000000000000000000
FFFFFC0000000001FFFFFFFFFC0000000000000000000000
FFFFFC0000000000FFFFFFFFFC0000000000000000000000
FFFFFC0000000000FFFFFFFFFC0000000000000000000000
FFFFFC0000000000FFFFFFFFFC0000000000000000000000
FFFFFC00000000007FFFFFFFFC0000000000000000000000
FFFFFC00000000007FFFFFFFFC0000000000000000000000
FFFFFC00000000003FFFFFFFFC0000000000000000000000
FFFFFC00000000003FFFFFFFFC0000000000000000000000
FFFFFC00000000003FFFFFFFFC0000000000000000000000
FFFFFC00000000001FFFFFFFFC0000000000000000000000
FFFFFC00000000001FFFFFFFFC0000000000000000000000
FFFFFC00000000000FFFFFFFFC0000000000000000000000
FFFFFC00000000000FFFFFFFFC0000000000000000000000
FFFFFC000000000007FFFFFFFC0000000000000000000000
FFFFFC000000000007FFFFFFFC0000000000000000000000
FFFFFC000000000007FFFFFFFC0000000000000000000000
FFFFFC000000000003FFFFFFFC0000000000000000000000
FFFFFC000000000003FFFFFFFC0000000000000000000000
FFFFFC000000000001FFFFFFFC0000000000000000000000
FFFFFC000000000001FFFFFFFC0000000000000000000000
FFFFFC000000000001FFFFFFFC0000000000000000000000
FFFFFC000000000000FFFFFFFC0000000000000000000000
FFFFFC000000000000FFFFFFFC0000000000000000000000
FFFFFC0000000000007FFFFFFC0000000000000000000000
FFFFFC0000000000007FFFFFFC0000000000000000000000
FFFFFC0000000000003FFFFFFC0000000000000000000000
FFFFFC0000000000003FFFFFFC0000000000000000000000
FFFFFC0000000000003FFFFFFC0000000000000000000000
FFFFFC0000000000001FFFFFFC0000000000000000000000
FFFFFC0000000000001FFFFFFC0000000000000000000000
FFFFFC0000000000000FFFFFFC0000000000000000000000
FFFFFC0000000000000FFFFFFC0000000000000000000000
FFFFFC0000000000000FFFFFFC0000000000000000000000
FFFFFC00000000000007FFFFFC0000000000000000000000
FFFFFC00000000000007FFFFFC0000000000000000000000
FFFFFC00000000000003FFFFFC0000000000000000000000
FFFFFC00000000000003FFFFFC0000000000000000000000
FFFFFC00000000000001FFFFFC0000000000000000000000
FFFFFC00000000000001FFFFFC0000000000000000000000
FFFFFC00000000000001FFFFFC0000000000000000000000
FFFFFC00000000000000FFFFFC0000000000000000000000
FFFFFC00000000000000FFFFFC0000000000000000000000
FFFFFC000000000000007FFFF80000000000000000000000
FFFFF8000000000000007FFFF80000000000000000000000
FFFFF8000000000000007FFFF00000000000000000000000
FFFFE0000000000000003FFFC00000000000000000000000
ENDCHAR
STARTCHAR 0024
ENCODING 36
SWIDTH 435 0
DWIDTH 121 0
BBX 85 195 18 0
BITMAP
0000000007FFF800000000
000000000FFFF800000000
000000001FFFF800000000
000000003FFFF800000000
000000003FFFF800000000
000000003FFFF800000000
000000003FFFF800000000
000000003FFFF800000000
000000003FFFF800000000
000000003FFFF800000000
000000003FFFF800000000
000000003FFFF800000000
000000003FFFF800000000
000000003FFFF800000000
000000003FFFF800000000
000000003FFFF800000000
000000003FFFF800000000
000000003FFFF800000000
000000003FFFF800000000
000000003FFFF800000000
000000003FFFF800000000
000000003FFFF800000000
000000003FFFF800000000
000000003FFFF800000000
000000003FFFF800000000
00001FFFFFFFFFFFFFC000
0003FFFFFFFFFFFFFFF800
001FFFFFFFFFFFFFFFFC00
007FFFFFFFFFFFFFFFFE00
01FFFFFFFFFFFFFFFFFF00
03FFFFFFFFFFFFFFFFFF80
07FFFFFFFFFFFFFFFFFF80
0FFFFFFFFFFFFFFFFFFF80
0FFFFFFFFFFFFFFFFFFFC0
1FFFFFFFFFFFFFFFFFFFC0
1FFFFFFFFFFFFFFFFFFFC0
3FFFFFFFFFFFFFFFFFFFC0
3FFFFFFFFFFFFFFFFFFFE0
7FFFFFFFFFFFFFFFFFFFE0
7FFFFFFFFFFFFFFFFFFFE0
7FFFFFFFFFFFFFFFFFFFE0
7FFFFFFC00000000000000
FFFFFFE000000000000000
FFFFFF8000000000000000
FFFFFF0000000000000000
FFFFFF0000000000000000
FFFFFE0000000000000000
FFFFFE0000000000000000
FFFFFE0000000000000000
FFFFFE0000000000000000
FFFFFC0000000000000000
FFFFFC0000000000000000
FFFFFC0000000000000000
FFFFFC0000000000000000
FFFFFC0000000000000000
FFFFFC0000000000000000
FFFFFC0000000000000000
FFFFFC0000000000000000
FFFFFC0000000000000000
FFFFFC0000000000000000
FFFFFC0000000000000000
FFFFFC0000000000000000
FFFFFC0000000000000000
FFFFFC0000000000000000
FFFFFC0000000000000000
FFFFFC0000000000000000
FFFFFC0000000000000000
FFFFFC0000000000000000
FFFFFC0000000000000000
FFFFFC0000000000000000
FFFFFC0000000000000000
FFFFFC0000000000000000
FFFFFC0000000000000000
FFFFFC0000000000000000
FFFFFC0000000000000000
FFFFFC0000000000000000
FFFFFC0000000000000000
FFFFFE0000000000000000
FFFFFE0000000000000000
FFFFFE0000000000000000
FFFFFE0000000000000000
FFFFFF0000000000000000
FFFFFF0000000000000000
FFFFFF8000000000000000
FFFFFFE000000000000000
7FFFFFFC00000000000000
7FFFFFFFFFFFFFFFC00000
7FFFFFFFFFFFFFFFFE0000
7FFFFFFFFFFFFFFFFFC000
3FFFFFFFFFFFFFFFFFF000
3FFFFFFFFFFFFFFFFFF800
1FFFFFFFFFFFFFFFFFFE00
1FFFFFFFFFFFFFFFFFFF00
0FFFFFFFFFFFFFFFFFFF00
0FFFFFFFFFFFFFFFFFFF80
07FFFFFFFFFFFFFFFFFFC0
03FFFFFFFFFFFFFFFFFFC0
01FFFFFFFFFFFFFFFFFFE0
007FFFFFFFFFFFFFFFFFE0
001FFFFFFFFFFFFFFFFFE0
0003FFFFFFFFFFFFFFFFF0
00001FFFFFFFFFFFFFFFF0
00000000000001FFFFFFF0
000000000000003FFFFFF0
000000000000001FFFFFF8
000000000000000FFFFFF8
0000000000000007FFFFF8
0000000000000007FFFFF8
0000000000000003FFFFF8
0000000000000003FFFFF8
0000000000000003FFFFF8
0000000000000003FFFFF8
0000000000000001FFFFF8
0000000000000001FFFFF8
0000000000000001FFFFF8
0000000000000001FFFFF8
0000000000000001FFFFF8
0000000000000001FFFFF8
0000000000000001FFFFF8
0000000000000001FFFFF8
0000000000000001FFFFF8
0000000000000001FFFFF8
0000000000000001FFFFF8
0000000000000001FFFFF8
0000000000000001FFFFF8
0000000000000001FFFFF8
0000000000000001FFFFF8
0000000000000001FFFFF8
0000000000000001FFFFF8
0000000000000001FFFFF8
0000000000000001FFFFF8
0000000000000001FFFFF8
0000000000000001FFFFF8
0000000000000001FFFFF8
0000000000000001FFFFF8
0000000000000001FFFFF8
0000000000000001FFFFF8
0000000000000001FFFFF8
0000000000000001FFFFF8
0000000000000001FFFFF8
0000000000000001FFFFF8
0000000000000001FFFFF8
0000000000000001FFFFF8
0000000000000001FFFFF8
0000000000000001FFFFF8
0000000000000001FFFFF8
0000000000000001FFFFF8
0000000000000003FFFFF8
0000000000000003FFFFF8
0000000000000003FFFFF8
0000000000000003FFFFF8
0000000000000003FFFFF8
0000000000000007FFFFF8
0000000000000007FFFFF8
000000000000000FFFFFF8
000000000000003FFFFFF0
00000000000001FFFFFFF0
FFFFFFFFFFFFFFFFFFFFF0
FFFFFFFFFFFFFFFFFFFFF0
FFFFFFFFFFFFFFFFFFFFE0
FFFFFFFFFFFFFFFFFFFFE0
FFFFFFFFFFFFFFFFFFFFE0
FFFFFFFFFFFFFFFFFFFFC0
7FFFFFFFFFFFFFFFFFFFC0
7FFFFFFFFFFFFFFFFFFF80
7FFFFFFFFFFFFFFFFFFF00
3FFFFFFFFFFFFFFFFFFF00
3FFFFFFFFFFFFFFFFFFE00
1FFFFFFFFFFFFFFFFFF800
1FFFFFFFFFFFFFFFFFF000
0FFFFFFFFFFFFFFFFFC000
03FFFFFFFFFFFFFFFE0000
007FFFFFFFFFFFFFC00000
000000001FFFF800000000
000000001FFFF800000000
000000001FFFF800000000
000000001FFFF800000000
000000001FFFF800000000
000000001FFFF800000000
000000001FFFF800000000
000000001FFFF800000000
000000001FFFF800000000
000000001FFFF800000000
000000001FFFF800000000
000000001FFFF800000000
000000001FFFF800000000
000000001FFFF800000000
000000001FFFF800000000
000000001FFFF800000000
000000001FFFF800000000
000000001FFFF800000000
000000001FFFF800000000
000000001FFFF000000000
000000001FFFF000000000
000000001FFFC000000000
ENDCHAR
STARTCHAR 0025
ENCODING 37
SWIDTH 630 0
DWIDTH 175 0
BBX 147 195 14 0
BITMAP
0001FFFFFFF80000000000000003FFFF800000
003FFFFFFFFFC00000000000000FFFFF800000
00FFFFFFFFFFF00000000000001FFFFF000000
03FFFFFFFFFFFC0000000000003FFFFF000000
07FFFFFFFFFFFE0000000000007FFFFE000000
0FFFFFFFFFFFFF0000000000007FFFFE000000
1FFFFFFFFFFFFF800000000000FFFFFC000000
1FFFFFFFFFFFFF800000000000FFFFFC000000
3FFFFFFFFFFFFFC00000000001FFFFF8000000
3FFFFFFFFFFFFFC00000000001FFFFF8000000
3FFFFFFFFFFFFFE00000000003FFFFF0000000
7FFFFFFFFFFFFFE00000000003FFFFF0000000
7FFFFFFFFFFFFFE00000000007FFFFE0000000
7FFFFFFFFFFFFFE00000000007FFFFE0000000
7FFFFFFFFFFFFFE0000000000FFFFFC0000000
7FFFFF801FFFFFF0000000000FFFFFC0000000
7FFFFC0003FFFFF0000000001FFFFF80000000
7FFFF80000FFFFF0000000001FFFFF80000000
7FFFF00000FFFFF0000000003FFFFF00000000
7FFFF000007FFFF0000000003FFFFF00000000
FFFFE000007FFFF0000000007FFFFE00000000
FFFFE000007FFFF0000000007FFFFE00000000
FFFFE000003FFFF000000000FFFFFE00000000
FFFFE000003FFFF000000000FFFFFC00000000
FFFFE000003FFFF000000001FFFFFC00000000
FFFFE000003FFFF000000001FFFFF800000000
FFFFE000003FFFF000000003FFFFF800000000
FFFFE000003FFFF000000003FFFFF000000000
FFFFE000003FFFF000000007FFFFF000000000
FFFFE000003FFFF000000007FFFFE000000000
FFFFE000003FFFF00000000FFFFFE000000000
FFFFE000003FFFF00000000FFFFFC000000000
FFFFE000003FFFF00000001FFFFFC000000000
FFFFE000003FFFF00000001FFFFF8000000000
FFFFE000003FFFF00000003FFFFF8000000000
FFFFE000003FFFF00000003FFFFF0000000000
FFFFE000003FFFF00000007FFFFF0000000000
FFFFE000003FFFF00000007FFFFE0000000000
FFFFE000003FFFF00000007FFFFE0000000000
FFFFE000003FFFF0000000FFFFFC0000000000
FFFFE000003FFFF0000000FFFFFC0000000000
FFFFE000003FFFF0000001FFFFF80000000000
FFFFE000003FFFF0000001FFFFF80000000000
FFFFE000003FFFF0000003FFFFF00000000000
FFFFE000003FFFF0000003FFFFF00000000000
FFFFE000003FFFF0000007FFFFE00000000000
FFFFE000003FFFF0000007FFFFE00000000000
FFFFE000003FFFF000000FFFFFC00000000000
FFFFE000003FFFF000000FFFFFC00000000000
FFFFE000003FFFF000001FFFFF800000000000
FFFFE000003FFFF000001FFFFF800000000000
FFFFE000003FFFF000003FFFFF000000000000
FFFFE000003FFFF000003FFFFF000000000000
FFFFE000003FFFF000007FFFFE000000000000
FFFFE000003FFFF000007FFFFE000000000000
FFFFE000003FFFF00000FFFFFC000000000000
FFFFE000003FFFF00000FFFFFC000000000000
FFFFE000003FFFF00001FFFFF8000000000000
FFFFE000003FFFF00001FFFFF8000000000000
FFFFE000007FFFF00003FFFFF8000000000000
FFFFE000007FFFF00003FFFFF0000000000000
7FFFF000007FFFF00007FFFFF0000000000000
7FFFF00000FFFFF00007FFFFE0000000000000
7FFFF80000FFFFF0000FFFFFE0000000000000
7FFFFC0001FFFFF0000FFFFFC0000000000000
7FFFFF800FFFFFF0001FFFFFC0000000000000
7FFFFFFFFFFFFFE0001FFFFF80000000000000
7FFFFFFFFFFFFFE0003FFFFF80000000000000
7FFFFFFFFFFFFFE0003FFFFF00000000000000
7FFFFFFFFFFFFFE0007FFFFF00000000000000
3FFFFFFFFFFFFFE0007FFFFE00000000000000
3FFFFFFFFFFFFFC000FFFFFE00000000000000
3FFFFFFFFFFFFFC000FFFFFC00000000000000
1FFFFFFFFFFFFF8001FFFFFC00000000000000
1FFFFFFFFFFFFF8001FFFFF800000000000000
0FFFFFFFFFFFFF0001FFFFF800000000000000
07FFFFFFFFFFFE0003FFFFF000000000000000
03FFFFFFFFFFFC0003FFFFF000000000000000
00FFFFFFFFFFF00007FFFFE000000000000000
003FFFFFFFFFC00007FFFFE000000000000000
0001FFFFFFF800000FFFFFC000000000000000
00000000000000000FFFFFC000000000000000
00000000000000001FFFFF8000000000000000
00000000000000001FFFFF8000000000000000
00000000000000003FFFFF0000000000000000
00000000000000003FFFFF0000000000000000
00000000000000007FFFFE0000000000000000
00000000000000007FFFFE0000000000000000
0000000000000000FFFFFC0000000000000000
0000000000000000FFFFFC0000000000000000
0000000000000001FFFFF80000000000000000
0000000000000001FFFFF80000000000000000
0000000000000003FFFFF00000000000000000
0000000000000003FFFFF00000000000000000
0000000000000007FFFFE00000000000000000
0000000000000007FFFFE00000000000000000
000000000000000FFFFFE00000000000000000
000000000000000FFFFFC00000000000000000
000000000000001FFFFFC00000000000000000
000000000000001FFFFF800000000000000000
000000000000003FFFFF800000000000000000
000000000000003FFFFF000000000000000000
000000000000007FFFFF000000000000000000
000000000000007FFFFE000000000000000000
00000000000000FFFFFE000000000000000000
00000000000000FFFFFC000000000000000000
00000000000001FFFFFC000000000000000000
00000000000001FFFFF8000000000000000000
00000000000003FFFFF8000000000000000000
00000000000003FFFFF0000000000000000000
00000000000007FFFFF0000000000000000000
00000000000007FFFFE0000000000000000000
00000000000007FFFFE0000000000000000000
0000000000000FFFFFC0000000000000000000
0000000000000FFFFFC0000001FFFFFFF00000
0000000000001FFFFF8000003FFFFFFFFF8000
0000000000001FFFFF800001FFFFFFFFFFF000
0000000000003FFFFF000003FFFFFFFFFFF800
0000000000003FFFFF00000FFFFFFFFFFFFE00
0000000000007FFFFE00000FFFFFFFFFFFFE00
0000000000007FFFFE00001FFFFFFFFFFFFF00
000000000000FFFFFC00003FFFFFFFFFFFFF80
000000000000FFFFFC00003FFFFFFFFFFFFF80
000000000001FFFFF800007FFFFFFFFFFFFFC0
000000000001FFFFF800007FFFFFFFFFFFFFC0
000000000003FFFFF000007FFFFFFFFFFFFFC0
000000000003FFFFF000007FFFFFFFFFFFFFC0
000000000007FFFFE00000FFFFFFFFFFFFFFE0
000000000007FFFFE00000FFFFFFFFFFFFFFE0
00000000000FFFFFC00000FFFFFF001FFFFFE0
00000000000FFFFFC00000FFFFF80003FFFFE0
00000000001FFFFFC00000FFFFF00001FFFFE0
00000000001FFFFF800000FFFFE00000FFFFE0
00000000003FFFFF800000FFFFE00000FFFFE0
00000000003FFFFF000000FFFFE00000FFFFE0
00000000007FFFFF000000FFFFC000007FFFE0
00000000007FFFFE000000FFFFC000007FFFE0
0000000000FFFFFE000000FFFFC000007FFFE0
0000000000FFFFFC000000FFFFC000007FFFE0
0000000001FFFFFC000000FFFFC000007FFFE0
0000000001FFFFF8000000FFFFC000007FFFE0
0000000003FFFFF8000000FFFFC000007FFFE0
0000000003FFFFF0000000FFFFC000007FFFE0
0000000007FFFFF0000000FFFFC000007FFFE0
0000000007FFFFE0000000FFFFC000007FFFE0
000000000FFFFFE0000000FFFFC000007FFFE0
000000000FFFFFC0000000FFFFC000007FFFE0
000000000FFFFFC0000000FFFFC000007FFFE0
000000001FFFFF80000000FFFFC000007FFFE0
000000001FFFFF80000000FFFFC000007FFFE0
000000003FFFFF00000000FFFFC000007FFFE0
000000003FFFFF00000000FFFFC000007FFFE0
000000007FFFFE00000000FFFFC000007FFFE0
000000007FFFFE00000000FFFFC000007FFFE0
00000000FFFFFC00000000FFFFC000007FFFE0
00000000FFFFFC00000000FFFFC000007FFFE0
00000001FFFFF800000000FFFFC000007FFFE0
00000001FFFFF800000000FFFFC000007FFFE0
00000003FFFFF000000000FFFFC000007FFFE0
00000003FFFFF000000000FFFFC000007FFFE0
00000007FFFFE000000000FFFFC000007FFFE0
00000007FFFFE000000000FFFFC000007FFFE0
0000000FFFFFC000000000FFFFC000007FFFE0
0000000FFFFFC000000000FFFFC000007FFFE0
0000001FFFFF8000000000FFFFC000007FFFE0
0000001FFFFF8000000000FFFFC000007FFFE0
0000003FFFFF0000000000FFFFC000007FFFE0
0000003FFFFF0000000000FFFFC000007FFFE0
0000007FFFFF0000000000FFFFC000007FFFE0
0000007FFFFE0000000000FFFFC000007FFFE0
000000FFFFFE0000000000FFFFC000007FFFE0
000000FFFFFC0000000000FFFFC000007FFFE0
000001FFFFFC0000000000FFFFC000007FFFE0
000001FFFFF80000000000FFFFC000007FFFE0
000003FFFFF80000000000FFFFE00000FFFFE0
000003FFFFF00000000000FFFFE00000FFFFE0
000007FFFFF00000000000FFFFE00000FFFFE0
000007FFFFE00000000000FFFFF00001FFFFE0
00000FFFFFE00000000000FFFFF80003FFFFE0
00000FFFFFC00000000000FFFFFF001FFFFFE0
00001FFFFFC00000000000FFFFFFFFFFFFFFE0
00001FFFFF800000000000FFFFFFFFFFFFFFE0
00003FFFFF8000000000007FFFFFFFFFFFFFC0
00003FFFFF0000000000007FFFFFFFFFFFFFC0
00003FFFFF0000000000007FFFFFFFFFFFFFC0
00007FFFFE0000000000007FFFFFFFFFFFFFC0
00007FFFFE0000000000003FFFFFFFFFFFFF80
0000FFFFFC0000000000003FFFFFFFFFFFFF80
0000FFFFFC0000000000001FFFFFFFFFFFFF00
0001FFFFF80000000000000FFFFFFFFFFFFE00
0001FFFFF80000000000000FFFFFFFFFFFFE00
0003FFFFF000000000000003FFFFFFFFFFF800
0003FFFFE000000000000001FFFFFFFFFFF000
0007FFFFC0000000000000003FFFFFFFFF8000
0007FFFE000000000000000003FFFFFFF80000
ENDCHAR
STARTCHAR 0026
ENCODING 38
SWIDTH 453 0
DWIDTH 126 0
BBX 99 195 18 0
BITMAP
00001FFFFFFFFFFFE000000000
0003FFFFFFFFFFFFFC00000000
000FFFFFFFFFFFFFFF00000000
003FFFFFFFFFFFFFFF80000000
00FFFFFFFFFFFFFFFF80000000
01FFFFFFFFFFFFFFFFC0000000
03FFFFFFFFFFFFFFFFC0000000
07FFFFFFFFFFFFFFFFE0000000
0FFFFFFFFFFFFFFFFFE0000000
0FFFFFFFFFFFFFFFFFE0000000
1FFFFFFFFFFFFFFFFFE0000000
1FFFFFFFFFFFFFFFFFF0000000
3FFFFFFFFFFFFFFFFFF0000000
3FFFFFFFFFFFFFFFFFF0000000
3FFFFFFFFFFFFFFFFFF0000000
7FFFFFFFFFFFFFFFFFF0000000
7FFFFFFC000000000000000000
7FFFFFE0000000000000000000
7FFFFFC0000000000000000000
7FFFFF80000000000000000000
7FFFFF00000000000000000000
7FFFFF00000000000000000000
FFFFFF00000000000000000000
FFFFFE00000000000000000000
FFFFFE00000000000000000000
FFFFFE00000000000000000000
FFFFFE00000000000000000000
FFFFFE00000000000000000000
FFFFFE00000000000000000000
FFFFFE00000000000000000000
FFFFFE00000000000000000000
FFFFFE00000000000000000000
FFFFFE00000000000000000000
FFFFFE00000000000000000000
FFFFFE00000000000000000000
FFFFFE00000000000000000000
FFFFFE00000000000000000000
FFFFFE00000000000000000000
FFFFFE00000000000000000000
FFFFFE00000000000000000000
FFFFFE00000000000000000000
FFFFFE00000000000000000000
FFFFFE00000000000000000000
FFFFFE00000000000000000000
FFFFFE00000000000000000000
FFFFFE00000000000000000000
FFFFFE00000000000000000000
FFFFFE00000000000000000000
FFFFFE00000000000000000000
FFFFFE00000000000000000000
FFFFFE00000000000000000000
FFFFFE00000000000000000000
FFFFFE00000000000000000000
FFFFFE00000000000000000000
FFFFFE00000000000000000000
FFFFFE00000000000000000000
FFFFFE00000000000000000000
FFFFFE00000000000000000000
FFFFFE00000000000000000000
FFFFFE00000000000000000000
FFFFFE00000000000000000000
FFFFFE00000000000000000000
FFFFFE00000000000000000000
FFFFFE00000000000000000000
FFFFFE00000000000000000000
FFFFFE00000000000000000000
FFFFFE00000000000000000000
FFFFFE00000000000000000000
FFFFFE00000000000000000000
FFFFFE00000000000000000000
FFFFFE00000000007FFFC00000
FFFFFE0000000001FFFFC00000
7FFFFE0000000003FFFFC00000
7FFFFE0000000003FFFFC00000
7FFFFE0000000007FFFFC00000
7FFFFE0000000007FFFFC00000
7FFFFE0000000007FFFFC00000
7FFFFE0000000007FFFFC00000
3FFFFE0000000007FFFFC00000
3FFFFF0000000007FFFFC00000
3FFFFF0000000007FFFFC00000
3FFFFF0000000007FFFFC00000
1FFFFF8000000007FFFFC00000
1FFFFFC000000007FFFFC00000
0FFFFFE000000007FFFFC00000
07FFFFFC00000007FFFFC00000
07FFFFFFFFFFFFFFFFFFFFFF00
03FFFFFFFFFFFFFFFFFFFFFFC0
01FFFFFFFFFFFFFFFFFFFFFFE0
007FFFFFFFFFFFFFFFFFFFFFE0
001FFFFFFFFFFFFFFFFFFFFFE0
0007FFFFFFFFFFFFFFFFFFFFE0
0000FFFFFFFFFFFFFFFFFFFFE0
0003FFFFFFFFFFFFFFFFFFFFE0
001FFFFFFFFFFFFFFFFFFFFFE0
003FFFFFFFFFFFFFFFFFFFFFE0
00FFFFFFFFFFFFFFFFFFFFFFE0
01FFFFFFFFFFFFFFFFFFFFFFE0
03FFFFFFFFFFFFFFFFFFFFFFE0
07FFFFFFFFFFFFFFFFFFFFFFE0
07FFFFFFFFFFFFFFFFFFFFFFE0
0FFFFFFFFFFFFFFFFFFFFFFFE0
1FFFFFFC00000007FFFFC00000
1FFFFFE000000007FFFFC00000
3FFFFFC000000007FFFFC00000
3FFFFF8000000007FFFFC00000
3FFFFF0000000007FFFFC00000
3FFFFF0000000007FFFFC00000
7FFFFF0000000007FFFFC00000
7FFFFE0000000007FFFFC00000
7FFFFE0000000007FFFFC00000
7FFFFE0000000007FFFFC00000
7FFFFE0000000007FFFFC00000
7FFFFE0000000007FFFFC00000
FFFFFE0000000007FFFFC00000
FFFFFE0000000007FFFFC00000
FFFFFE0000000007FFFFC00000
FFFFFE0000000007FFFFC00000
FFFFFE0000000007FFFFC00000
FFFFFE0000000007FFFFC00000
FFFFFE0000000007FFFFC00000
FFFFFE0000000007FFFFC00000
FFFFFE0000000007FFFFC00000
FFFFFE0000000007FFFFC00000
FFFFFE0000000007FFFFC00000
FFFFFE0000000007FFFFC00000
FFFFFE0000000007FFFFC00000
FFFFFE0000000007FFFFC00000
FFFFFE0000000007FFFFC00000
FFFFFE0000000007FFFFC00000
FFFFFE0000000007FFFFC00000
FFFFFE0000000007FFFFC00000
FFFFFE0000000007FFFFC00000
FFFFFE0000000007FFFFC00000
FFFFFE0000000007FFFFC00000
FFFFFE0000000007FFFFC00000
FFFFFE0000000007FFFFC00000
FFFFFE0000000007FFFFC00000
FFFFFE0000000007FFFFC00000
FFFFFE0000000007FFFFC00000
FFFFFE0000000007FFFFC00000
FFFFFE0000000007FFFFC00000
FFFFFE0000000007FFFFC00000
FFFFFE0000000007FFFFC00000
FFFFFE0000000007FFFFC00000
FFFFFE0000000007FFFFC00000
FFFFFE0000000007FFFFC00000
FFFFFE0000000007FFFFC00000
FFFFFE0000000007FFFFC00000
FFFFFE0000000007FFFFC00000
FFFFFE0000000007FFFFC00000
FFFFFE0000000007FFFFC00000
FFFFFE0000000007FFFFC00000
FFFFFE0000000007FFFFC00000
FFFFFE0000000007FFFFC00000
FFFFFE0000000007FFFFC00000
FFFFFE0000000007FFFFC00000
FFFFFE0000000007FFFFC00000
FFFFFE0000000007FFFFC00000
FFFFFE0000000007FFFFC00000
FFFFFE0000000007FFFFC00000
FFFFFE0000000007FFFFC00000
FFFFFE0000000007FFFFC00000
FFFFFE0000000007FFFFC00000
FFFFFE0000000007FFFFC00000
FFFFFE0000000007FFFFC00000
FFFFFE0000000007FFFFC00000
FFFFFE0000000007FFFFC00000
FFFFFE0000000007FFFFC00000
FFFFFE0000000007FFFFC00000
FFFFFE0000000007FFFFC00000
FFFFFE0000000007FFFFC00000
FFFFFF0000000007FFFFC00000
7FFFFF0000000007FFFFC00000
7FFFFF0000000007FFFFC00000
7FFFFF8000000007FFFFC00000
7FFFFFC000000007FFFFC00000
7FFFFFE000000007FFFFC00000
7FFFFFFC00000007FFFFC00000
7FFFFFFFFFFFC007FFFFC00000
3FFFFFFFFFFFC007FFFFC00000
3FFFFFFFFFFFC007FFFFC00000
3FFFFFFFFFFFC007FFFFC00000
1FFFFFFFFFFFC007FFFFC00000
1FFFFFFFFFFFC007FFFFC00000
0FFFFFFFFFFFC007FFFFC00000
0FFFFFFFFFFFC007FFFFC00000
07FFFFFFFFFFC007FFFFC00000
03FFFFFFFFFFC007FFFFC00000
01FFFFFFFFFFC007FFFFC00000
00FFFFFFFFFFC007FFFFC00000
003FFFFFFFFFC007FFFF800000
000FFFFFFFFF8007FFFF800000
0003FFFFFFFF8007FFFF000000
00001FFFFFFE0007FFFC000000
ENDCHAR
STARTCHAR 0027
ENCODING 39
SWIDTH 190 0
DWIDTH 53 0
BBX 19 44 17 151
BITMAP
FFFE00
FFFF80
FFFFC0
FFFFC0
FFFFE0
FFFFE0
FFFFE0
FFFFE0
FFFFE0
FFFFE0
FFFFE0
FFFFE0
FFFFE0
FFFFE0
FFFFE0
FFFFE0
FFFFE0
FFFFE0
FFFFE0
FFFFE0
FFFFE0
FFFFE0
FFFFE0
FFFFE0
FFFFE0
FFFFE0
FFFFE0
FFFFE0
FFFFE0
FFFFE0
FFFFE0
FFFFE0
FFFFE0
FFFFE0
FFFFE0
FFFFE0
FFFFE0
FFFFE0
FFFFE0
FFFFE0
FFFFE0
7FFFE0
7FFFE0
1FFFE0
ENDCHAR
STARTCHAR 0028
ENCODING 40
SWIDTH 280 0
DWIDTH 78 0
BBX 47 247 20 -36
BITMAP
00003FFFFFF0
0007FFFFFFFC
003FFFFFFFFC
00FFFFFFFFFE
01FFFFFFFFFE
03FFFFFFFFFE
07FFFFFFFFFE
0FFFFFFFFFFE
1FFFFFFFFFFE
1FFFFFFFFFFE
3FFFFFFFFFFE
3FFFFFFFFFFE
3FFFFFFFFFFE
7FFFFFFFFFFE
7FFFFFFFFFFE
7FFFFFFFFFFE
7FFFFFF00000
FFFFFFC00000
FFFFFF000000
FFFFFE000000
FFFFFE000000
FFFFFC000000
FFFFFC000000
FFFFFC000000
FFFFF8000000
FFFFF8000000
FFFFF8000000
FFFFF8000000
FFFFF8000000
FFFFF8000000
FFFFF8000000
FFFFF8000000
FFFFF8000000
FFFFF8000000
FFFFF8000000
FFFFF8000000
FFFFF8000000
FFFFF8000000
FFFFF8000000
FFFFF8000000
FFFFF8000000
FFFFF8000000
FFFFF8000000
FFFFF8000000
FFFFF8000000
FFFFF8000000
FFFFF8000000
FFFFF8000000
FFFFF8000000
FFFFF8000000
FFFFF8000000
FFFFF8000000
FFFFF8000000
FFFFF8000000
FFFFF8000000
FFFFF8000000
FFFFF8000000
FFFFF8000000
FFFFF8000000
FFFFF8000000
FFFFF8000000
FFFFF8000000
FFFFF8000000
FFFFF8000000
FFFFF8000000
FFFFF8000000
FFFFF8000000
FFFFF8000000
FFFFF8000000
FFFFF8000000
FFFFF8000000
FFFFF8000000
FFFFF8000000
FFFFF8000000
FFFFF8000000
FFFFF8000000
FFFFF8000000
FFFFF8000000
FFFFF8000000
FFFFF8000000
FFFFF8000000
FFFFF8000000
FFFFF8000000
FFFFF8000000
FFFFF8000000
FFFFF8000000
FFFFF8000000
FFFFF8000000
FFFFF8000000
FFFFF8000000
FFFFF8000000
FFFFF8000000
FFFFF8000000
FFFFF8000000
FFFFF8000000
FFFFF8000000
FFFFF8000000
FFFFF8000000
FFFFF8000000
FFFFF8000000
FFFFF8000000
FFFFF8000000
FFFFF8000000
FFFFF8000000
FFFFF8000000
FFFFF8000000
FFFFF8000000
FFFFF8000000
FFFFF8000000
FFFFF8000000
FFFFF8000000
FFFFF8000000
FFFFF8000000
FFFFF8000000
FFFFF8000000
FFFFF8000000
FFFFF8000000
FFFFF8000000
FFFFF8000000
FFFFF8000000
FFFFF8000000
FFFFF8000000
FFFFF8000000
FFFFF8000000
FFFFF8000000
FFFFF8000000
FFFFF8000000
FFFFF8000000
FFFFF8000000
FFFFF8000000
FFFFF8000000
FFFFF8000000
FFFFF8000000
FFFFF8000000
FFFFF8000000
FFFFF8000000
FFFFF8000000
FFFFF8000000
FFFFF8000000
FFFFF8000000
FFFFF8000000
FFFFF8000000
FFFFF8000000
FFFFF8000000
FFFFF8000000
FFFFF8000000
FFFFF8000000
FFFFF8000000
FFFFF8000000
FFFFF8000000
FFFFF8000000
FFFFF8000000
FFFFF8000000
FFFFF8000000
FFFFF8000000
FFFFF8000000
FFFFF8000000
FFFFF8000000
FFFFF8000000
FFFFF8000000
FFFFF8000000
FFFFF8000000
FFFFF8000000
FFFFF8000000
FFFFF8000000
FFFFF8000000
FFFFF8000000
FFFFF8000000
FFFFF8000000
FFFFF8000000
FFFFF8000000
FFFFF8000000
FFFFF8000000
FFFFF8000000
FFFFF8000000
FFFFF8000000
FFFFF8000000
FFFFF8000000
FFFFF8000000
FFFFF8000000
FFFFF8000000
FFFFF8000000
FFFFF8000000
FFFFF8000000
FFFFF8000000
FFFFF8000000
FFFFF8000000
FFFFF8000000
FFFFF8000000
FFFFF8000000
FFFFF8000000
FFFFF8000000
FFFFF8000000
FFFFF8000000
FFFFF8000000
FFFFF8000000
FFFFF8000000
FFFFF8000000
FFFFF8000000
FFFFF8000000
FFFFF8000000
FFFFF8000000
FFFFF8000000
FFFFF8000000
FFFFF8000000
FFFFF8000000
FFFFF8000000
FFFFF8000000
FFFFF8000000
FFFFF8000000
FFFFF8000000
FFFFF8000000
FFFFF8000000
FFFFF8000000
FFFFF8000000
FFFFF8000000
FFFFF8000000
FFFFF8000000
FFFFF8000000
FFFFF8000000
FFFFF8000000
FFFFF8000000
FFFFF8000000
FFFFFC000000
FFFFFC000000
FFFFFC000000
FFFFFE000000
FFFFFE000000
FFFFFF000000
FFFFFF800000
7FFFFFF00000
7FFFFFFFFFFE
7FFFFFFFFFFE
7FFFFFFFFFFE
3FFFFFFFFFFE
3FFFFFFFFFFE
3FFFFFFFFFFE
1FFFFFFFFFFE
1FFFFFFFFFFE
0FFFFFFFFFFE
07FFFFFFFFFE
03FFFFFFFFFE
01FFFFFFFFFE
00FFFFFFFFFE
003FFFFFFFFC
0007FFFFFFFC
00003FFFFFF0
ENDCHAR
STARTCHAR 0029
ENCODING 41
SWIDTH 280 0
DWIDTH 78 0
BBX 47 247 11 -36
BITMAP
1FFFFFFC0000
7FFFFFFFC000
7FFFFFFFF800
FFFFFFFFFE00
FFFFFFFFFF00
FFFFFFFFFF80
FFFFFFFFFFC0
FFFFFFFFFFE0
FFFFFFFFFFF0
FFFFFFFFFFF0
FFFFFFFFFFF8
FFFFFFFFFFF8
FFFFFFFFFFFC
FFFFFFFFFFFC
FFFFFFFFFFFC
FFFFFFFFFFFC
00001FFFFFFE
000003FFFFFE
000001FFFFFE
000000FFFFFE
000000FFFFFE
0000007FFFFE
0000007FFFFE
0000007FFFFE
0000003FFFFE
0000003FFFFE
0000003FFFFE
0000003FFFFE
0000003FFFFE
0000003FFFFE
0000003FFFFE
0000003FFFFE
0000003FFFFE
0000003FFFFE
0000003FFFFE
0000003FFFFE
0000003FFFFE
0000003FFFFE
0000003FFFFE
0000003FFFFE
0000003FFFFE
0000003FFFFE
0000003FFFFE
0000003FFFFE
0000003FFFFE
0000003FFFFE
0000003FFFFE
0000003FFFFE
0000003FFFFE
0000003FFFFE
0000003FFFFE
0000003FFFFE
0000003FFFFE
0000003FFFFE
0000003FFFFE
0000003FFFFE
0000003FFFFE
0000003FFFFE
0000003FFFFE
0000003FFFFE
0000003FFFFE
0000003FFFFE
0000003FFFFE
0000003FFFFE
0000003FFFFE
0000003FFFFE
0000003FFFFE
0000003FFFFE
0000003FFFFE
0000003FFFFE
0000003FFFFE
0000003FFFFE
0000003FFFFE
0000003FFFFE
0000003FFFFE
0000003FFFFE
0000003FFFFE
0000003FFFFE
0000003FFFFE
0000003FFFFE
0000003FFFFE
0000003FFFFE
0000003FFFFE
0000003FFFFE
0000003FFFFE
0000003FFFFE
0000003FFFFE
0000003FFFFE
0000003FFFFE
0000003FFFFE
0000003FFFFE
0000003FFFFE
0000003FFFFE
0000003FFFFE
0000003FFFFE
0000003FFFFE
0000003FFFFE
0000003FFFFE
0000003FFFFE
0000003FFFFE
0000003FFFFE
0000003FFFFE
0000003FFFFE
0000003FFFFE
0000003FFFFE
0000003FFFFE
0000003FFFFE
0000003FFFFE
0000003FFFFE
0000003FFFFE
0000003FFFFE
0000003FFFFE
0000003FFFFE
0000003FFFFE
0000003FFFFE
0000003FFFFE
0000003FFFFE
0000003FFFFE
0000003FFFFE
0000003FFFFE
0000003FFFFE
0000003FFFFE
0000003FFFFE
0000003FFFFE
0000003FFFFE
0000003FFFFE
0000003FFFFE
0000003FFFFE
0000003FFFFE
0000003FFFFE
0000003FFFFE
0000003FFFFE
0000003FFFFE
0000003FFFFE
0000003FFFFE
0000003FFFFE
0000003FFFFE
0000003FFFFE
0000003FFFFE
0000003FFFFE
0000003FFFFE
0000003FFFFE
0000003FFFFE
0000003FFFFE
0000003FFFFE
0000003FFFFE
0000003FFFFE
0000003FFFFE
0000003FFFFE
0000003FFFFE
0000003FFFFE
0000003FFFFE
0000003FFFFE
0000003FFFFE
0000003FFFFE
0000003FFFFE
0000003FFFFE
0000003FFFFE
0000003FFFFE
0000003FFFFE
0000003FFFFE
0000003FFFFE
0000003FFFFE
0000003FFFFE
0000003FFFFE
0000003FFFFE
0000003FFFFE
0000003FFFFE
0000003FFFFE
0000003FFFFE
0000003FFFFE
0000003FFFFE
0000003FFFFE
0000003FFFFE
0000003FFFFE
0000003FFFFE
0000003FFFFE
0000003FFFFE
0000003FFFFE
0000003FFFFE
0000003FFFFE
0000003FFFFE
0000003FFFFE
0000003FFFFE
0000003FFFFE
0000003FFFFE
0000003FFFFE
0000003FFFFE
0000003FFFFE
0000003FFFFE
0000003FFFFE
0000003FFFFE
0000003FFFFE
0000003FFFFE
0000003FFFFE
0000003FFFFE
0000003FFFFE
0000003FFFFE
0000003FFFFE
0000003FFFFE
0000003FFFFE
0000003FFFFE
0000003FFFFE
0000003FFFFE
0000003FFFFE
0000003FFFFE
0000003FFFFE
0000003FFFFE
0000003FFFFE
0000003FFFFE
0000003FFFFE
0000003FFFFE
0000003FFFFE
0000003FFFFE
0000003FFFFE
0000003FFFFE
0000003FFFFE
0000003FFFFE
0000003FFFFE
0000003FFFFE
0000003FFFFE
0000003FFFFE
0000003FFFFE
0000007FFFFE
0000007FFFFE
0000007FFFFE
000000FFFFFE
000000FFFFFE
000001FFFFFE
000003FFFFFE
00001FFFFFFE
FFFFFFFFFFFC
FFFFFFFFFFFC
FFFFFFFFFFFC
FFFFFFFFFFFC
FFFFFFFFFFF8
FFFFFFFFFFF8
FFFFFFFFFFF0
FFFFFFFFFFF0
FFFFFFFFFFE0
FFFFFFFFFFC0
FFFFFFFFFFC0
FFFFFFFFFF00
FFFFFFFFFE00
7FFFFFFFF800
7FFFFFFFC000
1FFFFFFC0000
ENDCHAR
STARTCHAR 002A
ENCODING 42
SWIDTH 442 0
DWIDTH 123 0
BBX 94 100 14 100
BITMAP
00000000001FFE0000000000
00000000007FFE0000000000
0000000000FFFE0000000000
0000000000FFFE0000000000
0000000001FFFE0000000000
0000000001FFFE0000000000
0000000001FFFE0000000000
0000000001FFFE0000000000
0000000001FFFE0000000000
0000000001FFFE0000000000
0000000001FFFE0000000000
0000000001FFFE0000000000
0000000001FFFE0000000000
0000000001FFFE0000000000
0000000001FFFE0000000000
0000000001FFFE0000000000
0000000001FFFE0000000000
0000000001FFFE0000000000
0080000001FFFE0000000000
01C0000001FFFE0000000000
01F0000001FFFE0000003E00
03FC000001FFFE000000FF00
07FF000001FFFE000001FF80
07FF800001FFFE000007FF80
0FFFE00001FFFE00001FFFC0
0FFFF80001FFFE00007FFFE0
1FFFFC0001FFFE0000FFFFE0
1FFFFF0001FFFE0003FFFFF0
3FFFFFC001FFFE000FFFFFF0
3FFFFFF001FFFE001FFFFFF8
3FFFFFF801FFFE007FFFFFFC
3FFFFFFE01FFFE01FFFFFFFC
3FFFFFFF81FFFE07FFFFFFFC
1FFFFFFFC1FFFE0FFFFFFFF0
0FFFFFFFF1FFFE3FFFFFFFC0
03FFFFFFFDFFFEFFFFFFFF00
00FFFFFFFFFFFFFFFFFFFE00
007FFFFFFFFFFFFFFFFFF800
001FFFFFFFFFFFFFFFFFE000
0007FFFFFFFFFFFFFFFFC000
0001FFFFFFFFFFFFFFFF0000
0000FFFFFFFFFFFFFFFC0000
00003FFFFFFFFFFFFFF00000
00000FFFFFFFFFFFFFE00000
000007FFFFFFFFFFFF800000
000001FFFFFFFFFFFE000000
0000007FFFFFFFFFFC000000
0000001FFFFFFFFFF0000000
0000000FFFFFFFFFC0000000
00000003FFFFFFFF00000000
00000003FFFFFFFF00000000
00000007FFFFFFFFC0000000
0000001FFFFFFFFFE0000000
0000007FFFFFFFFFF8000000
000001FFFFFFFFFFFE000000
000003FFFFFFFFFFFF800000
00000FFFFFFFFFFFFFC00000
00003FFFFFFFFFFFFFF00000
0000FFFFFFFFFFFFFFFC0000
0001FFFFFFFFFFFFFFFF0000
0007FFFFFFFFFFFFFFFF8000
001FFFFFFFFFFFFFFFFFE000
007FFFFFFFFFFFFFFFFFF800
00FFFFFFFFFFFFFFFFFFFE00
03FFFFFFFDFFFEFFFFFFFF00
0FFFFFFFF9FFFE3FFFFFFFC0
3FFFFFFFE1FFFE1FFFFFFFE0
7FFFFFFF81FFFE07FFFFFFF0
FFFFFFFE01FFFE01FFFFFFF0
7FFFFFFC01FFFE007FFFFFF0
7FFFFFF001FFFE003FFFFFF0
3FFFFFC001FFFE000FFFFFF0
1FFFFF0001FFFE0003FFFFF0
1FFFFE0001FFFE0000FFFFE0
0FFFF80001FFFE00007FFFE0
0FFFE00001FFFE00001FFFC0
07FFC00001FFFE000007FF80
03FF000001FFFE000001FF80
03FC000001FFFE000000FF00
00F0000001FFFE0000003F00
0000000001FFFE0000000E00
0000000001FFFE0000000200
0000000001FFFE0000000000
0000000001FFFE0000000000
0000000001FFFE0000000000
0000000001FFFE0000000000
0000000001FFFE0000000000
0000000001FFFE0000000000
0000000001FFFE0000000000
0000000001FFFE0000000000
0000000001FFFE0000000000
0000000001FFFE0000000000
0000000001FFFE0000000000
0000000001FFFE0000000000
0000000001FFFE0000000000
0000000001FFFE0000000000
0000000001FFFE0000000000
0000000001FFFC0000000000
0000000001FFFC0000000000
0000000001FFF00000000000
ENDCHAR
STARTCHAR 002B
ENCODING 43
SWIDTH 435 0
DWIDTH 121 0
BBX 83 83 19 59
BITMAP
0000000007FFC000000000
000000001FFFC000000000
000000003FFFC000000000
000000003FFFC000000000
000000003FFFC000000000
000000003FFFC000000000
000000003FFFC000000000
000000003FFFC000000000
000000003FFFC000000000
000000003FFFC000000000
000000003FFFC000000000
000000003FFFC000000000
000000003FFFC000000000
000000003FFFC000000000
000000003FFFC000000000
000000003FFFC000000000
000000003FFFC000000000
000000003FFFC000000000
000000003FFFC000000000
000000003FFFC000000000
000000003FFFC000000000
000000003FFFC000000000
000000003FFFC000000000
000000003FFFC000000000
000000003FFFC000000000
000000003FFFC000000000
000000003FFFC000000000
000000003FFFC000000000
000000003FFFC000000000
000000003FFFC000000000
000000003FFFC000000000
000000003FFFC000000000
000000003FFFC000000000
FFFFFFFFFFFFFFFFFFFF00
FFFFFFFFFFFFFFFFFFFFC0
FFFFFFFFFFFFFFFFFFFFC0
FFFFFFFFFFFFFFFFFFFFE0
FFFFFFFFFFFFFFFFFFFFE0
FFFFFFFFFFFFFFFFFFFFE0
FFFFFFFFFFFFFFFFFFFFE0
FFFFFFFFFFFFFFFFFFFFE0
FFFFFFFFFFFFFFFFFFFFE0
FFFFFFFFFFFFFFFFFFFFE0
FFFFFFFFFFFFFFFFFFFFE0
FFFFFFFFFFFFFFFFFFFFE0
FFFFFFFFFFFFFFFFFFFFE0
7FFFFFFFFFFFFFFFFFFFE0
7FFFFFFFFFFFFFFFFFFFE0
1FFFFFFFFFFFFFFFFFFFE0
000000003FFFC000000000
000000003FFFC000000000
000000003FFFC000000000
000000003FFFC000000000
000000003FFFC000000000
000000003FFFC000000000
000000003FFFC000000000
000000003FFFC000000000
000000003FFFC000000000
000000003FFFC000000000
000000003FFFC000000000
000000003FFFC000000000
000000003FFFC000000000
000000003FFFC000000000
000000003FFFC000000000
000000003FFFC000000000
000000003FFFC000000000
000000003FFFC000000000
000000003FFFC000000000
000000003FFFC000000000
000000003FFFC000000000
000000003FFFC000000000
000000003FFFC000000000
000000003FFFC000000000
000000003FFFC000000000
000000003FFFC000000000
000000003FFFC000000000
000000003FFFC000000000
000000003FFFC000000000
000000003FFF8000000000
000000003FFF8000000000
000000003FFF8000000000
000000003FFF0000000000
000000003FFC0000000000
ENDCHAR
STARTCHAR 002C
ENCODING 44
SWIDTH 216 0
DWIDTH 60 0
BBX 25 60 18 -38
BITMAP
FFFFF800
FFFFFE00
FFFFFF00
FFFFFF00
FFFFFF00
FFFFFF00
FFFFFF80
FFFFFF80
FFFFFF80
FFFFFF80
FFFFFF80
FFFFFF80
FFFFFF80
FFFFFF80
FFFFFF80
FFFFFF80
FFFFFF80
FFFFFF80
7FFFFF80
7FFFFF80
3FFFFF80
1FFFFF80
00FFFF80
00FFFF80
00FFFF80
00FFFF80
00FFFF80
00FFFF80
00FFFF80
00FFFF80
00FFFF80
00FFFF80
00FFFF80
00FFFF00
00FFFF00
00FFFF00
00FFFF00
00FFFF00
00FFFF00
00FFFF00
00FFFF00
00FFFE00
00FFFE00
00FFFE00
00FFFC00
00FFFC00
00FFFC00
00FFF800
00FFF800
00FFF000
00FFF000
00FFE000
00FFE000
00FFC000
00FF8000
00FF0000
00FE0000
00FC0000
00F00000
00C00000
ENDCHAR
STARTCHAR 002D
ENCODING 45
SWIDTH 432 0
DWIDTH 120 0
BBX 84 16 18 93
BITMAP
FFFFFFFFFFFFFFFFFFFF00
FFFFFFFFFFFFFFFFFFFFC0
FFFFFFFFFFFFFFFFFFFFE0
FFFFFFFFFFFFFFFFFFFFE0
FFFFFFFFFFFFFFFFFFFFF0
FFFFFFFFFFFFFFFFFFFFF0
FFFFFFFFFFFFFFFFFFFFF0
FFFFFFFFFFFFFFFFFFFFF0
FFFFFFFFFFFFFFFFFFFFF0
FFFFFFFFFFFFFFFFFFFFF0
FFFFFFFFFFFFFFFFFFFFF0
7FFFFFFFFFFFFFFFFFFFF0
7FFFFFFFFFFFFFFFFFFFF0
7FFFFFFFFFFFFFFFFFFFF0
3FFFFFFFFFFFFFFFFFFFF0
0FFFFFFFFFFFFFFFFFFFF0
ENDCHAR
STARTCHAR 002E
ENCODING 46
SWIDTH 216 0
DWIDTH 60 0
BBX 25 22 18 0
BITMAP
FFFFF800
FFFFFE00
FFFFFF00
FFFFFF00
FFFFFF00
FFFFFF00
FFFFFF80
FFFFFF80
FFFFFF80
FFFFFF80
FFFFFF80
FFFFFF80
FFFFFF80
FFFFFF80
FFFFFF80
FFFFFF80
FFFFFF80
FFFFFF80
7FFFFF80
7FFFFF80
3FFFFF80
1FFFFF80
ENDCHAR
STARTCHAR 002F
ENCODING 47
SWIDTH 392 0
DWIDTH 109 0
BBX 85 245 12 -34
BITMAP
00000000000000000FFFF8
00000000000000003FFFF8
00000000000000007FFFF8
0000000000000000FFFFF8
0000000000000000FFFFF0
0000000000000001FFFFF0
0000000000000001FFFFF0
0000000000000003FFFFF0
0000000000000003FFFFE0
0000000000000003FFFFE0
0000000000000003FFFFE0
0000000000000007FFFFE0
0000000000000007FFFFC0
0000000000000007FFFFC0
0000000000000007FFFFC0
000000000000000FFFFF80
000000000000000FFFFF80
000000000000000FFFFF80
000000000000000FFFFF80
000000000000001FFFFF00
000000000000001FFFFF00
000000000000001FFFFF00
000000000000001FFFFF00
000000000000003FFFFE00
000000000000003FFFFE00
000000000000003FFFFE00
000000000000007FFFFE00
000000000000007FFFFC00
000000000000007FFFFC00
000000000000007FFFFC00
00000000000000FFFFF800
00000000000000FFFFF800
00000000000000FFFFF800
00000000000000FFFFF800
00000000000001FFFFF000
00000000000001FFFFF000
00000000000001FFFFF000
00000000000001FFFFF000
00000000000003FFFFE000
00000000000003FFFFE000
00000000000003FFFFE000
00000000000007FFFFE000
00000000000007FFFFC000
00000000000007FFFFC000
00000000000007FFFFC000
0000000000000FFFFF8000
0000000000000FFFFF8000
0000000000000FFFFF8000
0000000000000FFFFF8000
0000000000001FFFFF0000
0000000000001FFFFF0000
0000000000001FFFFF0000
0000000000001FFFFF0000
0000000000003FFFFE0000
0000000000003FFFFE0000
0000000000003FFFFE0000
0000000000007FFFFE0000
0000000000007FFFFC0000
0000000000007FFFFC0000
0000000000007FFFFC0000
000000000000FFFFFC0000
000000000000FFFFF80000
000000000000FFFFF80000
000000000000FFFFF80000
000000000001FFFFF00000
000000000001FFFFF00000
000000000001FFFFF00000
000000000001FFFFF00000
000000000003FFFFE00000
000000000003FFFFE00000
000000000003FFFFE00000
000000000007FFFFE00000
000000000007FFFFC00000
000000000007FFFFC00000
000000000007FFFFC00000
00000000000FFFFFC00000
00000000000FFFFF800000
00000000000FFFFF800000
00000000000FFFFF800000
00000000001FFFFF000000
00000000001FFFFF000000
00000000001FFFFF000000
00000000001FFFFF000000
00000000003FFFFE000000
00000000003FFFFE000000
00000000003FFFFE000000
00000000007FFFFE000000
00000000007FFFFC000000
00000000007FFFFC000000
00000000007FFFFC000000
0000000000FFFFFC000000
0000000000FFFFF8000000
0000000000FFFFF8000000
0000000000FFFFF8000000
0000000001FFFFF0000000
0000000001FFFFF0000000
0000000001FFFFF0000000
0000000001FFFFF0000000
0000000003FFFFE0000000
0000000003FFFFE0000000
0000000003FFFFE0000000
0000000003FFFFE0000000
0000000007FFFFC0000000
0000000007FFFFC0000000
0000000007FFFFC0000000
000000000FFFFFC0000000
000000000FFFFF80000000
000000000FFFFF80000000
000000000FFFFF80000000
000000001FFFFF00000000
000000001FFFFF00000000
000000001FFFFF00000000
000000001FFFFF00000000
000000003FFFFE00000000
000000003FFFFE00000000
000000003FFFFE00000000
000000003FFFFE00000000
000000007FFFFC00000000
000000007FFFFC00000000
000000007FFFFC00000000
00000000FFFFFC00000000
00000000FFFFF800000000
00000000FFFFF800000000
00000000FFFFF800000000
00000001FFFFF800000000
00000001FFFFF000000000
00000001FFFFF000000000
00000001FFFFF000000000
00000003FFFFE000000000
00000003FFFFE000000000
00000003FFFFE000000000
00000003FFFFE000000000
00000007FFFFC000000000
00000007FFFFC000000000
00000007FFFFC000000000
0000000FFFFFC000000000
0000000FFFFF8000000000
0000000FFFFF8000000000
0000000FFFFF8000000000
0000001FFFFF8000000000
0000001FFFFF0000000000
0000001FFFFF0000000000
0000001FFFFF0000000000
0000003FFFFE0000000000
0000003FFFFE0000000000
0000003FFFFE0000000000
0000003FFFFE0000000000
0000007FFFFC0000000000
0000007FFFFC0000000000
0000007FFFFC0000000000
000000FFFFFC0000000000
000000FFFFF80000000000
000000FFFFF80000000000
000000FFFFF80000000000
000001FFFFF80000000000
000001FFFFF00000000000
000001FFFFF00000000000
000001FFFFF00000000000
000003FFFFE00000000000
000003FFFFE00000000000
000003FFFFE00000000000
000003FFFFE00000000000
000007FFFFC00000000000
000007FFFFC00000000000
000007FFFFC00000000000
000007FFFFC00000000000
00000FFFFF800000000000
00000FFFFF800000000000
00000FFFFF800000000000
00001FFFFF800000000000
00001FFFFF000000000000
00001FFFFF000000000000
00001FFFFF000000000000
00003FFFFE000000000000
00003FFFFE000000000000
00003FFFFE000000000000
00003FFFFE000000000000
00007FFFFC000000000000
00007FFFFC000000000000
00007FFFFC000000000000
00007FFFFC000000000000
0000FFFFF8000000000000
0000FFFFF8000000000000
0000FFFFF8000000000000
0001FFFFF8000000000000
0001FFFFF0000000000000
0001FFFFF0000000000000
0001FFFFF0000000000000
0003FFFFE0000000000000
0003FFFFE0000000000000
0003FFFFE0000000000000
0003FFFFE0000000000000
0007FFFFC0000000000000
0007FFFFC0000000000000
0007FFFFC0000000000000
0007FFFFC0000000000000
000FFFFF80000000000000
000FFFFF80000000000000
000FFFFF80000000000000
001FFFFF80000000000000
001FFFFF00000000000000
001FFFFF00000000000000
001FFFFF00000000000000
003FFFFF00000000000000
003FFFFE00000000000000
003FFFFE00000000000000
003FFFFE00000000000000
007FFFFC00000000000000
007FFFFC00000000000000
007FFFFC00000000000000
007FFFFC00000000000000
00FFFFF800000000000000
00FFFFF800000000000000
00FFFFF800000000000000
01FFFFF800000000000000
01FFFFF000000000000000
01FFFFF000000000000000
01FFFFF000000000000000
03FFFFF000000000000000
03FFFFE000000000000000
03FFFFE000000000000000
03FFFFE000000000000000
07FFFFC000000000000000
07FFFFC000000000000000
07FFFFC000000000000000
07FFFFC000000000000000
0FFFFF8000000000000000
0FFFFF8000000000000000
0FFFFF8000000000000000
0FFFFF8000000000000000
1FFFFF0000000000000000
1FFFFF0000000000000000
1FFFFF0000000000000000
3FFFFF0000000000000000
3FFFFE0000000000000000
3FFFFE0000000000000000
3FFFFE0000000000000000
7FFFFC0000000000000000
7FFFFC0000000000000000
7FFFFC0000000000000000
7FFFF80000000000000000
FFFFF80000000000000000
FFFFF00000000000000000
FFFFE00000000000000000
FFFF800000000000000000
ENDCHAR
STARTCHAR 0030
ENCODING 48
SWIDTH 439 0
DWIDTH 122 0
BBX 84 195 19 0
BITMAP
00001FFFFFFFFFFF800000
0001FFFFFFFFFFFFFC0000
000FFFFFFFFFFFFFFF0000
003FFFFFFFFFFFFFFFC000
00FFFFFFFFFFFFFFFFF000
01FFFFFFFFFFFFFFFFF800
03FFFFFFFFFFFFFFFFFC00
07FFFFFFFFFFFFFFFFFE00
0FFFFFFFFFFFFFFFFFFF00
0FFFFFFFFFFFFFFFFFFF00
1FFFFFFFFFFFFFFFFFFF80
1FFFFFFFFFFFFFFFFFFF80
3FFFFFFFFFFFFFFFFFFFC0
3FFFFFFFFFFFFFFFFFFFC0
3FFFFFFFFFFFFFFFFFFFC0
3FFFFFFFFFFFFFFFFFFFC0
7FFFFFF8000001FFFFFFE0
7FFFFFC00000003FFFFFE0
7FFFFF000000000FFFFFE0
7FFFFF000000000FFFFFE0
7FFFFE0000000007FFFFE0
7FFFFE0000000007FFFFE0
7FFFFC0000000003FFFFE0
FFFFFC0000000003FFFFE0
FFFFFC0000000003FFFFF0
FFFFFC0000000003FFFFF0
FFFFFC0000000003FFFFF0
FFFFF80000000001FFFFF0
FFFFF80000000001FFFFF0
FFFFF80000000001FFFFF0
FFFFF80000000001FFFFF0
FFFFF80000000001FFFFF0
FFFFF80000000001FFFFF0
FFFFF80000000001FFFFF0
FFFFF80000000001FFFFF0
FFFFF80000000001FFFFF0
FFFFF80000000001FFFFF0
FFFFF80000000001FFFFF0
FFFFF80000000001FFFFF0
FFFFF80000000001FFFFF0
FFFFF80000000001FFFFF0
FFFFF80000000001FFFFF0
FFFFF80000000001FFFFF0
FFFFF80000000001FFFFF0
FFFFF80000000001FFFFF0
FFFFF80000000001FFFFF0
FFFFF80000000001FFFFF0
FFFFF80000000001FFFFF0
FFFFF80000000001FFFFF0
FFFFF80000000001FFFFF0
FFFFF80000000001FFFFF0
FFFFF80000000001FFFFF0
FFFFF80000000001FFFFF0
FFFFF80000000001FFFFF0
FFFFF80000000001FFFFF0
FFFFF80000000001FFFFF0
FFFFF80000000001FFFFF0
FFFFF80000000001FFFFF0
FFFFF80000000001FFFFF0
FFFFF80000000001FFFFF0
FFFFF80000000001FFFFF0
FFFFF80000000001FFFFF0
FFFFF80000000001FFFFF0
FFFFF80000000001FFFFF0
FFFFF80000000001FFFFF0
FFFFF80000000001FFFFF0
FFFFF80000000001FFFFF0
FFFFF80000000001FFFFF0
FFFFF80000000001FFFFF0
FFFFF80000000001FFFFF0
FFFFF80000000001FFFFF0
FFFFF80000000001FFFFF0
FFFFF80000000001FFFFF0
FFFFF80000000001FFFFF0
FFFFF80000000001FFFFF0
FFFFF80000000001FFFFF0
FFFFF80000000001FFFFF0
FFFFF80000000001FFFFF0
FFFFF80000000001FFFFF0
FFFFF80000000001FFFFF0
FFFFF80000000001FFFFF0
FFFFF80000000001FFFFF0
FFFFF80000000001FFFFF0
FFFFF80000000001FFFFF0
FFFFF80000000001FFFFF0
FFFFF80000000001FFFFF0
FFFFF80000000001FFFFF0
FFFFF80000000001FFFFF0
FFFFF80000000001FFFFF0
FFFFF80000000001FFFFF0
FFFFF80000000001FFFFF0
FFFFF80000000001FFFFF0
FFFFF80000000001FFFFF0
FFFFF80000000001FFFFF0
FFFFF80000000001FFFFF0
FFFFF80000000001FFFFF0
FFFFF80000000001FFFFF0
FFFFF80000000001FFFFF0
FFFFF80000000001FFFFF0
FFFFF80000000001FFFFF0
FFFFF80000000001FFFFF0
FFFFF80000000001FFFFF0
FFFFF80000000001FFFFF0
FFFFF80000000001FFFFF0
FFFFF80000000001FFFFF0
FFFFF80000000001FFFFF0
FFFFF80000000001FFFFF0
FFFFF80000000001FFFFF0
FFFFF80000000001FFFFF0
FFFFF80000000001FFFFF0
FFFFF80000000001FFFFF0
FFFFF80000000001FFFFF0
FFFFF80000000001FFFFF0
FFFFF80000000001FFFFF0
FFFFF80000000001FFFFF0
FFFFF80000000001FFFFF0
FFFFF80000000001FFFFF0
FFFFF80000000001FFFFF0
FFFFF80000000001FFFFF0
FFFFF80000000001FFFFF0
FFFFF80000000001FFFFF0
FFFFF80000000001FFFFF0
FFFFF80000000001FFFFF0
FFFFF80000000001FFFFF0
FFFFF80000000001FFFFF0
FFFFF80000000001FFFFF0
FFFFF80000000001FFFFF0
FFFFF80000000001FFFFF0
FFFFF80000000001FFFFF0
FFFFF80000000001FFFFF0
FFFFF80000000001FFFFF0
FFFFF80000000001FFFFF0
FFFFF80000000001FFFFF0
FFFFF80000000001FFFFF0
FFFFF80000000001FFFFF0
FFFFF80000000001FFFFF0
FFFFF80000000001FFFFF0
FFFFF80000000001FFFFF0
FFFFF80000000001FFFFF0
FFFFF80000000001FFFFF0
FFFFF80000000001FFFFF0
FFFFF80000000001FFFFF0
FFFFF80000000001FFFFF0
FFFFF80000000001FFFFF0
FFFFF80000000001FFFFF0
FFFFF80000000001FFFFF0
FFFFF80000000001FFFFF0
FFFFF80000000001FFFFF0
FFFFF80000000001FFFFF0
FFFFF80000000001FFFFF0
FFFFF80000000001FFFFF0
FFFFF80000000001FFFFF0
FFFFF80000000001FFFFF0
FFFFF80000000001FFFFF0
FFFFF80000000001FFFFF0
FFFFF80000000001FFFFF0
FFFFF80000000001FFFFF0
FFFFF80000000001FFFFF0
FFFFF80000000001FFFFF0
FFFFF80000000001FFFFF0
FFFFF80000000001FFFFF0
FFFFF80000000001FFFFF0
FFFFF80000000001FFFFF0
FFFFF80000000001FFFFF0
FFFFF80000000001FFFFF0
FFFFF80000000001FFFFF0
FFFFF80000000001FFFFF0
FFFFF80000000001FFFFF0
FFFFFC0000000003FFFFF0
FFFFFC0000000003FFFFF0
FFFFFC0000000003FFFFF0
FFFFFC0000000003FFFFF0
7FFFFC0000000003FFFFE0
7FFFFE0000000007FFFFE0
7FFFFE0000000007FFFFE0
7FFFFF000000000FFFFFE0
7FFFFF000000000FFFFFE0
7FFFFFC00000003FFFFFE0
7FFFFFF8000001FFFFFFE0
3FFFFFFFFFFFFFFFFFFFC0
3FFFFFFFFFFFFFFFFFFFC0
3FFFFFFFFFFFFFFFFFFFC0
3FFFFFFFFFFFFFFFFFFFC0
1FFFFFFFFFFFFFFFFFFF80
1FFFFFFFFFFFFFFFFFFF80
0FFFFFFFFFFFFFFFFFFF00
0FFFFFFFFFFFFFFFFFFF00
07FFFFFFFFFFFFFFFFFE00
03FFFFFFFFFFFFFFFFFC00
01FFFFFFFFFFFFFFFFF800
00FFFFFFFFFFFFFFFFF000
003FFFFFFFFFFFFFFFC000
000FFFFFFFFFFFFFFF0000
0003FFFFFFFFFFFFFC0000
00001FFFFFFFFFFF800000
ENDCHAR
STARTCHAR 0031
ENCODING 49
SWIDTH 223 0
DWIDTH 62 0
BBX 22 195 20 0
BITMAP
00000C
0000FC
0007FC
001FFC
007FFC
00FFFC
03FFFC
07FFFC
0FFFFC
1FFFFC
1FFFFC
3FFFFC
3FFFFC
7FFFFC
7FFFFC
7FFFFC
7FFFFC
FFFFFC
FFFFFC
FFFFFC
FFFFFC
FFFFFC
FFFFFC
FFFFFC
FFFFFC
FFFFFC
FFFFFC
FFFFFC
FFFFFC
FFFFFC
FFFFFC
FFFFFC
FFFFFC
FFFFFC
FFFFFC
FFFFFC
FFFFFC
FFFFFC
FFFFFC
FFFFFC
FFFFFC
FFFFFC
FFFFFC
FFFFFC
FFFFFC
FFFFFC
FFFFFC
FFFFFC
FFFFFC
FFFFFC
FFFFFC
FFFFFC
FFFFFC
FFFFFC
FFFFFC
FFFFFC
FFFFFC
FFFFFC
FFFFFC
FFFFFC
FFFFFC
FFFFFC
FFFFFC
FFFFFC
FFFFFC
FFFFFC
FFFFFC
FFFFFC
FFFFFC
FFFFFC
FFFFFC
FFFFFC
FFFFFC
FFFFFC
FFFFFC
FFFFFC
FFFFFC
FFFFFC
FFFFFC
FFFFFC
FFFFFC
FFFFFC
FFFFFC
FFFFFC
FFFFFC
FFFFFC
FFFFFC
FFFFFC
FFFFFC
FFFFFC
FFFFFC
FFFFFC
FFFFFC
FFFFFC
FFFFFC
FFFFFC
FFFFFC
FFFFFC
FFFFFC
FFFFFC
FFFFFC
FFFFFC
FFFFFC
FFFFFC
FFFFFC
FFFFFC
FFFFFC
FFFFFC
FFFFFC
FFFFFC
FFFFFC
FFFFFC
FFFFFC
FFFFFC
FFFFFC
FFFFFC
FFFFFC
FFFFFC
FFFFFC
FFFFFC
FFFFFC
FFFFFC
FFFFFC
FFFFFC
FFFFFC
FFFFFC
FFFFFC
FFFFFC
FFFFFC
FFFFFC
FFFFFC
FFFFFC
FFFFFC
FFFFFC
FFFFFC
FFFFFC
FFFFFC
FFFFFC
FFFFFC
FFFFFC
FFFFFC
FFFFFC
FFFFFC
FFFFFC
FFFFFC
FFFFFC
FFFFFC
FFFFFC
FFFFFC
FFFFFC
FFFFFC
FFFFFC
FFFFFC
FFFFFC
FFFFFC
FFFFFC
FFFFFC
FFFFFC
FFFFFC
FFFFFC
FFFFFC
FFFFFC
FFFFFC
FFFFFC
FFFFFC
FFFFFC
FFFFFC
FFFFFC
FFFFFC
FFFFFC
FFFFFC
FFFFFC
FFFFFC
FFFFFC
FFFFFC
FFFFFC
FFFFFC
FFFFFC
FFFFFC
FFFFFC
FFFFFC
FFFFFC
FFFFFC
FFFFFC
FFFFFC
FFFFFC
FFFFFC
FFFFFC
FFFFFC
FFFFFC
FFFFFC
FFFFFC
FFFFF8
FFFFF8
FFFFE0
ENDCHAR
STARTCHAR 0032
ENCODING 50
SWIDTH 403 0
DWIDTH 112 0
BBX 78 195 17 0
BITMAP
0007FFFFFFFFFFE00000
003FFFFFFFFFFFFE0000
00FFFFFFFFFFFFFFC000
01FFFFFFFFFFFFFFF000
03FFFFFFFFFFFFFFFC00
07FFFFFFFFFFFFFFFE00
07FFFFFFFFFFFFFFFF00
0FFFFFFFFFFFFFFFFF80
0FFFFFFFFFFFFFFFFFC0
1FFFFFFFFFFFFFFFFFC0
1FFFFFFFFFFFFFFFFFE0
3FFFFFFFFFFFFFFFFFE0
3FFFFFFFFFFFFFFFFFE0
3FFFFFFFFFFFFFFFFFF0
3FFFFFFFFFFFFFFFFFF0
7FFFFFFFFFFFFFFFFFF0
000000000000FFFFFFF8
0000000000001FFFFFF8
0000000000000FFFFFF8
00000000000007FFFFF8
00000000000007FFFFF8
00000000000003FFFFF8
00000000000003FFFFF8
00000000000003FFFFF8
00000000000001FFFFF8
00000000000001FFFFF8
00000000000001FFFFFC
00000000000001FFFFFC
00000000000001FFFFFC
00000000000001FFFFFC
00000000000001FFFFFC
00000000000001FFFFFC
00000000000001FFFFFC
00000000000001FFFFFC
00000000000001FFFFFC
00000000000001FFFFFC
00000000000001FFFFFC
00000000000001FFFFFC
00000000000001FFFFFC
00000000000001FFFFFC
00000000000001FFFFFC
00000000000001FFFFFC
00000000000001FFFFFC
00000000000001FFFFFC
00000000000001FFFFFC
00000000000001FFFFFC
00000000000001FFFFFC
00000000000001FFFFFC
00000000000001FFFFFC
00000000000001FFFFFC
00000000000001FFFFFC
00000000000001FFFFFC
00000000000001FFFFFC
00000000000001FFFFFC
00000000000001FFFFFC
00000000000001FFFFFC
00000000000001FFFFFC
00000000000001FFFFFC
00000000000001FFFFFC
00000000000001FFFFFC
00000000000001FFFFFC
00000000000001FFFFFC
00000000000001FFFFFC
00000000000001FFFFFC
00000000000001FFFFFC
00000000000001FFFFFC
00000000000001FFFFFC
00000000000001FFFFFC
00000000000001FFFFFC
00000000000001FFFFFC
00000000000001FFFFFC
00000000000001FFFFFC
00000000000001FFFFFC
00000000000001FFFFFC
00000000000001FFFFFC
00000000000001FFFFFC
00000000000001FFFFFC
00000000000001FFFFF8
00000000000001FFFFF8
00000000000001FFFFF8
00000000000003FFFFF8
00000000000003FFFFF8
00000000000007FFFFF8
0000000000000FFFFFF8
0000000000001FFFFFF8
000000000000FFFFFFF8
00007FFFFFFFFFFFFFF8
000FFFFFFFFFFFFFFFF8
007FFFFFFFFFFFFFFFF0
01FFFFFFFFFFFFFFFFF0
03FFFFFFFFFFFFFFFFF0
07FFFFFFFFFFFFFFFFE0
0FFFFFFFFFFFFFFFFFE0
1FFFFFFFFFFFFFFFFFE0
1FFFFFFFFFFFFFFFFFC0
3FFFFFFFFFFFFFFFFF80
3FFFFFFFFFFFFFFFFF00
7FFFFFFFFFFFFFFFFE00
7FFFFFFFFFFFFFFFFC00
7FFFFFFFFFFFFFFFF000
7FFFFFFFFFFFFFFF8000
FFFFFFFFFFFFFFF00000
FFFFFFF8000000000000
FFFFFFC0000000000000
FFFFFF80000000000000
FFFFFF00000000000000
FFFFFE00000000000000
FFFFFE00000000000000
FFFFFE00000000000000
FFFFFC00000000000000
FFFFFC00000000000000
FFFFFC00000000000000
FFFFFC00000000000000
FFFFFC00000000000000
FFFFFC00000000000000
FFFFFC00000000000000
FFFFFC00000000000000
FFFFFC00000000000000
FFFFFC00000000000000
FFFFFC00000000000000
FFFFFC00000000000000
FFFFFC00000000000000
FFFFFC00000000000000
FFFFFC00000000000000
FFFFFC00000000000000
FFFFFC00000000000000
FFFFFC00000000000000
FFFFFC00000000000000
FFFFFC00000000000000
FFFFFC00000000000000
FFFFFC00000000000000
FFFFFC00000000000000
FFFFFC00000000000000
FFFFFC00000000000000
FFFFFC00000000000000
FFFFFC00000000000000
FFFFFC00000000000000
FFFFFC00000000000000
FFFFFC00000000000000
FFFFFC00000000000000
FFFFFC00000000000000
FFFFFC00000000000000
FFFFFC00000000000000
FFFFFC00000000000000
FFFFFC00000000000000
FFFFFC00000000000000
FFFFFC00000000000000
FFFFFC00000000000000
FFFFFC00000000000000
FFFFFC00000000000000
FFFFFC00000000000000
FFFFFC00000000000000
FFFFFC00000000000000
FFFFFC00000000000000
FFFFFC00000000000000
FFFFFC00000000000000
FFFFFC00000000000000
FFFFFC00000000000000
FFFFFC00000000000000
FFFFFC00000000000000
FFFFFC00000000000000
FFFFFC00000000000000
FFFFFC00000000000000
FFFFFC00000000000000
FFFFFC00000000000000
FFFFFC00000000000000
FFFFFC00000000000000
FFFFFC00000000000000
FFFFFC00000000000000
FFFFFC00000000000000
FFFFFC00000000000000
FFFFFE00000000000000
FFFFFE00000000000000
FFFFFE00000000000000
FFFFFF00000000000000
FFFFFF00000000000000
FFFFFF80000000000000
FFFFFFE0000000000000
7FFFFFF8000000000000
7FFFFFFFFFFFFFFFFFFC
7FFFFFFFFFFFFFFFFFFC
7FFFFFFFFFFFFFFFFFFC
3FFFFFFFFFFFFFFFFFFC
3FFFFFFFFFFFFFFFFFFC
3FFFFFFFFFFFFFFFFFFC
1FFFFFFFFFFFFFFFFFFC
0FFFFFFFFFFFFFFFFFFC
0FFFFFFFFFFFFFFFFFFC
07FFFFFFFFFFFFFFFFF8
03FFFFFFFFFFFFFFFFF8
01FFFFFFFFFFFFFFFFF8
007FFFFFFFFFFFFFFFF8
001FFFFFFFFFFFFFFFF8
0003FFFFFFFFFFFFFFF0
00001FFFFFFFFFFFFFC0
ENDCHAR
STARTCHAR 0033
ENCODING 51
SWIDTH 392 0
DWIDTH 109 0
BBX 79 195 12 0
BITMAP
000FFFFFFFFFFF800000
007FFFFFFFFFFFFC0000
01FFFFFFFFFFFFFF8000
03FFFFFFFFFFFFFFE000
07FFFFFFFFFFFFFFF800
0FFFFFFFFFFFFFFFFC00
0FFFFFFFFFFFFFFFFE00
1FFFFFFFFFFFFFFFFF00
1FFFFFFFFFFFFFFFFF00
3FFFFFFFFFFFFFFFFF80
3FFFFFFFFFFFFFFFFFC0
7FFFFFFFFFFFFFFFFFC0
7FFFFFFFFFFFFFFFFFC0
7FFFFFFFFFFFFFFFFFE0
7FFFFFFFFFFFFFFFFFE0
FFFFFFFFFFFFFFFFFFE0
000000000003FFFFFFE0
0000000000007FFFFFF0
0000000000001FFFFFF0
0000000000000FFFFFF0
0000000000000FFFFFF0
00000000000007FFFFF0
00000000000007FFFFF0
00000000000007FFFFF0
00000000000003FFFFF0
00000000000003FFFFF0
00000000000003FFFFF0
00000000000003FFFFF0
00000000000003FFFFF0
00000000000003FFFFF0
00000000000003FFFFF0
00000000000003FFFFF0
00000000000003FFFFF0
00000000000003FFFFF0
00000000000003FFFFF0
00000000000003FFFFF0
00000000000003FFFFF0
00000000000003FFFFF0
00000000000003FFFFF0
00000000000003FFFFF0
00000000000003FFFFF0
00000000000003FFFFF0
00000000000003FFFFF0
00000000000003FFFFF0
00000000000003FFFFF0
00000000000003FFFFF0
00000000000003FFFFF0
00000000000003FFFFF0
00000000000003FFFFF0
00000000000003FFFFF0
00000000000003FFFFF0
00000000000003FFFFF0
00000000000003FFFFF0
00000000000003FFFFF0
00000000000003FFFFF0
00000000000003FFFFF0
00000000000003FFFFF0
00000000000003FFFFF0
00000000000003FFFFF0
00000000000003FFFFF0
00000000000003FFFFF0
00000000000003FFFFF0
00000000000003FFFFF0
00000000000003FFFFF0
00000000000003FFFFF0
00000000000003FFFFF0
00000000000003FFFFF0
00000000000003FFFFF0
00000000000003FFFFF0
00000000000003FFFFF0
00000000000003FFFFF0
00000000000003FFFFF0
00000000000003FFFFF0
00000000000003FFFFF0
00000000000003FFFFF0
00000000000003FFFFF0
00000000000003FFFFF0
00000000000007FFFFF0
00000000000007FFFFF0
00000000000007FFFFE0
00000000000007FFFFE0
0000000000000FFFFFE0
0000000000000FFFFFE0
0000000000001FFFFFC0
0000000000007FFFFFC0
000000000003FFFFFF80
000007FFFFFFFFFFFF80
00001FFFFFFFFFFFFF00
00003FFFFFFFFFFFFE00
00003FFFFFFFFFFFFC00
00007FFFFFFFFFFFF000
00007FFFFFFFFFFFC000
00007FFFFFFFFFFE0000
00007FFFFFFFFFFFC000
00007FFFFFFFFFFFF000
00007FFFFFFFFFFFFC00
00007FFFFFFFFFFFFE00
00007FFFFFFFFFFFFF00
00007FFFFFFFFFFFFF80
00007FFFFFFFFFFFFFC0
00007FFFFFFFFFFFFFE0
00007FFFFFFFFFFFFFE0
000000000003FFFFFFF0
0000000000007FFFFFF0
0000000000001FFFFFF0
00000000000007FFFFF8
00000000000007FFFFF8
00000000000003FFFFF8
00000000000001FFFFFC
00000000000001FFFFFC
00000000000001FFFFFC
00000000000000FFFFFC
00000000000000FFFFFC
00000000000000FFFFFC
00000000000000FFFFFC
00000000000000FFFFFE
00000000000000FFFFFE
00000000000000FFFFFE
00000000000000FFFFFE
00000000000000FFFFFE
00000000000000FFFFFE
00000000000000FFFFFE
00000000000000FFFFFE
00000000000000FFFFFE
00000000000000FFFFFE
00000000000000FFFFFE
00000000000000FFFFFE
00000000000000FFFFFE
00000000000000FFFFFE
00000000000000FFFFFE
00000000000000FFFFFE
00000000000000FFFFFE
00000000000000FFFFFE
00000000000000FFFFFE
00000000000000FFFFFE
00000000000000FFFFFE
00000000000000FFFFFE
00000000000000FFFFFE
00000000000000FFFFFE
00000000000000FFFFFE
00000000000000FFFFFE
00000000000000FFFFFE
00000000000000FFFFFE
00000000000000FFFFFE
00000000000000FFFFFE
00000000000000FFFFFE
00000000000000FFFFFE
00000000000000FFFFFE
00000000000000FFFFFE
00000000000000FFFFFE
00000000000000FFFFFE
00000000000000FFFFFE
00000000000000FFFFFE
00000000000000FFFFFE
00000000000000FFFFFE
00000000000000FFFFFE
00000000000000FFFFFE
00000000000000FFFFFE
00000000000000FFFFFE
00000000000000FFFFFE
00000000000000FFFFFE
00000000000000FFFFFE
00000000000000FFFFFE
00000000000000FFFFFE
00000000000000FFFFFE
00000000000000FFFFFE
00000000000000FFFFFE
00000000000000FFFFFE
00000000000000FFFFFE
00000000000000FFFFFE
00000000000000FFFFFE
00000000000000FFFFFE
00000000000001FFFFFE
00000000000001FFFFFC
00000000000001FFFFFC
00000000000003FFFFFC
00000000000007FFFFFC
0000000000000FFFFFFC
0000000000007FFFFFFC
1FFFFFFFFFFFFFFFFFFC
1FFFFFFFFFFFFFFFFFF8
1FFFFFFFFFFFFFFFFFF8
1FFFFFFFFFFFFFFFFFF8
0FFFFFFFFFFFFFFFFFF0
0FFFFFFFFFFFFFFFFFF0
0FFFFFFFFFFFFFFFFFE0
07FFFFFFFFFFFFFFFFE0
07FFFFFFFFFFFFFFFFC0
03FFFFFFFFFFFFFFFF80
03FFFFFFFFFFFFFFFF00
01FFFFFFFFFFFFFFFE00
00FFFFFFFFFFFFFFF800
007FFFFFFFFFFFFFE000
001FFFFFFFFFFFFF8000
0003FFFFFFFFFFF00000
ENDCHAR
STARTCHAR 0034
ENCODING 52
SWIDTH 432 0
DWIDTH 120 0
BBX 87 195 13 0
BITMAP
0FFFFE00000000000FFFFE
3FFFFE00000000003FFFFE
7FFFFE00000000007FFFFE
7FFFFE00000000007FFFFE
7FFFFE0000000000FFFFFE
FFFFFE0000000000FFFFFE
FFFFFE0000000000FFFFFE
FFFFFE0000000000FFFFFE
FFFFFE0000000000FFFFFE
FFFFFE0000000000FFFFFE
FFFFFE0000000000FFFFFE
FFFFFE0000000000FFFFFE
FFFFFE0000000000FFFFFE
FFFFFE0000000000FFFFFE
FFFFFE0000000000FFFFFE
FFFFFE0000000000FFFFFE
FFFFFE0000000000FFFFFE
FFFFFE0000000000FFFFFE
FFFFFE0000000000FFFFFE
FFFFFE0000000000FFFFFE
FFFFFE0000000000FFFFFE
FFFFFE0000000000FFFFFE
FFFFFE0000000000FFFFFE
FFFFFE0000000000FFFFFE
FFFFFE0000000000FFFFFE
FFFFFE0000000000FFFFFE
FFFFFE0000000000FFFFFE
FFFFFE0000000000FFFFFE
FFFFFE0000000000FFFFFE
FFFFFE0000000000FFFFFE
FFFFFE0000000000FFFFFE
FFFFFE0000000000FFFFFE
FFFFFE0000000000FFFFFE
FFFFFE0000000000FFFFFE
FFFFFE0000000000FFFFFE
FFFFFE0000000000FFFFFE
FFFFFE0000000000FFFFFE
FFFFFE0000000000FFFFFE
FFFFFE0000000000FFFFFE
FFFFFE0000000000FFFFFE
FFFFFE0000000000FFFFFE
FFFFFE0000000000FFFFFE
FFFFFE0000000000FFFFFE
FFFFFE0000000000FFFFFE
FFFFFE0000000000FFFFFE
FFFFFE0000000000FFFFFE
FFFFFE0000000000FFFFFE
FFFFFE0000000000FFFFFE
FFFFFE0000000000FFFFFE
FFFFFE0000000000FFFFFE
FFFFFE0000000000FFFFFE
FFFFFE0000000000FFFFFE
FFFFFE0000000000FFFFFE
FFFFFE0000000000FFFFFE
FFFFFE0000000000FFFFFE
FFFFFE0000000000FFFFFE
FFFFFE0000000000FFFFFE
FFFFFE0000000000FFFFFE
FFFFFE0000000000FFFFFE
FFFFFE0000000000FFFFFE
FFFFFE0000000000FFFFFE
FFFFFE0000000000FFFFFE
FFFFFE0000000000FFFFFE
FFFFFE0000000000FFFFFE
FFFFFE0000000000FFFFFE
FFFFFE0000000000FFFFFE
FFFFFE0000000000FFFFFE
FFFFFE0000000000FFFFFE
FFFFFE0000000000FFFFFE
FFFFFE0000000000FFFFFE
FFFFFE0000000000FFFFFE
FFFFFE0000000000FFFFFE
FFFFFE0000000000FFFFFE
FFFFFE0000000000FFFFFE
FFFFFE0000000000FFFFFE
FFFFFE0000000000FFFFFE
FFFFFE0000000000FFFFFE
FFFFFE0000000000FFFFFE
FFFFFE0000000000FFFFFE
FFFFFE0000000000FFFFFE
FFFFFE0000000000FFFFFE
7FFFFF0000000000FFFFFE
7FFFFF0000000000FFFFFE
7FFFFF8000000000FFFFFE
7FFFFFE000000000FFFFFE
7FFFFFFC00000000FFFFFE
7FFFFFFFFFFFFFFFFFFFFE
7FFFFFFFFFFFFFFFFFFFFE
3FFFFFFFFFFFFFFFFFFFFE
3FFFFFFFFFFFFFFFFFFFFE
3FFFFFFFFFFFFFFFFFFFFE
3FFFFFFFFFFFFFFFFFFFFE
1FFFFFFFFFFFFFFFFFFFFE
1FFFFFFFFFFFFFFFFFFFFE
0FFFFFFFFFFFFFFFFFFFFE
07FFFFFFFFFFFFFFFFFFFE
03FFFFFFFFFFFFFFFFFFFE
01FFFFFFFFFFFFFFFFFFFE
00FFFFFFFFFFFFFFFFFFFE
003FFFFFFFFFFFFFFFFFFE
000FFFFFFFFFFFFFFFFFFE
00003FFFFFFFFFFFFFFFFE
0000000000000000FFFFFE
0000000000000000FFFFFE
0000000000000000FFFFFE
0000000000000000FFFFFE
0000000000000000FFFFFE
0000000000000000FFFFFE
0000000000000000FFFFFE
0000000000000000FFFFFE
0000000000000000FFFFFE
0000000000000000FFFFFE
0000000000000000FFFFFE
0000000000000000FFFFFE
0000000000000000FFFFFE
0000000000000000FFFFFE
0000000000000000FFFFFE
0000000000000000FFFFFE
0000000000000000FFFFFE
0000000000000000FFFFFE
0000000000000000FFFFFE
0000000000000000FFFFFE
0000000000000000FFFFFE
0000000000000000FFFFFE
0000000000000000FFFFFE
0000000000000000FFFFFE
0000000000000000FFFFFE
0000000000000000FFFFFE
0000000000000000FFFFFE
0000000000000000FFFFFE
0000000000000000FFFFFE
0000000000000000FFFFFE
0000000000000000FFFFFE
0000000000000000FFFFFE
0000000000000000FFFFFE
0000000000000000FFFFFE
0000000000000000FFFFFE
0000000000000000FFFFFE
0000000000000000FFFFFE
0000000000000000FFFFFE
0000000000000000FFFFFE
0000000000000000FFFFFE
0000000000000000FFFFFE
0000000000000000FFFFFE
0000000000000000FFFFFE
0000000000000000FFFFFE
0000000000000000FFFFFE
0000000000000000FFFFFE
0000000000000000FFFFFE
0000000000000000FFFFFE
0000000000000000FFFFFE
0000000000000000FFFFFE
0000000000000000FFFFFE
0000000000000000FFFFFE
0000000000000000FFFFFE
0000000000000000FFFFFE
0000000000000000FFFFFE
0000000000000000FFFFFE
0000000000000000FFFFFE
0000000000000000FFFFFE
0000000000000000FFFFFE
0000000000000000FFFFFE
0000000000000000FFFFFE
0000000000000000FFFFFE
0000000000000000FFFFFE
0000000000000000FFFFFE
0000000000000000FFFFFE
0000000000000000FFFFFE
0000000000000000FFFFFE
0000000000000000FFFFFE
0000000000000000FFFFFE
0000000000000000FFFFFE
0000000000000000FFFFFE
0000000000000000FFFFFE
0000000000000000FFFFFE
0000000000000000FFFFFE
0000000000000000FFFFFE
0000000000000000FFFFFE
0000000000000000FFFFFE
0000000000000000FFFFFE
0000000000000000FFFFFE
0000000000000000FFFFFE
0000000000000000FFFFFE
0000000000000000FFFFFE
0000000000000000FFFFFE
0000000000000000FFFFFE
0000000000000000FFFFFE
0000000000000000FFFFFE
0000000000000000FFFFFE
0000000000000000FFFFFC
0000000000000000FFFFFC
0000000000000000FFFFFC
0000000000000000FFFFFC
0000000000000000FFFFF8
0000000000000000FFFFE0
ENDCHAR
STARTCHAR 0035
ENCODING 53
SWIDTH 410 0
DWIDTH 114 0
BBX 81 195 17 0
BITMAP
07FFFFFFFFFFFFFFFFF800
1FFFFFFFFFFFFFFFFFF800
3FFFFFFFFFFFFFFFFFF800
3FFFFFFFFFFFFFFFFFF800
3FFFFFFFFFFFFFFFFFF800
7FFFFFFFFFFFFFFFFFF800
7FFFFFFFFFFFFFFFFFF800
7FFFFFFFFFFFFFFFFFF800
7FFFFFFFFFFFFFFFFFF800
7FFFFFFFFFFFFFFFFFF800
7FFFFFFFFFFFFFFFFFF800
7FFFFFFFFFFFFFFFFFF800
7FFFFFFFFFFFFFFFFFF800
7FFFFFFFFFFFFFFFFFF800
7FFFFFFFFFFFFFFFFFF000
7FFFFFFFFFFFFFFFFFC000
7FFFFC0000000000000000
7FFFFC0000000000000000
7FFFFC0000000000000000
7FFFFC0000000000000000
7FFFFC0000000000000000
7FFFFC0000000000000000
7FFFFC0000000000000000
7FFFFC0000000000000000
7FFFFC0000000000000000
7FFFFC0000000000000000
7FFFFC0000000000000000
7FFFFC0000000000000000
7FFFFC0000000000000000
7FFFFC0000000000000000
7FFFFC0000000000000000
7FFFFC0000000000000000
7FFFFC0000000000000000
7FFFFC0000000000000000
7FFFFC0000000000000000
7FFFFC0000000000000000
7FFFFC0000000000000000
7FFFFC0000000000000000
7FFFFC0000000000000000
7FFFFC0000000000000000
7FFFFC0000000000000000
7FFFFC0000000000000000
7FFFFC0000000000000000
7FFFFC0000000000000000
7FFFFC0000000000000000
7FFFFC0000000000000000
7FFFFC0000000000000000
7FFFFC0000000000000000
7FFFFC0000000000000000
7FFFFC0000000000000000
7FFFFC0000000000000000
7FFFFC0000000000000000
7FFFFC0000000000000000
7FFFFC0000000000000000
7FFFFC0000000000000000
7FFFFC0000000000000000
7FFFFC0000000000000000
7FFFFC0000000000000000
7FFFFC0000000000000000
7FFFFC0000000000000000
7FFFFC0000000000000000
7FFFFC0000000000000000
7FFFFC0000000000000000
7FFFFC0000000000000000
7FFFFC0000000000000000
7FFFFC0000000000000000
7FFFFC0000000000000000
7FFFFC0000000000000000
7FFFFC0000000000000000
7FFFFC0000000000000000
7FFFFC0000000000000000
7FFFFC0000000000000000
7FFFFC0000000000000000
7FFFFC0000000000000000
7FFFFC0000000000000000
7FFFFC0000000000000000
7FFFFC0000000000000000
7FFFFC0000000000000000
7FFFFC0000000000000000
7FFFFC0000000000000000
7FFFFC0000000000000000
7FFFFC0000000000000000
7FFFFC0000000000000000
7FFFFC0000000000000000
7FFFFC0000000000000000
7FFFFC0000000000000000
7FFFFFFFFFFFFFFC000000
7FFFFFFFFFFFFFFFE00000
7FFFFFFFFFFFFFFFFC0000
7FFFFFFFFFFFFFFFFF0000
7FFFFFFFFFFFFFFFFF8000
7FFFFFFFFFFFFFFFFFC000
7FFFFFFFFFFFFFFFFFE000
7FFFFFFFFFFFFFFFFFF000
7FFFFFFFFFFFFFFFFFF800
7FFFFFFFFFFFFFFFFFF800
7FFFFFFFFFFFFFFFFFFC00
3FFFFFFFFFFFFFFFFFFC00
3FFFFFFFFFFFFFFFFFFE00
3FFFFFFFFFFFFFFFFFFE00
1FFFFFFFFFFFFFFFFFFE00
07FFFFFFFFFFFFFFFFFF00
0000000000001FFFFFFF00
00000000000003FFFFFF00
00000000000001FFFFFF00
00000000000000FFFFFF00
000000000000007FFFFF80
000000000000007FFFFF80
000000000000003FFFFF80
000000000000003FFFFF80
000000000000003FFFFF80
000000000000003FFFFF80
000000000000003FFFFF80
000000000000003FFFFF80
000000000000003FFFFF80
000000000000001FFFFF80
000000000000001FFFFF80
000000000000001FFFFF80
000000000000001FFFFF80
000000000000001FFFFF80
000000000000001FFFFF80
000000000000001FFFFF80
000000000000001FFFFF80
000000000000001FFFFF80
000000000000001FFFFF80
000000000000001FFFFF80
000000000000001FFFFF80
000000000000001FFFFF80
000000000000001FFFFF80
000000000000001FFFFF80
000000000000001FFFFF80
000000000000001FFFFF80
000000000000001FFFFF80
000000000000001FFFFF80
000000000000001FFFFF80
000000000000001FFFFF80
000000000000001FFFFF80
000000000000001FFFFF80
000000000000001FFFFF80
000000000000001FFFFF80
000000000000001FFFFF80
000000000000001FFFFF80
000000000000001FFFFF80
000000000000001FFFFF80
000000000000001FFFFF80
000000000000001FFFFF80
000000000000001FFFFF80
000000000000001FFFFF80
000000000000001FFFFF80
000000000000001FFFFF80
000000000000001FFFFF80
000000000000001FFFFF80
000000000000001FFFFF80
000000000000001FFFFF80
000000000000001FFFFF80
000000000000001FFFFF80
000000000000001FFFFF80
000000000000001FFFFF80
000000000000001FFFFF80
000000000000001FFFFF80
000000000000001FFFFF80
000000000000001FFFFF80
000000000000001FFFFF80
000000000000001FFFFF80
000000000000001FFFFF80
000000000000001FFFFF80
000000000000003FFFFF80
000000000000003FFFFF80
000000000000003FFFFF80
000000000000003FFFFF80
000000000000003FFFFF80
000000000000003FFFFF80
000000000000003FFFFF80
000000000000007FFFFF80
000000000000007FFFFF80
00000000000000FFFFFF00
00000000000001FFFFFF00
00000000000003FFFFFF00
0000000000001FFFFFFF00
FFFFFFFFFFFFFFFFFFFF00
FFFFFFFFFFFFFFFFFFFE00
7FFFFFFFFFFFFFFFFFFE00
7FFFFFFFFFFFFFFFFFFE00
7FFFFFFFFFFFFFFFFFFC00
7FFFFFFFFFFFFFFFFFFC00
3FFFFFFFFFFFFFFFFFFC00
3FFFFFFFFFFFFFFFFFF800
1FFFFFFFFFFFFFFFFFF000
1FFFFFFFFFFFFFFFFFE000
0FFFFFFFFFFFFFFFFFC000
07FFFFFFFFFFFFFFFF8000
03FFFFFFFFFFFFFFFF0000
01FFFFFFFFFFFFFFFC0000
00FFFFFFFFFFFFFFE00000
000FFFFFFFFFFFFC000000
ENDCHAR
STARTCHAR 0036
ENCODING 54
SWIDTH 435 0
DWIDTH 121 0
BBX 86 195 19 0
BITMAP
00001FFFFFFFFFFFFE0000
0001FFFFFFFFFFFFFFC000
000FFFFFFFFFFFFFFFE000
003FFFFFFFFFFFFFFFF800
00FFFFFFFFFFFFFFFFF800
01FFFFFFFFFFFFFFFFFC00
03FFFFFFFFFFFFFFFFFE00
07FFFFFFFFFFFFFFFFFE00
0FFFFFFFFFFFFFFFFFFF00
0FFFFFFFFFFFFFFFFFFF00
1FFFFFFFFFFFFFFFFFFF80
1FFFFFFFFFFFFFFFFFFF80
3FFFFFFFFFFFFFFFFFFF80
3FFFFFFFFFFFFFFFFFFFC0
3FFFFFFFFFFFFFFFFFFFC0
3FFFFFFFFFFFFFFFFFFFC0
7FFFFFFC00000000000000
7FFFFFE000000000000000
7FFFFFC000000000000000
7FFFFF8000000000000000
7FFFFF0000000000000000
7FFFFF0000000000000000
7FFFFF0000000000000000
FFFFFE0000000000000000
FFFFFE0000000000000000
FFFFFE0000000000000000
FFFFFE0000000000000000
FFFFFE0000000000000000
FFFFFE0000000000000000
FFFFFE0000000000000000
FFFFFE0000000000000000
FFFFFE0000000000000000
FFFFFE0000000000000000
FFFFFE0000000000000000
FFFFFE0000000000000000
FFFFFE0000000000000000
FFFFFE0000000000000000
FFFFFE0000000000000000
FFFFFE0000000000000000
FFFFFE0000000000000000
FFFFFE0000000000000000
FFFFFE0000000000000000
FFFFFE0000000000000000
FFFFFE0000000000000000
FFFFFE0000000000000000
FFFFFE0000000000000000
FFFFFE0000000000000000
FFFFFE0000000000000000
FFFFFE0000000000000000
FFFFFE0000000000000000
FFFFFE0000000000000000
FFFFFE0000000000000000
FFFFFE0000000000000000
FFFFFE0000000000000000
FFFFFE0000000000000000
FFFFFE0000000000000000
FFFFFE0000000000000000
FFFFFE0000000000000000
FFFFFE0000000000000000
FFFFFE0000000000000000
FFFFFE0000000000000000
FFFFFE0000000000000000
FFFFFE0000000000000000
FFFFFE0000000000000000
FFFFFE0000000000000000
FFFFFE0000000000000000
FFFFFE0000000000000000
FFFFFE0000000000000000
FFFFFE0000000000000000
FFFFFE0000000000000000
FFFFFE0000000000000000
FFFFFE0000000000000000
FFFFFE0000000000000000
FFFFFE0000000000000000
FFFFFE0000000000000000
FFFFFE0000000000000000
FFFFFE0000000000000000
FFFFFE0000000000000000
FFFFFE0000000000000000
FFFFFE0000000000000000
FFFFFE0000000000000000
FFFFFE0000000000000000
FFFFFE0000000000000000
FFFFFE0000000000000000
FFFFFE0000000000000000
FFFFFE0000000000000000
FFFFFE0007FFFFFFE00000
FFFFFE001FFFFFFFFF0000
FFFFFE003FFFFFFFFFE000
FFFFFE003FFFFFFFFFF800
FFFFFE003FFFFFFFFFFE00
FFFFFE003FFFFFFFFFFF00
FFFFFE003FFFFFFFFFFF80
FFFFFE003FFFFFFFFFFFC0
FFFFFE003FFFFFFFFFFFC0
FFFFFE003FFFFFFFFFFFE0
FFFFFE003FFFFFFFFFFFE0
FFFFFE003FFFFFFFFFFFF0
FFFFFE003FFFFFFFFFFFF0
FFFFFE003FFFFFFFFFFFF8
FFFFFE003FFFFFFFFFFFF8
FFFFFE003FFFFFFFFFFFF8
FFFFFE00000000FFFFFFF8
FFFFFE000000001FFFFFFC
FFFFFE0000000007FFFFFC
FFFFFE0000000003FFFFFC
FFFFFE0000000003FFFFFC
FFFFFE0000000001FFFFFC
FFFFFE0000000001FFFFFC
FFFFFE0000000001FFFFFC
FFFFFE0000000000FFFFFC
FFFFFE0000000000FFFFFC
FFFFFE0000000000FFFFFC
FFFFFE0000000000FFFFFC
FFFFFE0000000000FFFFFC
FFFFFE0000000000FFFFFC
FFFFFE0000000000FFFFFC
FFFFFE0000000000FFFFFC
FFFFFE0000000000FFFFFC
FFFFFE0000000000FFFFFC
FFFFFE0000000000FFFFFC
FFFFFE0000000000FFFFFC
FFFFFE0000000000FFFFFC
FFFFFE0000000000FFFFFC
FFFFFE0000000000FFFFFC
FFFFFE0000000000FFFFFC
FFFFFE0000000000FFFFFC
FFFFFE0000000000FFFFFC
FFFFFE0000000000FFFFFC
FFFFFE0000000000FFFFFC
FFFFFE0000000000FFFFFC
FFFFFE0000000000FFFFFC
FFFFFE0000000000FFFFFC
FFFFFE0000000000FFFFFC
FFFFFE0000000000FFFFFC
FFFFFE0000000000FFFFFC
FFFFFE0000000000FFFFFC
FFFFFE0000000000FFFFFC
FFFFFE0000000000FFFFFC
FFFFFE0000000000FFFFFC
FFFFFE0000000000FFFFFC
FFFFFE0000000000FFFFFC
FFFFFE0000000000FFFFFC
FFFFFE0000000000FFFFFC
FFFFFE0000000000FFFFFC
FFFFFE0000000000FFFFFC
FFFFFE0000000000FFFFFC
FFFFFE0000000000FFFFFC
FFFFFE0000000000FFFFFC
FFFFFE0000000000FFFFFC
FFFFFE0000000000FFFFFC
FFFFFE0000000000FFFFFC
FFFFFE0000000000FFFFFC
FFFFFE0000000000FFFFFC
FFFFFE0000000000FFFFFC
FFFFFE0000000000FFFFFC
FFFFFE0000000000FFFFFC
FFFFFE0000000000FFFFFC
FFFFFE0000000000FFFFFC
FFFFFE0000000000FFFFFC
FFFFFE0000000000FFFFFC
FFFFFE0000000000FFFFFC
FFFFFE0000000000FFFFFC
FFFFFE0000000000FFFFFC
FFFFFE0000000000FFFFFC
FFFFFE0000000000FFFFFC
FFFFFE0000000000FFFFFC
FFFFFE0000000000FFFFFC
FFFFFE0000000000FFFFFC
FFFFFE0000000000FFFFFC
FFFFFE0000000000FFFFFC
FFFFFE0000000001FFFFFC
7FFFFF0000000001FFFFFC
7FFFFF0000000001FFFFFC
7FFFFF0000000003FFFFFC
7FFFFF8000000003FFFFFC
7FFFFFC000000007FFFFFC
7FFFFFE00000001FFFFFFC
7FFFFFFC0000007FFFFFF8
3FFFFFFFFFFFFFFFFFFFF8
3FFFFFFFFFFFFFFFFFFFF8
3FFFFFFFFFFFFFFFFFFFF8
3FFFFFFFFFFFFFFFFFFFF0
1FFFFFFFFFFFFFFFFFFFF0
1FFFFFFFFFFFFFFFFFFFF0
0FFFFFFFFFFFFFFFFFFFE0
0FFFFFFFFFFFFFFFFFFFC0
07FFFFFFFFFFFFFFFFFFC0
03FFFFFFFFFFFFFFFFFF80
01FFFFFFFFFFFFFFFFFF00
00FFFFFFFFFFFFFFFFFE00
003FFFFFFFFFFFFFFFF800
000FFFFFFFFFFFFFFFE000
0003FFFFFFFFFFFFFF0000
00001FFFFFFFFFFFE00000
ENDCHAR
STARTCHAR 0037
ENCODING 55
SWIDTH 360 0
DWIDTH 100 0
BBX 82 195 9 0
BITMAP
0FFFFFFFFFFFFFFFFFFE00
3FFFFFFFFFFFFFFFFFFF00
7FFFFFFFFFFFFFFFFFFF80
7FFFFFFFFFFFFFFFFFFF80
FFFFFFFFFFFFFFFFFFFF80
FFFFFFFFFFFFFFFFFFFF80
FFFFFFFFFFFFFFFFFFFFC0
FFFFFFFFFFFFFFFFFFFFC0
FFFFFFFFFFFFFFFFFFFFC0
FFFFFFFFFFFFFFFFFFFFC0
FFFFFFFFFFFFFFFFFFFFC0
FFFFFFFFFFFFFFFFFFFFC0
FFFFFFFFFFFFFFFFFFFFC0
FFFFFFFFFFFFFFFFFFFFC0
FFFFFFFFFFFFFFFFFFFFC0
FFFFFFFFFFFFFFFFFFFFC0
000000000000000FFFFFC0
000000000000000FFFFF80
000000000000000FFFFF80
000000000000001FFFFF80
000000000000001FFFFF00
000000000000001FFFFF00
000000000000003FFFFF00
000000000000003FFFFF00
000000000000003FFFFE00
000000000000003FFFFE00
000000000000007FFFFE00
000000000000007FFFFE00
000000000000007FFFFC00
000000000000007FFFFC00
00000000000000FFFFFC00
00000000000000FFFFFC00
00000000000000FFFFF800
00000000000000FFFFF800
00000000000001FFFFF800
00000000000001FFFFF000
00000000000001FFFFF000
00000000000003FFFFF000
00000000000003FFFFF000
00000000000003FFFFE000
00000000000003FFFFE000
00000000000007FFFFE000
00000000000007FFFFE000
00000000000007FFFFC000
00000000000007FFFFC000
0000000000000FFFFFC000
0000000000000FFFFFC000
0000000000000FFFFF8000
0000000000000FFFFF8000
0000000000001FFFFF8000
0000000000001FFFFF0000
0000000000001FFFFF0000
0000000000001FFFFF0000
0000000000003FFFFF0000
0000000000003FFFFE0000
0000000000003FFFFE0000
0000000000007FFFFE0000
0000000000007FFFFE0000
0000000000007FFFFC0000
0000000000007FFFFC0000
000000000000FFFFFC0000
000000000000FFFFF80000
000000000000FFFFF80000
000000000000FFFFF80000
000000000001FFFFF80000
000000000001FFFFF00000
000000000001FFFFF00000
000000000001FFFFF00000
000000000003FFFFF00000
000000000003FFFFE00000
000000000003FFFFE00000
000000000007FFFFE00000
000000000007FFFFE00000
000000000007FFFFC00000
000000000007FFFFC00000
00000000000FFFFFC00000
00000000000FFFFF800000
00000000000FFFFF800000
00000000000FFFFF800000
00000000001FFFFF800000
00000000001FFFFF000000
00000000001FFFFF000000
00000000001FFFFF000000
00000000003FFFFF000000
00000000003FFFFE000000
00000000003FFFFE000000
00000000007FFFFE000000
00000000007FFFFE000000
00000000007FFFFC000000
00000000007FFFFC000000
0000000000FFFFFC000000
0000000000FFFFF8000000
0000000000FFFFF8000000
0000000000FFFFF8000000
0000000001FFFFF8000000
0000000001FFFFF0000000
0000000001FFFFF0000000
0000000001FFFFF0000000
0000000003FFFFF0000000
0000000003FFFFE0000000
0000000003FFFFE0000000
0000000007FFFFE0000000
0000000007FFFFE0000000
0000000007FFFFC0000000
0000000007FFFFC0000000
000000000FFFFFC0000000
000000000FFFFF80000000
000000000FFFFF80000000
000000000FFFFF80000000
000000001FFFFF80000000
000000001FFFFF00000000
000000001FFFFF00000000
000000001FFFFF00000000
000000003FFFFF00000000
000000003FFFFE00000000
000000003FFFFE00000000
000000003FFFFE00000000
000000007FFFFE00000000
000000007FFFFC00000000
000000007FFFFC00000000
00000000FFFFFC00000000
00000000FFFFF800000000
00000000FFFFF800000000
00000000FFFFF800000000
00000001FFFFF800000000
00000001FFFFF000000000
00000001FFFFF000000000
00000001FFFFF000000000
00000003FFFFF000000000
00000003FFFFE000000000
00000003FFFFE000000000
00000003FFFFE000000000
00000007FFFFE000000000
00000007FFFFC000000000
00000007FFFFC000000000
0000000FFFFFC000000000
0000000FFFFF8000000000
0000000FFFFF8000000000
0000000FFFFF8000000000
0000001FFFFF8000000000
0000001FFFFF0000000000
0000001FFFFF0000000000
0000001FFFFF0000000000
0000003FFFFF0000000000
0000003FFFFE0000000000
0000003FFFFE0000000000
0000003FFFFE0000000000
0000007FFFFE0000000000
0000007FFFFC0000000000
0000007FFFFC0000000000
000000FFFFFC0000000000
000000FFFFF80000000000
000000FFFFF80000000000
000000FFFFF80000000000
000001FFFFF80000000000
000001FFFFF00000000000
000001FFFFF00000000000
000001FFFFF00000000000
000003FFFFF00000000000
000003FFFFE00000000000
000003FFFFE00000000000
000003FFFFE00000000000
000007FFFFE00000000000
000007FFFFC00000000000
000007FFFFC00000000000
00000FFFFFC00000000000
00000FFFFF800000000000
00000FFFFF800000000000
00000FFFFF800000000000
00001FFFFF800000000000
00001FFFFF000000000000
00001FFFFF000000000000
00001FFFFF000000000000
00003FFFFF000000000000
00003FFFFE000000000000
00003FFFFE000000000000
00003FFFFE000000000000
00007FFFFE000000000000
00007FFFFC000000000000
00007FFFFC000000000000
00007FFFFC000000000000
0000FFFFF8000000000000
0000FFFFF8000000000000
0000FFFFF8000000000000
0001FFFFF8000000000000
0001FFFFF0000000000000
0001FFFFF0000000000000
0001FFFFF0000000000000
0003FFFFF0000000000000
0003FFFFE0000000000000
0003FFFFE0000000000000
0003FFFFE0000000000000
0007FFFFE0000000000000
0007FFFFC0000000000000
0007FFFFC0000000000000
ENDCHAR
STARTCHAR 0038
ENCODING 56
SWIDTH 442 0
DWIDTH 123 0
BBX 85 195 19 0
BITMAP
00003FFFFFFFFFFFF00000
0007FFFFFFFFFFFFFF0000
003FFFFFFFFFFFFFFFE000
00FFFFFFFFFFFFFFFFF800
01FFFFFFFFFFFFFFFFFC00
03FFFFFFFFFFFFFFFFFE00
07FFFFFFFFFFFFFFFFFF00
0FFFFFFFFFFFFFFFFFFF80
0FFFFFFFFFFFFFFFFFFFC0
1FFFFFFFFFFFFFFFFFFFC0
1FFFFFFFFFFFFFFFFFFFE0
3FFFFFFFFFFFFFFFFFFFE0
3FFFFFFFFFFFFFFFFFFFE0
3FFFFFFFFFFFFFFFFFFFF0
7FFFFFFFFFFFFFFFFFFFF0
7FFFFFFFFFFFFFFFFFFFF0
7FFFFFFC000001FFFFFFF0
7FFFFFE00000003FFFFFF8
7FFFFFC00000000FFFFFF8
7FFFFF8000000007FFFFF8
FFFFFF0000000007FFFFF8
FFFFFF0000000003FFFFF8
FFFFFE0000000003FFFFF8
FFFFFE0000000003FFFFF8
FFFFFE0000000003FFFFF8
FFFFFE0000000001FFFFF8
FFFFFE0000000001FFFFF8
FFFFFE0000000001FFFFF8
FFFFFE0000000001FFFFF8
FFFFFC0000000001FFFFF8
FFFFFC0000000001FFFFF8
FFFFFC0000000001FFFFF8
FFFFFC0000000001FFFFF8
FFFFFC0000000001FFFFF8
FFFFFC0000000001FFFFF8
FFFFFC0000000001FFFFF8
FFFFFC0000000001FFFFF8
FFFFFC0000000001FFFFF8
FFFFFC0000000001FFFFF8
FFFFFC0000000001FFFFF8
FFFFFC0000000001FFFFF8
FFFFFC0000000001FFFFF8
FFFFFC0000000001FFFFF8
FFFFFC0000000001FFFFF8
FFFFFC0000000001FFFFF8
FFFFFC0000000001FFFFF8
FFFFFC0000000001FFFFF8
FFFFFC0000000001FFFFF8
FFFFFC0000000001FFFFF8
FFFFFC0000000001FFFFF8
FFFFFC0000000001FFFFF8
FFFFFC0000000001FFFFF8
FFFFFC0000000001FFFFF8
FFFFFC0000000001FFFFF8
FFFFFC0000000001FFFFF8
FFFFFC0000000001FFFFF8
FFFFFC0000000001FFFFF8
FFFFFC0000000001FFFFF8
FFFFFC0000000001FFFFF8
FFFFFC0000000001FFFFF8
FFFFFC0000000001FFFFF8
FFFFFC0000000001FFFFF8
FFFFFC0000000001FFFFF8
FFFFFC0000000001FFFFF8
FFFFFC0000000001FFFFF8
FFFFFC0000000001FFFFF8
FFFFFC0000000001FFFFF8
FFFFFC0000000001FFFFF8
FFFFFC0000000001FFFFF8
FFFFFC0000000001FFFFF8
FFFFFC0000000001FFFFF8
FFFFFC0000000001FFFFF8
FFFFFC0000000001FFFFF8
FFFFFC0000000001FFFFF8
7FFFFE0000000001FFFFF8
7FFFFE0000000001FFFFF8
7FFFFE0000000001FFFFF0
7FFFFE0000000003FFFFF0
7FFFFE0000000003FFFFF0
3FFFFE0000000003FFFFF0
3FFFFF0000000003FFFFE0
3FFFFF0000000007FFFFE0
1FFFFF8000000007FFFFE0
1FFFFFC00000000FFFFFC0
0FFFFFE00000003FFFFFC0
0FFFFFFC000000FFFFFF80
07FFFFFFFFFFFFFFFFFF00
03FFFFFFFFFFFFFFFFFE00
01FFFFFFFFFFFFFFFFFC00
007FFFFFFFFFFFFFFFF800
003FFFFFFFFFFFFFFFE000
0007FFFFFFFFFFFFFF8000
0001FFFFFFFFFFFFFC0000
0007FFFFFFFFFFFFFF8000
001FFFFFFFFFFFFFFFE000
007FFFFFFFFFFFFFFFF000
00FFFFFFFFFFFFFFFFFC00
01FFFFFFFFFFFFFFFFFE00
03FFFFFFFFFFFFFFFFFF00
07FFFFFFFFFFFFFFFFFF00
0FFFFFFFFFFFFFFFFFFF80
0FFFFFFFFFFFFFFFFFFFC0
1FFFFFFC000001FFFFFFC0
1FFFFFE00000003FFFFFE0
3FFFFFC00000000FFFFFE0
3FFFFF8000000007FFFFE0
3FFFFF0000000007FFFFF0
7FFFFF0000000003FFFFF0
7FFFFE0000000003FFFFF0
7FFFFE0000000003FFFFF0
7FFFFE0000000003FFFFF8
7FFFFE0000000001FFFFF8
FFFFFE0000000001FFFFF8
FFFFFE0000000001FFFFF8
FFFFFE0000000001FFFFF8
FFFFFC0000000001FFFFF8
FFFFFC0000000001FFFFF8
FFFFFC0000000001FFFFF8
FFFFFC0000000001FFFFF8
FFFFFC0000000001FFFFF8
FFFFFC0000000001FFFFF8
FFFFFC0000000001FFFFF8
FFFFFC0000000001FFFFF8
FFFFFC0000000001FFFFF8
FFFFFC0000000001FFFFF8
FFFFFC0000000001FFFFF8
FFFFFC0000000001FFFFF8
FFFFFC0000000001FFFFF8
FFFFFC0000000001FFFFF8
FFFFFC0000000001FFFFF8
FFFFFC0000000001FFFFF8
FFFFFC0000000001FFFFF8
FFFFFC0000000001FFFFF8
FFFFFC0000000001FFFFF8
FFFFFC0000000001FFFFF8
FFFFFC0000000001FFFFF8
FFFFFC0000000001FFFFF8
FFFFFC0000000001FFFFF8
FFFFFC0000000001FFFFF8
FFFFFC0000000001FFFFF8
FFFFFC0000000001FFFFF8
FFFFFC0000000001FFFFF8
FFFFFC0000000001FFFFF8
FFFFFC0000000001FFFFF8
FFFFFC0000000001FFFFF8
FFFFFC0000000001FFFFF8
FFFFFC0000000001FFFFF8
FFFFFC0000000001FFFFF8
FFFFFC0000000001FFFFF8
FFFFFC0000000001FFFFF8
FFFFFC0000000001FFFFF8
FFFFFC0000000001FFFFF8
FFFFFC0000000001FFFFF8
FFFFFC0000000001FFFFF8
FFFFFC0000000001FFFFF8
FFFFFC0000000001FFFFF8
FFFFFC0000000001FFFFF8
FFFFFC0000000001FFFFF8
FFFFFC0000000001FFFFF8
FFFFFC0000000001FFFFF8
FFFFFC0000000001FFFFF8
FFFFFC0000000001FFFFF8
FFFFFC0000000001FFFFF8
FFFFFC0000000001FFFFF8
FFFFFC0000000001FFFFF8
FFFFFC0000000001FFFFF8
FFFFFE0000000001FFFFF8
FFFFFE0000000001FFFFF8
FFFFFE0000000001FFFFF8
FFFFFE0000000001FFFFF8
FFFFFE0000000003FFFFF8
FFFFFE0000000003FFFFF8
FFFFFE0000000003FFFFF8
FFFFFF0000000003FFFFF8
FFFFFF0000000007FFFFF8
7FFFFF8000000007FFFFF8
7FFFFFC00000000FFFFFF8
7FFFFFE00000003FFFFFF8
7FFFFFFC000001FFFFFFF8
7FFFFFFFFFFFFFFFFFFFF0
7FFFFFFFFFFFFFFFFFFFF0
3FFFFFFFFFFFFFFFFFFFF0
3FFFFFFFFFFFFFFFFFFFF0
3FFFFFFFFFFFFFFFFFFFE0
1FFFFFFFFFFFFFFFFFFFE0
1FFFFFFFFFFFFFFFFFFFE0
0FFFFFFFFFFFFFFFFFFFC0
0FFFFFFFFFFFFFFFFFFF80
07FFFFFFFFFFFFFFFFFF80
03FFFFFFFFFFFFFFFFFF00
01FFFFFFFFFFFFFFFFFE00
00FFFFFFFFFFFFFFFFFC00
003FFFFFFFFFFFFFFFF000
0007FFFFFFFFFFFFFF8000
00003FFFFFFFFFFFF00000
ENDCHAR
STARTCHAR 0039
ENCODING 57
SWIDTH 428 0
DWIDTH 119 0
BBX 83 195 16 0
BITMAP
00001FFFFFFFFFFF000000
0003FFFFFFFFFFFFF80000
001FFFFFFFFFFFFFFF0000
007FFFFFFFFFFFFFFFC000
00FFFFFFFFFFFFFFFFE000
01FFFFFFFFFFFFFFFFF800
03FFFFFFFFFFFFFFFFFC00
07FFFFFFFFFFFFFFFFFE00
0FFFFFFFFFFFFFFFFFFE00
1FFFFFFFFFFFFFFFFFFF00
1FFFFFFFFFFFFFFFFFFF00
3FFFFFFFFFFFFFFFFFFF80
3FFFFFFFFFFFFFFFFFFF80
3FFFFFFFFFFFFFFFFFFFC0
7FFFFFFFFFFFFFFFFFFFC0
7FFFFFFFFFFFFFFFFFFFC0
7FFFFFFC000007FFFFFFC0
7FFFFFE0000000FFFFFFE0
7FFFFFC00000003FFFFFE0
7FFFFF800000001FFFFFE0
FFFFFF000000001FFFFFE0
FFFFFF000000000FFFFFE0
FFFFFE000000000FFFFFE0
FFFFFE000000000FFFFFE0
FFFFFE000000000FFFFFE0
FFFFFE0000000007FFFFE0
FFFFFE0000000007FFFFE0
FFFFFE0000000007FFFFE0
FFFFFC0000000007FFFFE0
FFFFFC0000000007FFFFE0
FFFFFC0000000007FFFFE0
FFFFFC0000000007FFFFE0
FFFFFC0000000007FFFFE0
FFFFFC0000000007FFFFE0
FFFFFC0000000007FFFFE0
FFFFFC0000000007FFFFE0
FFFFFC0000000007FFFFE0
FFFFFC0000000007FFFFE0
FFFFFC0000000007FFFFE0
FFFFFC0000000007FFFFE0
FFFFFC0000000007FFFFE0
FFFFFC0000000007FFFFE0
FFFFFC0000000007FFFFE0
FFFFFC0000000007FFFFE0
FFFFFC0000000007FFFFE0
FFFFFC0000000007FFFFE0
FFFFFC0000000007FFFFE0
FFFFFC0000000007FFFFE0
FFFFFC0000000007FFFFE0
FFFFFC0000000007FFFFE0
FFFFFC0000000007FFFFE0
FFFFFC0000000007FFFFE0
FFFFFC0000000007FFFFE0
FFFFFC0000000007FFFFE0
FFFFFC0000000007FFFFE0
FFFFFC0000000007FFFFE0
FFFFFC0000000007FFFFE0
FFFFFC0000000007FFFFE0
FFFFFC0000000007FFFFE0
FFFFFC0000000007FFFFE0
FFFFFC0000000007FFFFE0
FFFFFC0000000007FFFFE0
FFFFFC0000000007FFFFE0
FFFFFC0000000007FFFFE0
FFFFFC0000000007FFFFE0
FFFFFC0000000007FFFFE0
FFFFFC0000000007FFFFE0
FFFFFC0000000007FFFFE0
FFFFFC0000000007FFFFE0
FFFFFC0000000007FFFFE0
FFFFFC0000000007FFFFE0
FFFFFC0000000007FFFFE0
FFFFFC0000000007FFFFE0
FFFFFC0000000007FFFFE0
FFFFFC0000000007FFFFE0
FFFFFC0000000007FFFFE0
FFFFFC0000000007FFFFE0
FFFFFC0000000007FFFFE0
FFFFFC0000000007FFFFE0
FFFFFC0000000007FFFFE0
FFFFFC0000000007FFFFE0
FFFFFC0000000007FFFFE0
FFFFFE0000000007FFFFE0
FFFFFE0000000007FFFFE0
FFFFFE0000000007FFFFE0
FFFFFE0000000007FFFFE0
FFFFFE0000000007FFFFE0
FFFFFF0000000007FFFFE0
FFFFFF0000000007FFFFE0
7FFFFF8000000007FFFFE0
7FFFFF8000000007FFFFE0
7FFFFFE000000007FFFFE0
7FFFFFFC00000007FFFFE0
7FFFFFFFFFFFC007FFFFE0
7FFFFFFFFFFFC007FFFFE0
3FFFFFFFFFFFC007FFFFE0
3FFFFFFFFFFFC007FFFFE0
3FFFFFFFFFFFC007FFFFE0
1FFFFFFFFFFFC007FFFFE0
1FFFFFFFFFFFC007FFFFE0
0FFFFFFFFFFFC007FFFFE0
07FFFFFFFFFFC007FFFFE0
03FFFFFFFFFFC007FFFFE0
01FFFFFFFFFFC007FFFFE0
00FFFFFFFFFFC007FFFFE0
007FFFFFFFFFC007FFFFE0
001FFFFFFFFF8007FFFFE0
0003FFFFFFFF8007FFFFE0
00001FFFFFFE0007FFFFE0
0000000000000007FFFFE0
0000000000000007FFFFE0
0000000000000007FFFFE0
0000000000000007FFFFE0
0000000000000007FFFFE0
0000000000000007FFFFE0
0000000000000007FFFFE0
0000000000000007FFFFE0
0000000000000007FFFFE0
0000000000000007FFFFE0
0000000000000007FFFFE0
0000000000000007FFFFE0
0000000000000007FFFFE0
0000000000000007FFFFE0
0000000000000007FFFFE0
0000000000000007FFFFE0
0000000000000007FFFFE0
0000000000000007FFFFE0
0000000000000007FFFFE0
0000000000000007FFFFE0
0000000000000007FFFFE0
0000000000000007FFFFE0
0000000000000007FFFFE0
0000000000000007FFFFE0
0000000000000007FFFFE0
0000000000000007FFFFE0
0000000000000007FFFFE0
0000000000000007FFFFE0
0000000000000007FFFFE0
0000000000000007FFFFE0
0000000000000007FFFFE0
0000000000000007FFFFE0
0000000000000007FFFFE0
0000000000000007FFFFE0
0000000000000007FFFFE0
0000000000000007FFFFE0
0000000000000007FFFFE0
0000000000000007FFFFE0
0000000000000007FFFFE0
0000000000000007FFFFE0
0000000000000007FFFFE0
0000000000000007FFFFE0
0000000000000007FFFFE0
0000000000000007FFFFE0
0000000000000007FFFFE0
0000000000000007FFFFE0
0000000000000007FFFFE0
0000000000000007FFFFE0
0000000000000007FFFFE0
0000000000000007FFFFE0
0000000000000007FFFFE0
0000000000000007FFFFE0
0000000000000007FFFFE0
0000000000000007FFFFE0
0000000000000007FFFFE0
0000000000000007FFFFE0
0000000000000007FFFFE0
0000000000000007FFFFE0
0000000000000007FFFFE0
0000000000000007FFFFE0
0000000000000007FFFFE0
000000000000000FFFFFE0
000000000000000FFFFFE0
000000000000000FFFFFE0
000000000000000FFFFFE0
000000000000001FFFFFE0
000000000000001FFFFFE0
000000000000003FFFFFE0
00000000000000FFFFFFE0
00000000000003FFFFFFC0
0FFFFFFFFFFFFFFFFFFFC0
0FFFFFFFFFFFFFFFFFFFC0
07FFFFFFFFFFFFFFFFFFC0
07FFFFFFFFFFFFFFFFFF80
07FFFFFFFFFFFFFFFFFF80
03FFFFFFFFFFFFFFFFFF00
03FFFFFFFFFFFFFFFFFF00
03FFFFFFFFFFFFFFFFFE00
01FFFFFFFFFFFFFFFFFE00
01FFFFFFFFFFFFFFFFFC00
00FFFFFFFFFFFFFFFFF800
007FFFFFFFFFFFFFFFF000
003FFFFFFFFFFFFFFFC000
001FFFFFFFFFFFFFFF0000
0007FFFFFFFFFFFFF80000
0000FFFFFFFFFFFF000000
ENDCHAR
STARTCHAR 003A
ENCODING 58
SWIDTH 219 0
DWIDTH 61 0
BBX 25 125 18 0
BITMAP
FFFFF800
FFFFFE00
FFFFFF00
FFFFFF00
FFFFFF80
FFFFFF80
FFFFFF80
FFFFFF80
FFFFFF80
FFFFFF80
FFFFFF80
FFFFFF80
FFFFFF80
FFFFFF80
FFFFFF80
FFFFFF80
FFFFFF80
7FFFFF80
7FFFFF80
7FFFFF80
3FFFFF80
0FFFFF80
00000000
00000000
00000000
00000000
00000000
00000000
00000000
00000000
00000000
00000000
00000000
00000000
00000000
00000000
00000000
00000000
00000000
00000000
00000000
00000000
00000000
00000000
00000000
00000000
00000000
00000000
00000000
00000000
00000000
00000000
00000000
00000000
00000000
00000000
00000000
00000000
00000000
00000000
00000000
00000000
00000000
00000000
00000000
00000000
00000000
00000000
00000000
00000000
00000000
00000000
00000000
00000000
00000000
00000000
00000000
00000000
00000000
00000000
00000000
00000000
00000000
00000000
00000000
00000000
00000000
00000000
00000000
00000000
00000000
00000000
00000000
00000000
00000000
00000000
00000000
00000000
00000000
00000000
00000000
00000000
00000000
FFFFF800
FFFFFE00
FFFFFF00
FFFFFF00
FFFFFF80
FFFFFF80
FFFFFF80
FFFFFF80
FFFFFF80
FFFFFF80
FFFFFF80
FFFFFF80
FFFFFF80
FFFFFF80
FFFFFF80
FFFFFF80
FFFFFF80
7FFFFF80
7FFFFF80
7FFFFF80
3FFFFF80
0FFFFF80
ENDCHAR
STARTCHAR 003B
ENCODING 59
SWIDTH 219 0
DWIDTH 61 0
BBX 25 163 18 -38
BITMAP
FFFFF800
FFFFFE00
FFFFFF00
FFFFFF00
FFFFFF00
FFFFFF00
FFFFFF80
FFFFFF80
FFFFFF80
FFFFFF80
FFFFFF80
FFFFFF80
FFFFFF80
FFFFFF80
FFFFFF80
FFFFFF80
FFFFFF80
FFFFFF80
7FFFFF80
7FFFFF80
3FFFFF80
1FFFFF80
00000000
00000000
00000000
00000000
00000000
00000000
00000000
00000000
00000000
00000000
00000000
00000000
00000000
00000000
00000000
00000000
00000000
00000000
00000000
00000000
00000000
00000000
00000000
00000000
00000000
00000000
00000000
00000000
00000000
00000000
00000000
00000000
00000000
00000000
00000000
00000000
00000000
00000000
00000000
00000000
00000000
00000000
00000000
00000000
00000000
00000000
00000000
00000000
00000000
00000000
00000000
00000000
00000000
00000000
00000000
00000000
00000000
00000000
00000000
00000000
00000000
00000000
00000000
00000000
00000000
00000000
00000000
00000000
00000000
00000000
00000000
00000000
00000000
00000000
00000000
00000000
00000000
00000000
00000000
00000000
00000000
FFFFF800
FFFFFE00
FFFFFF00
FFFFFF00
FFFFFF00
FFFFFF00
FFFFFF80
FFFFFF80
FFFFFF80
FFFFFF80
FFFFFF80
FFFFFF80
FFFFFF80
FFFFFF80
FFFFFF80
FFFFFF80
FFFFFF80
FFFFFF80
7FFFFF80
7FFFFF80
3FFFFF80
1FFFFF80
00FFFF80
00FFFF80
00FFFF80
00FFFF80
00FFFF80
00FFFF80
00FFFF80
00FFFF80
00FFFF80
00FFFF80
00FFFF80
00FFFF00
00FFFF00
00FFFF00
00FFFF00
00FFFF00
00FFFF00
00FFFF00
00FFFF00
00FFFE00
00FFFE00
00FFFE00
00FFFC00
00FFFC00
00FFFC00
00FFF800
00FFF800
00FFF000
00FFF000
00FFE000
00FFE000
00FFC000
00FF8000
00FF0000
00FE0000
00FC0000
00F00000
00C00000
ENDCHAR
STARTCHAR 003C
ENCODING 60
SWIDTH 349 0
DWIDTH 97 0
BBX 69 123 12 35
BITMAP
000000000000001000
000000000000003800
000000000000007C00
00000000000000FE00
00000000000001FF00
00000000000003FF80
00000000000007FFC0
0000000000000FFFE0
0000000000001FFFF0
0000000000003FFFF0
0000000000007FFFF8
000000000000FFFFF8
000000000001FFFFF8
000000000003FFFFF0
000000000007FFFFF0
00000000000FFFFFE0
00000000001FFFFFC0
00000000003FFFFF80
00000000007FFFFF00
0000000000FFFFFE00
0000000001FFFFFC00
0000000003FFFFF800
0000000007FFFFF000
000000000FFFFFE000
000000001FFFFFC000
000000003FFFFF8000
000000007FFFFF0000
00000000FFFFFE0000
00000001FFFFFC0000
00000003FFFFF80000
00000007FFFFF00000
0000000FFFFFE00000
0000001FFFFFC00000
0000003FFFFF800000
0000007FFFFF000000
000000FFFFFE000000
000001FFFFFC000000
000003FFFFF8000000
000007FFFFF0000000
00000FFFFFE0000000
00001FFFFFC0000000
00003FFFFF80000000
00007FFFFF00000000
0000FFFFFE00000000
0001FFFFFC00000000
0003FFFFF800000000
0007FFFFF000000000
000FFFFFE000000000
001FFFFFC000000000
003FFFFF8000000000
007FFFFF0000000000
00FFFFFE0000000000
01FFFFFC0000000000
03FFFFF80000000000
07FFFFF00000000000
0FFFFFE00000000000
1FFFFFC00000000000
3FFFFF800000000000
7FFFFF000000000000
FFFFFE000000000000
FFFFFC000000000000
FFFFF8000000000000
FFFFFC000000000000
7FFFFE000000000000
7FFFFF000000000000
3FFFFF800000000000
1FFFFFC00000000000
0FFFFFE00000000000
07FFFFF00000000000
03FFFFF80000000000
01FFFFFC0000000000
00FFFFFE0000000000
007FFFFF0000000000
003FFFFF8000000000
001FFFFFC000000000
000FFFFFE000000000
0007FFFFF000000000
0003FFFFF800000000
0001FFFFFC00000000
0000FFFFFE00000000
00007FFFFF00000000
00003FFFFF80000000
00001FFFFFC0000000
00000FFFFFE0000000
000007FFFFF0000000
000003FFFFF8000000
000001FFFFFC000000
000000FFFFFE000000
0000007FFFFF000000
0000003FFFFF800000
0000001FFFFFC00000
0000000FFFFFE00000
00000007FFFFF00000
00000003FFFFF80000
00000001FFFFFC0000
00000000FFFFFE0000
000000007FFFFF0000
000000003FFFFF8000
000000001FFFFFC000
000000000FFFFFE000
0000000007FFFFF000
0000000003FFFFF800
0000000001FFFFFC00
0000000000FFFFFE00
00000000007FFFFF00
00000000003FFFFF80
00000000001FFFFFC0
00000000000FFFFFE0
000000000007FFFFF0
000000000003FFFFF0
000000000001FFFFF8
000000000000FFFFF8
0000000000007FFFF8
0000000000003FFFF8
0000000000001FFFF0
0000000000000FFFE0
00000000000007FFC0
00000000000003FF80
00000000000001FF00
00000000000000FE00
000000000000007C00
000000000000003800
000000000000001000
ENDCHAR
STARTCHAR 003D
ENCODING 61
SWIDTH 435 0
DWIDTH 121 0
BBX 83 54 19 69
BITMAP
FFFFFFFFFFFFFFFFFFFF00
FFFFFFFFFFFFFFFFFFFFC0
FFFFFFFFFFFFFFFFFFFFC0
FFFFFFFFFFFFFFFFFFFFE0
FFFFFFFFFFFFFFFFFFFFE0
FFFFFFFFFFFFFFFFFFFFE0
FFFFFFFFFFFFFFFFFFFFE0
FFFFFFFFFFFFFFFFFFFFE0
FFFFFFFFFFFFFFFFFFFFE0
FFFFFFFFFFFFFFFFFFFFE0
FFFFFFFFFFFFFFFFFFFFE0
FFFFFFFFFFFFFFFFFFFFE0
FFFFFFFFFFFFFFFFFFFFE0
7FFFFFFFFFFFFFFFFFFFE0
7FFFFFFFFFFFFFFFFFFFE0
1FFFFFFFFFFFFFFFFFFFE0
0000000000000000000000
0000000000000000000000
0000000000000000000000
0000000000000000000000
0000000000000000000000
0000000000000000000000
0000000000000000000000
0000000000000000000000
0000000000000000000000
0000000000000000000000
0000000000000000000000
0000000000000000000000
0000000000000000000000
0000000000000000000000
0000000000000000000000
0000000000000000000000
0000000000000000000000
0000000000000000000000
0000000000000000000000
0000000000000000000000
0000000000000000000000
0000000000000000000000
FFFFFFFFFFFFFFFFFFFF00
FFFFFFFFFFFFFFFFFFFFC0
FFFFFFFFFFFFFFFFFFFFC0
FFFFFFFFFFFFFFFFFFFFE0
FFFFFFFFFFFFFFFFFFFFE0
FFFFFFFFFFFFFFFFFFFFE0
FFFFFFFFFFFFFFFFFFFFE0
FFFFFFFFFFFFFFFFFFFFE0
FFFFFFFFFFFFFFFFFFFFE0
FFFFFFFFFFFFFFFFFFFFE0
FFFFFFFFFFFFFFFFFFFFE0
FFFFFFFFFFFFFFFFFFFFE0
FFFFFFFFFFFFFFFFFFFFE0
7FFFFFFFFFFFFFFFFFFFE0
7FFFFFFFFFFFFFFFFFFFE0
1FFFFFFFFFFFFFFFFFFFE0
ENDCHAR
STARTCHAR 003E
ENCODING 62
SWIDTH 349 0
DWIDTH 97 0
BBX 69 123 16 35
BITMAP
004000000000000000
00E000000000000000
01F000000000000000
03F800000000000000
07FC00000000000000
0FFE00000000000000
1FFF00000000000000
3FFF80000000000000
7FFFC0000000000000
FFFFE0000000000000
FFFFF0000000000000
FFFFF8000000000000
FFFFFC000000000000
7FFFFE000000000000
7FFFFF000000000000
3FFFFF800000000000
1FFFFFC00000000000
0FFFFFE00000000000
07FFFFF00000000000
03FFFFF80000000000
01FFFFFC0000000000
00FFFFFE0000000000
007FFFFF0000000000
003FFFFF8000000000
001FFFFFC000000000
000FFFFFE000000000
0007FFFFF000000000
0003FFFFF800000000
0001FFFFFC00000000
0000FFFFFE00000000
00007FFFFF00000000
00003FFFFF80000000
00001FFFFFC0000000
00000FFFFFE0000000
000007FFFFF0000000
000003FFFFF8000000
000001FFFFFC000000
000000FFFFFE000000
0000007FFFFF000000
0000003FFFFF800000
0000001FFFFFC00000
0000000FFFFFE00000
00000007FFFFF00000
00000003FFFFF80000
00000001FFFFFC0000
00000000FFFFFE0000
000000007FFFFF0000
000000003FFFFF8000
000000001FFFFFC000
000000000FFFFFE000
0000000007FFFFF000
0000000003FFFFF800
0000000001FFFFFC00
0000000000FFFFFE00
00000000007FFFFF00
00000000003FFFFF80
00000000001FFFFFC0
00000000000FFFFFE0
000000000007FFFFF0
000000000003FFFFF0
000000000001FFFFF8
000000000000FFFFF8
000000000001FFFFF8
000000000003FFFFF0
000000000007FFFFF0
00000000000FFFFFE0
00000000001FFFFFC0
00000000003FFFFF80
00000000007FFFFF00
0000000000FFFFFE00
0000000001FFFFFC00
0000000003FFFFF800
0000000007FFFFF000
000000000FFFFFE000
000000001FFFFFC000
000000003FFFFF8000
000000007FFFFF0000
00000000FFFFFE0000
00000001FFFFFC0000
00000003FFFFF80000
00000007FFFFF00000
0000000FFFFFE00000
0000001FFFFFC00000
0000003FFFFF800000
0000007FFFFF000000
000000FFFFFE000000
000001FFFFFC000000
000003FFFFF8000000
000007FFFFF0000000
00000FFFFFE0000000
00001FFFFFC0000000
00003FFFFF80000000
00007FFFFF00000000
0000FFFFFE00000000
0001FFFFFC00000000
0003FFFFF800000000
0007FFFFF000000000
000FFFFFE000000000
001FFFFFC000000000
003FFFFF8000000000
007FFFFF0000000000
00FFFFFE0000000000
01FFFFFC0000000000
03FFFFF80000000000
07FFFFF00000000000
0FFFFFE00000000000
1FFFFFC00000000000
3FFFFF800000000000
7FFFFF000000000000
7FFFFE000000000000
FFFFFC000000000000
FFFFF8000000000000
FFFFF0000000000000
FFFFE0000000000000
7FFFC0000000000000
3FFF80000000000000
1FFF00000000000000
0FFE00000000000000
07FC00000000000000
03F800000000000000
01F000000000000000
00E000000000000000
004000000000000000
ENDCHAR
STARTCHAR 003F
ENCODING 63
SWIDTH 378 0
DWIDTH 105 0
BBX 76 195 14 0
BITMAP
001FFFFFFFFFFF800000
00FFFFFFFFFFFFFC0000
03FFFFFFFFFFFFFF8000
07FFFFFFFFFFFFFFE000
0FFFFFFFFFFFFFFFF800
0FFFFFFFFFFFFFFFFC00
1FFFFFFFFFFFFFFFFE00
3FFFFFFFFFFFFFFFFF00
3FFFFFFFFFFFFFFFFF00
3FFFFFFFFFFFFFFFFF80
7FFFFFFFFFFFFFFFFF80
7FFFFFFFFFFFFFFFFFC0
FFFFFFFFFFFFFFFFFFC0
FFFFFFFFFFFFFFFFFFE0
FFFFFFFFFFFFFFFFFFE0
FFFFFFFFFFFFFFFFFFE0
000000000003FFFFFFE0
0000000000007FFFFFF0
0000000000001FFFFFF0
0000000000000FFFFFF0
0000000000000FFFFFF0
00000000000007FFFFF0
00000000000007FFFFF0
00000000000007FFFFF0
00000000000003FFFFF0
00000000000003FFFFF0
00000000000003FFFFF0
00000000000003FFFFF0
00000000000003FFFFF0
00000000000003FFFFF0
00000000000003FFFFF0
00000000000003FFFFF0
00000000000003FFFFF0
00000000000003FFFFF0
00000000000003FFFFF0
00000000000003FFFFF0
00000000000003FFFFF0
00000000000003FFFFF0
00000000000003FFFFF0
00000000000003FFFFF0
00000000000003FFFFF0
00000000000003FFFFF0
00000000000003FFFFF0
00000000000003FFFFF0
00000000000003FFFFF0
00000000000003FFFFF0
00000000000003FFFFF0
00000000000003FFFFF0
00000000000003FFFFF0
00000000000003FFFFF0
00000000000003FFFFF0
00000000000003FFFFF0
00000000000003FFFFF0
00000000000003FFFFF0
00000000000003FFFFF0
00000000000003FFFFF0
00000000000003FFFFF0
00000000000003FFFFF0
00000000000003FFFFF0
00000000000003FFFFF0
00000000000003FFFFF0
00000000000003FFFFF0
00000000000003FFFFF0
00000000000003FFFFF0
00000000000003FFFFF0
00000000000003FFFFF0
00000000000003FFFFF0
00000000000003FFFFF0
00000000000003FFFFF0
00000000000003FFFFF0
00000000000003FFFFF0
00000000000003FFFFF0
00000000000003FFFFF0
00000000000007FFFFF0
00000000000007FFFFF0
00000000000007FFFFF0
0000000000000FFFFFF0
0000000000000FFFFFF0
0000000000001FFFFFF0
0000000000007FFFFFF0
000000000001FFFFFFE0
00000000FFFFFFFFFFE0
0000001FFFFFFFFFFFE0
000000FFFFFFFFFFFFE0
000003FFFFFFFFFFFFC0
00000FFFFFFFFFFFFFC0
00001FFFFFFFFFFFFF80
00003FFFFFFFFFFFFF80
00007FFFFFFFFFFFFF00
00007FFFFFFFFFFFFF00
0000FFFFFFFFFFFFFE00
0000FFFFFFFFFFFFFC00
0001FFFFFFFFFFFFF800
0001FFFFFFFFFFFFE000
0003FFFFFFFFFFFF8000
0003FFFFFFFFFFFC0000
0003FFFFFFFFFFC00000
0003FFFFFFE000000000
0007FFFFFF0000000000
0007FFFFFC0000000000
0007FFFFF80000000000
0007FFFFF80000000000
0007FFFFF00000000000
0007FFFFF00000000000
0007FFFFF00000000000
0007FFFFE00000000000
0007FFFFE00000000000
0007FFFFE00000000000
0007FFFFE00000000000
0007FFFFE00000000000
0007FFFFE00000000000
0007FFFFE00000000000
0007FFFFE00000000000
0007FFFFE00000000000
0007FFFFE00000000000
0007FFFFE00000000000
0007FFFFE00000000000
0007FFFFE00000000000
0007FFFFE00000000000
0007FFFFE00000000000
0007FFFFE00000000000
0007FFFFE00000000000
0007FFFFE00000000000
0007FFFFE00000000000
0007FFFFE00000000000
0007FFFFE00000000000
0007FFFFE00000000000
0007FFFFE00000000000
0007FFFFE00000000000
0007FFFFE00000000000
0007FFFFE00000000000
0007FFFFE00000000000
0007FFFFE00000000000
0007FFFFE00000000000
0007FFFFE00000000000
0007FFFFE00000000000
0007FFFFE00000000000
0007FFFFE00000000000
0007FFFFE00000000000
0007FFFFE00000000000
0007FFFFE00000000000
0007FFFFE00000000000
0007FFFFE00000000000
0007FFFFE00000000000
0007FFFFE00000000000
0007FFFFE00000000000
0007FFFFE00000000000
0007FFFFE00000000000
0007FFFFC00000000000
0007FFFFC00000000000
0007FFFF800000000000
0007FFFE000000000000
00000000000000000000
00000000000000000000
00000000000000000000
00000000000000000000
00000000000000000000
00000000000000000000
00000000000000000000
00000000000000000000
00000000000000000000
00000000000000000000
00000000000000000000
00000000000000000000
00000000000000000000
00000000000000000000
00000000000000000000
00000000000000000000
00000000000000000000
00000000000000000000
00000000000000000000
00000000000000000000
00000000000000000000
0007FFFFC00000000000
0007FFFFF00000000000
0007FFFFF00000000000
0007FFFFF80000000000
0007FFFFF80000000000
0007FFFFF80000000000
0007FFFFF80000000000
0007FFFFF80000000000
0007FFFFF80000000000
0007FFFFF80000000000
0007FFFFF80000000000
0007FFFFF80000000000
0007FFFFF80000000000
0007FFFFF80000000000
0007FFFFF80000000000
0007FFFFF80000000000
0007FFFFF80000000000
0007FFFFF80000000000
0007FFFFF80000000000
0007FFFFF80000000000
0003FFFFF80000000000
0000FFFFF80000000000
ENDCHAR
STARTCHAR 0040
ENCODING 64
SWIDTH 496 0
DWIDTH 138 0
BBX 103 138 18 0
BITMAP
00001FFFFFFFFFFFFFFFFC0000
0003FFFFFFFFFFFFFFFFFFC000
000FFFFFFFFFFFFFFFFFFFF800
003FFFFFFFFFFFFFFFFFFFFE00
00FFFFFFFFFFFFFFFFFFFFFF00
01FFFFFFFFFFFFFFFFFFFFFF80
03FFFFFFFFFFFFFFFFFFFFFFC0
07FFFFFFFFFFFFFFFFFFFFFFE0
0FFFFFFFFFFFFFFFFFFFFFFFF0
0FFFFFFFFFFFFFFFFFFFFFFFF0
1FFFFFFFFFFFFFFFFFFFFFFFF0
1FFFFFFFFFFFFFFFFFFFFFFFF8
3FFFFFFFFFFFFFFFFFFFFFFFF8
3FFFFFFFFFFFFFFFFFFFFFFFFC
3FFFFFFFFFFFFFFFFFFFFFFFFC
7FFFFFFFFFFFFFFFFFFFFFFFFC
7FFFFFF800000000001FFFFFFC
7FFFFFC0000000000003FFFFFC
7FFFFF00000000000001FFFFFC
7FFFFF00000000000000FFFFFE
7FFFFE000000000000007FFFFE
7FFFFE000000000000007FFFFE
FFFFFC000000000000003FFFFE
FFFFFC000000000000003FFFFE
FFFFFC000000000000003FFFFE
FFFFFC000000000000003FFFFE
FFFFF8000000000000003FFFFE
FFFFF8000000000000003FFFFE
FFFFF8000000000000001FFFFE
FFFFF8000000000000001FFFFE
FFFFF8000000000000001FFFFE
FFFFF8000000000000001FFFFE
FFFFF8000000000000001FFFFE
FFFFF8000000000000001FFFFE
FFFFF8000000000000001FFFFE
FFFFF8000000001FFFFFFFFFFE
FFFFF800000003FFFFFFFFFFFE
FFFFF80000001FFFFFFFFFFFFE
FFFFF80000007FFFFFFFFFFFFE
FFFFF8000000FFFFFFFFFFFFFE
FFFFF8000001FFFFFFFFFFFFFE
FFFFF8000003FFFFFFFFFFFFFE
FFFFF8000007FFFFFFFFFFFFFE
FFFFF800000FFFFFFFFFFFFFFE
FFFFF800001FFFFFFFFFFFFFFE
FFFFF800001FFFFFFFFFFFFFFE
FFFFF800003FFFFFFFFFFFFFFE
FFFFF800003FFFFFFFFFFFFFFE
FFFFF800003FFFFFFFFFFFFFFE
FFFFF800007FFFFFFFFFFFFFFE
FFFFF800007FFFFFFFFFFFFFFE
FFFFF800007FFFFFC0001FFFFE
FFFFF800007FFFFE00001FFFFE
FFFFF800007FFFFC00001FFFFE
FFFFF80000FFFFF800001FFFFE
FFFFF80000FFFFF800001FFFFE
FFFFF80000FFFFF000001FFFFE
FFFFF80000FFFFF000001FFFFE
FFFFF80000FFFFF000001FFFFE
FFFFF80000FFFFF000001FFFFE
FFFFF80000FFFFF000001FFFFE
FFFFF80000FFFFF000001FFFFE
FFFFF80000FFFFF000001FFFFE
FFFFF80000FFFFF000001FFFFE
FFFFF80000FFFFF000001FFFFE
FFFFF80000FFFFF000001FFFFE
FFFFF80000FFFFF000001FFFFE
FFFFF80000FFFFF000001FFFFE
FFFFF80000FFFFF000001FFFFE
FFFFF80000FFFFF000001FFFFE
FFFFF80000FFFFF000001FFFFE
FFFFF80000FFFFF000001FFFFE
FFFFF80000FFFFF000001FFFFE
FFFFF80000FFFFF000001FFFFE
FFFFF80000FFFFF000001FFFFE
FFFFF80000FFFFF000001FFFFE
FFFFF80000FFFFF000001FFFFE
FFFFF80000FFFFF000001FFFFE
FFFFF80000FFFFF000001FFFFE
FFFFF80000FFFFF000001FFFFE
FFFFF80000FFFFF000001FFFFE
FFFFF80000FFFFF800001FFFFE
FFFFF80000FFFFF800001FFFFE
FFFFF800007FFFFC00001FFFFE
FFFFF800007FFFFE00001FFFFE
FFFFF800007FFFFFC0001FFFFE
FFFFF800007FFFFFFFC01FFFFE
FFFFF800007FFFFFFFC01FFFFE
FFFFF800003FFFFFFFC01FFFFE
FFFFF800003FFFFFFFC01FFFFE
FFFFF800003FFFFFFFC01FFFFE
FFFFF800001FFFFFFFC01FFFFE
FFFFF800001FFFFFFFC01FFFFE
FFFFF800000FFFFFFFC01FFFFE
FFFFF8000007FFFFFFC01FFFFE
FFFFF8000003FFFFFFC01FFFFE
FFFFF8000001FFFFFFC01FFFFE
FFFFF8000000FFFFFFC01FFFFE
FFFFF80000007FFFFFC01FFFFE
FFFFF80000001FFFFF801FFFFE
FFFFF800000003FFFF800FFFFE
FFFFF8000000001FFE0003FFFE
FFFFF800000000000000000000
FFFFF800000000000000000000
FFFFF800000000000000000000
FFFFF800000000000000000000
FFFFF800000000000000000000
FFFFF800000000000000000000
FFFFF800000000000000000000
FFFFF800000000000000000000
FFFFF800000000000000000000
FFFFF800000000000000000000
FFFFFC00000000000000000000
FFFFFC00000000000000000000
FFFFFC00000000000000000000
FFFFFC00000000000000000000
7FFFFE00000000000000000000
7FFFFE00000000000000000000
7FFFFE00000000000000000000
7FFFFF00000000000000000000
7FFFFFC0000000000000000000
7FFFFFF8000000000000000000
7FFFFFFFFFFFFFFFFFFFFFFFF0
3FFFFFFFFFFFFFFFFFFFFFFFF0
3FFFFFFFFFFFFFFFFFFFFFFFF0
3FFFFFFFFFFFFFFFFFFFFFFFF0
1FFFFFFFFFFFFFFFFFFFFFFFF0
1FFFFFFFFFFFFFFFFFFFFFFFF0
0FFFFFFFFFFFFFFFFFFFFFFFF0
0FFFFFFFFFFFFFFFFFFFFFFFF0
07FFFFFFFFFFFFFFFFFFFFFFF0
03FFFFFFFFFFFFFFFFFFFFFFF0
01FFFFFFFFFFFFFFFFFFFFFFF0
00FFFFFFFFFFFFFFFFFFFFFFF0
003FFFFFFFFFFFFFFFFFFFFFF0
000FFFFFFFFFFFFFFFFFFFFFE0
0003FFFFFFFFFFFFFFFFFFFFE0
00001FFFFFFFFFFFFFFFFFFF80
ENDCHAR
STARTCHAR 0041
ENCODING 65
SWIDTH 478 0
DWIDTH 133 0
BBX 93 195 20 0
BITMAP
00001FFFFFFFFFFFFFC00000
0003FFFFFFFFFFFFFFFE0000
001FFFFFFFFFFFFFFFFFC000
007FFFFFFFFFFFFFFFFFF000
00FFFFFFFFFFFFFFFFFFF800
03FFFFFFFFFFFFFFFFFFFC00
07FFFFFFFFFFFFFFFFFFFE00
07FFFFFFFFFFFFFFFFFFFF00
0FFFFFFFFFFFFFFFFFFFFF80
1FFFFFFFFFFFFFFFFFFFFF80
1FFFFFFFFFFFFFFFFFFFFFC0
3FFFFFFFFFFFFFFFFFFFFFC0
3FFFFFFFFFFFFFFFFFFFFFE0
3FFFFFFFFFFFFFFFFFFFFFE0
7FFFFFFFFFFFFFFFFFFFFFE0
7FFFFFFFFFFFFFFFFFFFFFF0
7FFFFFFC00000001FFFFFFF0
7FFFFFE0000000007FFFFFF0
7FFFFFC0000000001FFFFFF0
FFFFFF80000000000FFFFFF0
FFFFFF000000000007FFFFF8
FFFFFF000000000007FFFFF8
FFFFFE000000000007FFFFF8
FFFFFE000000000003FFFFF8
FFFFFE000000000003FFFFF8
FFFFFE000000000003FFFFF8
FFFFFE000000000003FFFFF8
FFFFFC000000000003FFFFF8
FFFFFC000000000003FFFFF8
FFFFFC000000000001FFFFF8
FFFFFC000000000001FFFFF8
FFFFFC000000000001FFFFF8
FFFFFC000000000001FFFFF8
FFFFFC000000000001FFFFF8
FFFFFC000000000001FFFFF8
FFFFFC000000000001FFFFF8
FFFFFC000000000001FFFFF8
FFFFFC000000000001FFFFF8
FFFFFC000000000001FFFFF8
FFFFFC000000000001FFFFF8
FFFFFC000000000001FFFFF8
FFFFFC000000000001FFFFF8
FFFFFC000000000001FFFFF8
FFFFFC000000000001FFFFF8
FFFFFC000000000001FFFFF8
FFFFFC000000000001FFFFF8
FFFFFC000000000001FFFFF8
FFFFFC000000000001FFFFF8
FFFFFC000000000001FFFFF8
FFFFFC000000000001FFFFF8
FFFFFC000000000001FFFFF8
FFFFFC000000000001FFFFF8
FFFFFC000000000001FFFFF8
FFFFFC000000000001FFFFF8
FFFFFC000000000001FFFFF8
FFFFFC000000000001FFFFF8
FFFFFC000000000001FFFFF8
FFFFFC000000000001FFFFF8
FFFFFC000000000001FFFFF8
FFFFFC000000000001FFFFF8
FFFFFC000000000001FFFFF8
FFFFFC000000000001FFFFF8
FFFFFC000000000001FFFFF8
FFFFFC000000000001FFFFF8
FFFFFC000000000001FFFFF8
FFFFFC000000000001FFFFF8
FFFFFC000000000001FFFFF8
FFFFFC000000000001FFFFF8
FFFFFC000000000001FFFFF8
FFFFFC000000000001FFFFF8
FFFFFC000000000001FFFFF8
FFFFFC000000000001FFFFF8
FFFFFC000000000001FFFFF8
FFFFFC000000000001FFFFF8
FFFFFC000000000001FFFFF8
FFFFFC000000000001FFFFF8
FFFFFC000000000001FFFFF8
FFFFFC000000000001FFFFF8
FFFFFC000000000001FFFFF8
FFFFFC000000000001FFFFF8
FFFFFC000000000001FFFFF8
FFFFFC000000000001FFFFF8
FFFFFC000000000001FFFFF8
FFFFFC000000000001FFFFF8
FFFFFC000000000001FFFFF8
FFFFFC000000000001FFFFF8
FFFFFFFFFFFFFFF001FFFFF8
FFFFFFFFFFFFFFF001FFFFF8
FFFFFFFFFFFFFFF001FFFFF8
FFFFFFFFFFFFFFF001FFFFF8
FFFFFFFFFFFFFFF001FFFFF8
FFFFFFFFFFFFFFF001FFFFF8
FFFFFFFFFFFFFFF001FFFFF8
FFFFFFFFFFFFFFF001FFFFF8
FFFFFFFFFFFFFFF001FFFFF8
FFFFFFFFFFFFFFE001FFFFF8
FFFFFFFFFFFFFFE001FFFFF8
FFFFFFFFFFFFFFE001FFFFF8
FFFFFFFFFFFFFFE001FFFFF8
FFFFFFFFFFFFFFE001FFFFF8
FFFFFFFFFFFFFFC001FFFFF8
FFFFFFFFFFFFFF8001FFFFF8
FFFFFC000000000001FFFFF8
FFFFFC000000000001FFFFF8
FFFFFC000000000001FFFFF8
FFFFFC000000000001FFFFF8
FFFFFC000000000001FFFFF8
FFFFFC000000000001FFFFF8
FFFFFC000000000001FFFFF8
FFFFFC000000000001FFFFF8
FFFFFC000000000001FFFFF8
FFFFFC000000000001FFFFF8
FFFFFC000000000001FFFFF8
FFFFFC000000000001FFFFF8
FFFFFC000000000001FFFFF8
FFFFFC000000000001FFFFF8
FFFFFC000000000001FFFFF8
FFFFFC000000000001FFFFF8
FFFFFC000000000001FFFFF8
FFFFFC000000000001FFFFF8
FFFFFC000000000001FFFFF8
FFFFFC000000000001FFFFF8
FFFFFC000000000001FFFFF8
FFFFFC000000000001FFFFF8
FFFFFC000000000001FFFFF8
FFFFFC000000000001FFFFF8
FFFFFC000000000001FFFFF8
FFFFFC000000000001FFFFF8
FFFFFC000000000001FFFFF8
FFFFFC000000000001FFFFF8
FFFFFC000000000001FFFFF8
FFFFFC000000000001FFFFF8
FFFFFC000000000001FFFFF8
FFFFFC000000000001FFFFF8
FFFFFC000000000001FFFFF8
FFFFFC000000000001FFFFF8
FFFFFC000000000001FFFFF8
FFFFFC000000000001FFFFF8
FFFFFC000000000001FFFFF8
FFFFFC000000000001FFFFF8
FFFFFC000000000001FFFFF8
FFFFFC000000000001FFFFF8
FFFFFC000000000001FFFFF8
FFFFFC000000000001FFFFF8
FFFFFC000000000001FFFFF8
FFFFFC000000000001FFFFF8
FFFFFC000000000001FFFFF8
FFFFFC000000000001FFFFF8
FFFFFC000000000001FFFFF8
FFFFFC000000000001FFFFF8
FFFFFC000000000001FFFFF8
FFFFFC000000000001FFFFF8
FFFFFC000000000001FFFFF8
FFFFFC000000000001FFFFF8
FFFFFC000000000001FFFFF8
FFFFFC000000000001FFFFF8
FFFFFC000000000001FFFFF8
FFFFFC000000000001FFFFF8
FFFFFC000000000001FFFFF8
FFFFFC000000000001FFFFF8
FFFFFC000000000001FFFFF8
FFFFFC000000000001FFFFF8
FFFFFC000000000001FFFFF8
FFFFFC000000000001FFFFF8
FFFFFC000000000001FFFFF8
FFFFFC000000000001FFFFF8
FFFFFC000000000001FFFFF8
FFFFFC000000000001FFFFF8
FFFFFC000000000001FFFFF8
FFFFFC000000000001FFFFF8
FFFFFC000000000001FFFFF8
FFFFFC000000000001FFFFF8
FFFFFC000000000001FFFFF8
FFFFFC000000000001FFFFF8
FFFFFC000000000001FFFFF8
FFFFFC000000000001FFFFF8
FFFFFC000000000001FFFFF8
FFFFFC000000000001FFFFF8
FFFFFC000000000001FFFFF8
FFFFFC000000000001FFFFF8
FFFFFC000000000001FFFFF8
FFFFFC000000000001FFFFF8
FFFFFC000000000001FFFFF8
FFFFFC000000000001FFFFF8
FFFFFC000000000001FFFFF8
FFFFFC000000000001FFFFF8
FFFFFC000000000001FFFFF8
FFFFFC000000000001FFFFF8
FFFFFC000000000001FFFFF8
FFFFFC000000000001FFFFF8
FFFFFC000000000001FFFFF8
FFFFFC000000000001FFFFF0
FFFFF8000000000001FFFFF0
FFFFF8000000000001FFFFE0
FFFFE0000000000001FFFF80
ENDCHAR
STARTCHAR 0042
ENCODING 66
SWIDTH 464 0
DWIDTH 129 0
BBX 90 195 20 0
BITMAP
1FFFFFFFFFFFFFFFFE000000
3FFFFFFFFFFFFFFFFFF00000
7FFFFFFFFFFFFFFFFFFE0000
FFFFFFFFFFFFFFFFFFFF8000
FFFFFFFFFFFFFFFFFFFFC000
FFFFFFFFFFFFFFFFFFFFF000
FFFFFFFFFFFFFFFFFFFFF800
FFFFFFFFFFFFFFFFFFFFF800
FFFFFFFFFFFFFFFFFFFFFC00
FFFFFFFFFFFFFFFFFFFFFE00
FFFFFFFFFFFFFFFFFFFFFE00
FFFFFFFFFFFFFFFFFFFFFF00
FFFFFFFFFFFFFFFFFFFFFF00
FFFFFFFFFFFFFFFFFFFFFF00
FFFFFFFFFFFFFFFFFFFFFF80
FFFFFFFFFFFFFFFFFFFFFF80
FFFFFC000000000FFFFFFF80
FFFFFC0000000001FFFFFF80
FFFFFC00000000007FFFFFC0
FFFFFC00000000003FFFFFC0
FFFFFC00000000003FFFFFC0
FFFFFC00000000003FFFFFC0
FFFFFC00000000001FFFFFC0
FFFFFC00000000001FFFFFC0
FFFFFC00000000001FFFFFC0
FFFFFC00000000001FFFFFC0
FFFFFC00000000000FFFFFC0
FFFFFC00000000000FFFFFC0
FFFFFC00000000000FFFFFC0
FFFFFC00000000000FFFFFC0
FFFFFC00000000000FFFFFC0
FFFFFC00000000000FFFFFC0
FFFFFC00000000000FFFFFC0
FFFFFC00000000000FFFFFC0
FFFFFC00000000000FFFFFC0
FFFFFC00000000000FFFFFC0
FFFFFC00000000000FFFFFC0
FFFFFC00000000000FFFFFC0
FFFFFC00000000000FFFFFC0
FFFFFC00000000000FFFFFC0
FFFFFC00000000000FFFFFC0
FFFFFC00000000000FFFFFC0
FFFFFC00000000000FFFFFC0
FFFFFC00000000000FFFFFC0
FFFFFC00000000000FFFFFC0
FFFFFC00000000000FFFFFC0
FFFFFC00000000000FFFFFC0
FFFFFC00000000000FFFFFC0
FFFFFC00000000000FFFFFC0
FFFFFC00000000000FFFFFC0
FFFFFC00000000000FFFFFC0
FFFFFC00000000000FFFFFC0
FFFFFC00000000000FFFFFC0
FFFFFC00000000000FFFFFC0
FFFFFC00000000000FFFFFC0
FFFFFC00000000000FFFFFC0
FFFFFC00000000000FFFFFC0
FFFFFC00000000000FFFFFC0
FFFFFC00000000000FFFFFC0
FFFFFC00000000000FFFFFC0
FFFFFC00000000000FFFFFC0
FFFFFC00000000000FFFFFC0
FFFFFC00000000000FFFFFC0
FFFFFC00000000000FFFFFC0
FFFFFC00000000000FFFFFC0
FFFFFC00000000000FFFFFC0
FFFFFC00000000000FFFFFC0
FFFFFC00000000000FFFFFC0
FFFFFC00000000000FFFFFC0
FFFFFC00000000000FFFFFC0
FFFFFC00000000000FFFFFC0
FFFFFC00000000000FFFFFC0
FFFFFC00000000000FFFFFC0
FFFFFC00000000000FFFFFC0
FFFFFC00000000000FFFFFC0
FFFFFC00000000000FFFFF80
FFFFFC00000000001FFFFF80
FFFFFC00000000001FFFFF80
FFFFFC00000000001FFFFF80
FFFFFC00000000001FFFFF00
FFFFFC00000000003FFFFF00
FFFFFC00000000003FFFFF00
FFFFFC00000000007FFFFE00
FFFFFC0000000000FFFFFE00
FFFFFC0000000001FFFFFC00
FFFFFC000000000FFFFFF800
FFFFFFFFFFFFFFFFFFFFF800
FFFFFFFFFFFFFFFFFFFFF000
FFFFFFFFFFFFFFFFFFFFE000
FFFFFFFFFFFFFFFFFFFF8000
FFFFFFFFFFFFFFFFFFFE0000
FFFFFFFFFFFFFFFFFFF80000
FFFFFFFFFFFFFFFFFFE00000
FFFFFFFFFFFFFFFFFFF80000
FFFFFFFFFFFFFFFFFFFE0000
FFFFFFFFFFFFFFFFFFFF8000
FFFFFFFFFFFFFFFFFFFFE000
FFFFFFFFFFFFFFFFFFFFF000
FFFFFFFFFFFFFFFFFFFFF800
FFFFFFFFFFFFFFFFFFFFFC00
FFFFFFFFFFFFFFFFFFFFFC00
FFFFFFFFFFFFFFFFFFFFFE00
FFFFFC000000000FFFFFFE00
FFFFFC0000000001FFFFFF00
FFFFFC00000000007FFFFF00
FFFFFC00000000003FFFFF80
FFFFFC00000000003FFFFF80
FFFFFC00000000003FFFFF80
FFFFFC00000000001FFFFF80
FFFFFC00000000001FFFFF80
FFFFFC00000000001FFFFFC0
FFFFFC00000000001FFFFFC0
FFFFFC00000000000FFFFFC0
FFFFFC00000000000FFFFFC0
FFFFFC00000000000FFFFFC0
FFFFFC00000000000FFFFFC0
FFFFFC00000000000FFFFFC0
FFFFFC00000000000FFFFFC0
FFFFFC00000000000FFFFFC0
FFFFFC00000000000FFFFFC0
FFFFFC00000000000FFFFFC0
FFFFFC00000000000FFFFFC0
FFFFFC00000000000FFFFFC0
FFFFFC00000000000FFFFFC0
FFFFFC00000000000FFFFFC0
FFFFFC00000000000FFFFFC0
FFFFFC00000000000FFFFFC0
FFFFFC00000000000FFFFFC0
FFFFFC00000000000FFFFFC0
FFFFFC00000000000FFFFFC0
FFFFFC00000000000FFFFFC0
FFFFFC00000000000FFFFFC0
FFFFFC00000000000FFFFFC0
FFFFFC00000000000FFFFFC0
FFFFFC00000000000FFFFFC0
FFFFFC00000000000FFFFFC0
FFFFFC00000000000FFFFFC0
FFFFFC00000000000FFFFFC0
FFFFFC00000000000FFFFFC0
FFFFFC00000000000FFFFFC0
FFFFFC00000000000FFFFFC0
FFFFFC00000000000FFFFFC0
FFFFFC00000000000FFFFFC0
FFFFFC00000000000FFFFFC0
FFFFFC00000000000FFFFFC0
FFFFFC00000000000FFFFFC0
FFFFFC00000000000FFFFFC0
FFFFFC00000000000FFFFFC0
FFFFFC00000000000FFFFFC0
FFFFFC00000000000FFFFFC0
FFFFFC00000000000FFFFFC0
FFFFFC00000000000FFFFFC0
FFFFFC00000000000FFFFFC0
FFFFFC00000000000FFFFFC0
FFFFFC00000000000FFFFFC0
FFFFFC00000000000FFFFFC0
FFFFFC00000000000FFFFFC0
FFFFFC00000000000FFFFFC0
FFFFFC00000000000FFFFFC0
FFFFFC00000000000FFFFFC0
FFFFFC00000000000FFFFFC0
FFFFFC00000000000FFFFFC0
FFFFFC00000000000FFFFFC0
FFFFFC00000000000FFFFFC0
FFFFFC00000000000FFFFFC0
FFFFFC00000000000FFFFFC0
FFFFFC00000000000FFFFFC0
FFFFFC00000000000FFFFFC0
FFFFFC00000000000FFFFFC0
FFFFFC00000000001FFFFFC0
FFFFFC00000000001FFFFFC0
FFFFFC00000000001FFFFFC0
FFFFFC00000000001FFFFFC0
FFFFFC00000000003FFFFFC0
FFFFFC00000000003FFFFFC0
FFFFFC00000000003FFFFFC0
FFFFFC00000000007FFFFFC0
FFFFFC0000000001FFFFFF80
FFFFFC000000000FFFFFFF80
FFFFFC007FFFFFFFFFFFFF80
FFFFFC007FFFFFFFFFFFFF80
FFFFFC007FFFFFFFFFFFFF00
FFFFFC007FFFFFFFFFFFFF00
FFFFFC007FFFFFFFFFFFFF00
FFFFFC007FFFFFFFFFFFFE00
FFFFFC007FFFFFFFFFFFFE00
FFFFFC007FFFFFFFFFFFFC00
FFFFFC007FFFFFFFFFFFF800
FFFFFC007FFFFFFFFFFFF800
FFFFFC007FFFFFFFFFFFF000
FFFFFC003FFFFFFFFFFFC000
FFFFFC003FFFFFFFFFFF8000
FFFFFC003FFFFFFFFFFE0000
FFFFFC001FFFFFFFFFF00000
FFFFFC000FFFFFFFFE000000
ENDCHAR
STARTCHAR 0043
ENCODING 67
SWIDTH 388 0
DWIDTH 108 0
BBX 79 195 19 0
BITMAP
00001FFFFFFFFFFFF000
0001FFFFFFFFFFFFFE00
000FFFFFFFFFFFFFFF80
003FFFFFFFFFFFFFFFC0
00FFFFFFFFFFFFFFFFE0
01FFFFFFFFFFFFFFFFE0
03FFFFFFFFFFFFFFFFF0
07FFFFFFFFFFFFFFFFF8
0FFFFFFFFFFFFFFFFFF8
0FFFFFFFFFFFFFFFFFF8
1FFFFFFFFFFFFFFFFFFC
1FFFFFFFFFFFFFFFFFFC
3FFFFFFFFFFFFFFFFFFE
3FFFFFFFFFFFFFFFFFFE
3FFFFFFFFFFFFFFFFFFE
3FFFFFFFFFFFFFFFFFFE
7FFFFFFC000000000000
7FFFFFE0000000000000
7FFFFFC0000000000000
7FFFFF80000000000000
7FFFFF00000000000000
7FFFFF00000000000000
7FFFFF00000000000000
FFFFFE00000000000000
FFFFFE00000000000000
FFFFFE00000000000000
FFFFFE00000000000000
FFFFFE00000000000000
FFFFFE00000000000000
FFFFFE00000000000000
FFFFFE00000000000000
FFFFFE00000000000000
FFFFFE00000000000000
FFFFFE00000000000000
FFFFFE00000000000000
FFFFFE00000000000000
FFFFFE00000000000000
FFFFFE00000000000000
FFFFFE00000000000000
FFFFFE00000000000000
FFFFFE00000000000000
FFFFFE00000000000000
FFFFFE00000000000000
FFFFFE00000000000000
FFFFFE00000000000000
FFFFFE00000000000000
FFFFFE00000000000000
FFFFFE00000000000000
FFFFFE00000000000000
FFFFFE00000000000000
FFFFFE00000000000000
FFFFFE00000000000000
FFFFFE00000000000000
FFFFFE00000000000000
FFFFFE00000000000000
FFFFFE00000000000000
FFFFFE00000000000000
FFFFFE00000000000000
FFFFFE00000000000000
FFFFFE00000000000000
FFFFFE00000000000000
FFFFFE00000000000000
FFFFFE00000000000000
FFFFFE00000000000000
FFFFFE00000000000000
FFFFFE00000000000000
FFFFFE00000000000000
FFFFFE00000000000000
FFFFFE00000000000000
FFFFFE00000000000000
FFFFFE00000000000000
FFFFFE00000000000000
FFFFFE00000000000000
FFFFFE00000000000000
FFFFFE00000000000000
FFFFFE00000000000000
FFFFFE00000000000000
FFFFFE00000000000000
FFFFFE00000000000000
FFFFFE00000000000000
FFFFFE00000000000000
FFFFFE00000000000000
FFFFFE00000000000000
FFFFFE00000000000000
FFFFFE00000000000000
FFFFFE00000000000000
FFFFFE00000000000000
FFFFFE00000000000000
FFFFFE00000000000000
FFFFFE00000000000000
FFFFFE00000000000000
FFFFFE00000000000000
FFFFFE00000000000000
FFFFFE00000000000000
FFFFFE00000000000000
FFFFFE00000000000000
FFFFFE00000000000000
FFFFFE00000000000000
FFFFFE00000000000000
FFFFFE00000000000000
FFFFFE00000000000000
FFFFFE00000000000000
FFFFFE00000000000000
FFFFFE00000000000000
FFFFFE00000000000000
FFFFFE00000000000000
FFFFFE00000000000000
FFFFFE00000000000000
FFFFFE00000000000000
FFFFFE00000000000000
FFFFFE00000000000000
FFFFFE00000000000000
FFFFFE00000000000000
FFFFFE00000000000000
FFFFFE00000000000000
FFFFFE00000000000000
FFFFFE00000000000000
FFFFFE00000000000000
FFFFFE00000000000000
FFFFFE00000000000000
FFFFFE00000000000000
FFFFFE00000000000000
FFFFFE00000000000000
FFFFFE00000000000000
FFFFFE00000000000000
FFFFFE00000000000000
FFFFFE00000000000000
FFFFFE00000000000000
FFFFFE00000000000000
FFFFFE00000000000000
FFFFFE00000000000000
FFFFFE00000000000000
FFFFFE00000000000000
FFFFFE00000000000000
FFFFFE00000000000000
FFFFFE00000000000000
FFFFFE00000000000000
FFFFFE00000000000000
FFFFFE00000000000000
FFFFFE00000000000000
FFFFFE00000000000000
FFFFFE00000000000000
FFFFFE00000000000000
FFFFFE00000000000000
FFFFFE00000000000000
FFFFFE00000000000000
FFFFFE00000000000000
FFFFFE00000000000000
FFFFFE00000000000000
FFFFFE00000000000000
FFFFFE00000000000000
FFFFFE00000000000000
FFFFFE00000000000000
FFFFFE00000000000000
FFFFFE00000000000000
FFFFFE00000000000000
FFFFFE00000000000000
FFFFFE00000000000000
FFFFFE00000000000000
FFFFFE00000000000000
FFFFFE00000000000000
FFFFFE00000000000000
FFFFFE00000000000000
FFFFFE00000000000000
FFFFFE00000000000000
FFFFFE00000000000000
FFFFFE00000000000000
FFFFFE00000000000000
FFFFFE00000000000000
FFFFFE00000000000000
FFFFFE00000000000000
FFFFFE00000000000000
7FFFFF00000000000000
7FFFFF00000000000000
7FFFFF00000000000000
7FFFFF80000000000000
7FFFFFC0000000000000
7FFFFFE0000000000000
7FFFFFFC000000000000
3FFFFFFFFFFFFFFFFFFE
3FFFFFFFFFFFFFFFFFFE
3FFFFFFFFFFFFFFFFFFE
3FFFFFFFFFFFFFFFFFFE
1FFFFFFFFFFFFFFFFFFE
1FFFFFFFFFFFFFFFFFFE
0FFFFFFFFFFFFFFFFFFE
0FFFFFFFFFFFFFFFFFFE
07FFFFFFFFFFFFFFFFFE
03FFFFFFFFFFFFFFFFFE
01FFFFFFFFFFFFFFFFFE
00FFFFFFFFFFFFFFFFFE
003FFFFFFFFFFFFFFFFE
000FFFFFFFFFFFFFFFFE
0003FFFFFFFFFFFFFFFC
00001FFFFFFFFFFFFFF0
ENDCHAR
STARTCHAR 0044
ENCODING 68
SWIDTH 475 0
DWIDTH 132 0
BBX 93 195 20 0
BITMAP
1FFFFFFFFFFFFFFFFFC00000
3FFFFFFFFFFFFFFFFFFE0000
7FFFFFFFFFFFFFFFFFFFC000
FFFFFFFFFFFFFFFFFFFFF000
FFFFFFFFFFFFFFFFFFFFF800
FFFFFFFFFFFFFFFFFFFFFC00
FFFFFFFFFFFFFFFFFFFFFE00
FFFFFFFFFFFFFFFFFFFFFF00
FFFFFFFFFFFFFFFFFFFFFF80
FFFFFFFFFFFFFFFFFFFFFF80
FFFFFFFFFFFFFFFFFFFFFFC0
FFFFFFFFFFFFFFFFFFFFFFC0
FFFFFFFFFFFFFFFFFFFFFFE0
FFFFFFFFFFFFFFFFFFFFFFE0
FFFFFFFFFFFFFFFFFFFFFFE0
FFFFFFFFFFFFFFFFFFFFFFF0
FFFFFC0000000001FFFFFFF0
FFFFFC00000000003FFFFFF0
FFFFFC00000000001FFFFFF0
FFFFFC00000000000FFFFFF0
FFFFFC000000000007FFFFF8
FFFFFC000000000007FFFFF8
FFFFFC000000000003FFFFF8
FFFFFC000000000003FFFFF8
FFFFFC000000000003FFFFF8
FFFFFC000000000003FFFFF8
FFFFFC000000000003FFFFF8
FFFFFC000000000003FFFFF8
FFFFFC000000000001FFFFF8
FFFFFC000000000001FFFFF8
FFFFFC000000000001FFFFF8
FFFFFC000000000001FFFFF8
FFFFFC000000000001FFFFF8
FFFFFC000000000001FFFFF8
FFFFFC000000000001FFFFF8
FFFFFC000000000001FFFFF8
FFFFFC000000000001FFFFF8
FFFFFC000000000001FFFFF8
FFFFFC000000000001FFFFF8
FFFFFC000000000001FFFFF8
FFFFFC000000000001FFFFF8
FFFFFC000000000001FFFFF8
FFFFFC000000000001FFFFF8
FFFFFC000000000001FFFFF8
FFFFFC000000000001FFFFF8
FFFFFC000000000001FFFFF8
FFFFFC000000000001FFFFF8
FFFFFC000000000001FFFFF8
FFFFFC000000000001FFFFF8
FFFFFC000000000001FFFFF8
FFFFFC000000000001FFFFF8
FFFFFC000000000001FFFFF8
FFFFFC000000000001FFFFF8
FFFFFC000000000001FFFFF8
FFFFFC000000000001FFFFF8
FFFFFC000000000001FFFFF8
FFFFFC000000000001FFFFF8
FFFFFC000000000001FFFFF8
FFFFFC000000000001FFFFF8
FFFFFC000000000001FFFFF8
FFFFFC000000000001FFFFF8
FFFFFC000000000001FFFFF8
FFFFFC000000000001FFFFF8
FFFFFC000000000001FFFFF8
FFFFFC000000000001FFFFF8
FFFFFC000000000001FFFFF8
FFFFFC000000000001FFFFF8
FFFFFC000000000001FFFFF8
FFFFFC000000000001FFFFF8
FFFFFC000000000001FFFFF8
FFFFFC000000000001FFFFF8
FFFFFC000000000001FFFFF8
FFFFFC000000000001FFFFF8
FFFFFC000000000001FFFFF8
FFFFFC000000000001FFFFF8
FFFFFC000000000001FFFFF8
FFFFFC000000000001FFFFF8
FFFFFC000000000001FFFFF8
FFFFFC000000000001FFFFF8
FFFFFC000000000001FFFFF8
FFFFFC000000000001FFFFF8
FFFFFC000000000001FFFFF8
FFFFFC000000000001FFFFF8
FFFFFC000000000001FFFFF8
FFFFFC000000000001FFFFF8
FFFFFC000000000001FFFFF8
FFFFFC000000000001FFFFF8
FFFFFC000000000001FFFFF8
FFFFFC000000000001FFFFF8
FFFFFC000000000001FFFFF8
FFFFFC000000000001FFFFF8
FFFFFC000000000001FFFFF8
FFFFFC000000000001FFFFF8
FFFFFC000000000001FFFFF8
FFFFFC000000000001FFFFF8
FFFFFC000000000001FFFFF8
FFFFFC000000000001FFFFF8
FFFFFC000000000001FFFFF8
FFFFFC000000000001FFFFF8
FFFFFC000000000001FFFFF8
FFFFFC000000000001FFFFF8
FFFFFC000000000001FFFFF8
FFFFFC000000000001FFFFF8
FFFFFC000000000001FFFFF8
FFFFFC000000000001FFFFF8
FFFFFC000000000001FFFFF8
FFFFFC000000000001FFFFF8
FFFFFC000000000001FFFFF8
FFFFFC000000000001FFFFF8
FFFFFC000000000001FFFFF8
FFFFFC000000000001FFFFF8
FFFFFC000000000001FFFFF8
FFFFFC000000000001FFFFF8
FFFFFC000000000001FFFFF8
FFFFFC000000000001FFFFF8
FFFFFC000000000001FFFFF8
FFFFFC000000000001FFFFF8
FFFFFC000000000001FFFFF8
FFFFFC000000000001FFFFF8
FFFFFC000000000001FFFFF8
FFFFFC000000000001FFFFF8
FFFFFC000000000001FFFFF8
FFFFFC000000000001FFFFF8
FFFFFC000000000001FFFFF8
FFFFFC000000000001FFFFF8
FFFFFC000000000001FFFFF8
FFFFFC000000000001FFFFF8
FFFFFC000000000001FFFFF8
FFFFFC000000000001FFFFF8
FFFFFC000000000001FFFFF8
FFFFFC000000000001FFFFF8
FFFFFC000000000001FFFFF8
FFFFFC000000000001FFFFF8
FFFFFC000000000001FFFFF8
FFFFFC000000000001FFFFF8
FFFFFC000000000001FFFFF8
FFFFFC000000000001FFFFF8
FFFFFC000000000001FFFFF8
FFFFFC000000000001FFFFF8
FFFFFC000000000001FFFFF8
FFFFFC000000000001FFFFF8
FFFFFC000000000001FFFFF8
FFFFFC000000000001FFFFF8
FFFFFC000000000001FFFFF8
FFFFFC000000000001FFFFF8
FFFFFC000000000001FFFFF8
FFFFFC000000000001FFFFF8
FFFFFC000000000001FFFFF8
FFFFFC000000000001FFFFF8
FFFFFC000000000001FFFFF8
FFFFFC000000000001FFFFF8
FFFFFC000000000001FFFFF8
FFFFFC000000000001FFFFF8
FFFFFC000000000001FFFFF8
FFFFFC000000000001FFFFF8
FFFFFC000000000001FFFFF8
FFFFFC000000000001FFFFF8
FFFFFC000000000001FFFFF8
FFFFFC000000000001FFFFF8
FFFFFC000000000001FFFFF8
FFFFFC000000000001FFFFF8
FFFFFC000000000001FFFFF8
FFFFFC000000000001FFFFF8
FFFFFC000000000001FFFFF8
FFFFFC000000000001FFFFF8
FFFFFC000000000001FFFFF8
FFFFFC000000000003FFFFF8
FFFFFC000000000003FFFFF8
FFFFFC000000000003FFFFF8
FFFFFC000000000003FFFFF8
FFFFFC000000000003FFFFF8
FFFFFC000000000003FFFFF8
FFFFFC000000000003FFFFF8
FFFFFC000000000007FFFFF8
FFFFFC000000000007FFFFF8
FFFFFC00000000000FFFFFF0
FFFFFC00000000001FFFFFF0
FFFFFC00000000003FFFFFF0
FFFFFC0000000001FFFFFFF0
FFFFFC007FFFFFFFFFFFFFF0
FFFFFC007FFFFFFFFFFFFFE0
FFFFFC007FFFFFFFFFFFFFE0
FFFFFC007FFFFFFFFFFFFFE0
FFFFFC007FFFFFFFFFFFFFC0
FFFFFC007FFFFFFFFFFFFFC0
FFFFFC007FFFFFFFFFFFFFC0
FFFFFC007FFFFFFFFFFFFF80
FFFFFC007FFFFFFFFFFFFF00
FFFFFC007FFFFFFFFFFFFE00
FFFFFC007FFFFFFFFFFFFC00
FFFFFC003FFFFFFFFFFFF800
FFFFFC003FFFFFFFFFFFF000
FFFFFC003FFFFFFFFFFFC000
FFFFFC001FFFFFFFFFFE0000
FFFFFC000FFFFFFFFFC00000
ENDCHAR
STARTCHAR 0045
ENCODING 69
SWIDTH 388 0
DWIDTH 108 0
BBX 75 195 20 0
BITMAP
1FFFFFFFFFFFFFFFFFE0
3FFFFFFFFFFFFFFFFFE0
7FFFFFFFFFFFFFFFFFE0
FFFFFFFFFFFFFFFFFFE0
FFFFFFFFFFFFFFFFFFE0
FFFFFFFFFFFFFFFFFFE0
FFFFFFFFFFFFFFFFFFE0
FFFFFFFFFFFFFFFFFFE0
FFFFFFFFFFFFFFFFFFE0
FFFFFFFFFFFFFFFFFFE0
FFFFFFFFFFFFFFFFFFE0
FFFFFFFFFFFFFFFFFFE0
FFFFFFFFFFFFFFFFFFE0
FFFFFFFFFFFFFFFFFFE0
FFFFFFFFFFFFFFFFFFC0
FFFFFFFFFFFFFFFFFF00
FFFFFC00000000000000
FFFFFC00000000000000
FFFFFC00000000000000
FFFFFC00000000000000
FFFFFC00000000000000
FFFFFC00000000000000
FFFFFC00000000000000
FFFFFC00000000000000
FFFFFC00000000000000
FFFFFC00000000000000
FFFFFC00000000000000
FFFFFC00000000000000
FFFFFC00000000000000
FFFFFC00000000000000
FFFFFC00000000000000
FFFFFC00000000000000
FFFFFC00000000000000
FFFFFC00000000000000
FFFFFC00000000000000
FFFFFC00000000000000
FFFFFC00000000000000
FFFFFC00000000000000
FFFFFC00000000000000
FFFFFC00000000000000
FFFFFC00000000000000
FFFFFC00000000000000
FFFFFC00000000000000
FFFFFC00000000000000
FFFFFC00000000000000
FFFFFC00000000000000
FFFFFC00000000000000
FFFFFC00000000000000
FFFFFC00000000000000
FFFFFC00000000000000
FFFFFC00000000000000
FFFFFC00000000000000
FFFFFC00000000000000
FFFFFC00000000000000
FFFFFC00000000000000
FFFFFC00000000000000
FFFFFC00000000000000
FFFFFC00000000000000
FFFFFC00000000000000
FFFFFC00000000000000
FFFFFC00000000000000
FFFFFC00000000000000
FFFFFC00000000000000
FFFFFC00000000000000
FFFFFC00000000000000
FFFFFC00000000000000
FFFFFC00000000000000
FFFFFC00000000000000
FFFFFC00000000000000
FFFFFC00000000000000
FFFFFC00000000000000
FFFFFC00000000000000
FFFFFC00000000000000
FFFFFC00000000000000
FFFFFC00000000000000
FFFFFC00000000000000
FFFFFC00000000000000
FFFFFC00000000000000
FFFFFC00000000000000
FFFFFC00000000000000
FFFFFC00000000000000
FFFFFC00000000000000
FFFFFC00000000000000
FFFFFC00000000000000
FFFFFC00000000000000
FFFFFC00000000000000
FFFFFFFFFFFFFFFFE000
FFFFFFFFFFFFFFFFE000
FFFFFFFFFFFFFFFFE000
FFFFFFFFFFFFFFFFE000
FFFFFFFFFFFFFFFFE000
FFFFFFFFFFFFFFFFE000
FFFFFFFFFFFFFFFFE000
FFFFFFFFFFFFFFFFE000
FFFFFFFFFFFFFFFFE000
FFFFFFFFFFFFFFFFE000
FFFFFFFFFFFFFFFFE000
FFFFFFFFFFFFFFFFE000
FFFFFFFFFFFFFFFFE000
FFFFFFFFFFFFFFFFC000
FFFFFFFFFFFFFFFFC000
FFFFFFFFFFFFFFFF0000
FFFFFC00000000000000
FFFFFC00000000000000
FFFFFC00000000000000
FFFFFC00000000000000
FFFFFC00000000000000
FFFFFC00000000000000
FFFFFC00000000000000
FFFFFC00000000000000
FFFFFC00000000000000
FFFFFC00000000000000
FFFFFC00000000000000
FFFFFC00000000000000
FFFFFC00000000000000
FFFFFC00000000000000
FFFFFC00000000000000
FFFFFC00000000000000
FFFFFC00000000000000
FFFFFC00000000000000
FFFFFC00000000000000
FFFFFC00000000000000
FFFFFC00000000000000
FFFFFC00000000000000
FFFFFC00000000000000
FFFFFC00000000000000
FFFFFC00000000000000
FFFFFC00000000000000
FFFFFC00000000000000
FFFFFC00000000000000
FFFFFC00000000000000
FFFFFC00000000000000
FFFFFC00000000000000
FFFFFC00000000000000
FFFFFC00000000000000
FFFFFC00000000000000
FFFFFC00000000000000
FFFFFC00000000000000
FFFFFC00000000000000
FFFFFC00000000000000
FFFFFC00000000000000
FFFFFC00000000000000
FFFFFC00000000000000
FFFFFC00000000000000
FFFFFC00000000000000
FFFFFC00000000000000
FFFFFC00000000000000
FFFFFC00000000000000
FFFFFC00000000000000
FFFFFC00000000000000
FFFFFC00000000000000
FFFFFC00000000000000
FFFFFC00000000000000
FFFFFC00000000000000
FFFFFC00000000000000
FFFFFC00000000000000
FFFFFC00000000000000
FFFFFC00000000000000
FFFFFC00000000000000
FFFFFC00000000000000
FFFFFC00000000000000
FFFFFC00000000000000
FFFFFC00000000000000
FFFFFC00000000000000
FFFFFC00000000000000
FFFFFC00000000000000
FFFFFC00000000000000
FFFFFC00000000000000
FFFFFC00000000000000
FFFFFC00000000000000
FFFFFC00000000000000
FFFFFC00000000000000
FFFFFC00000000000000
FFFFFC00000000000000
FFFFFC00000000000000
FFFFFC00000000000000
FFFFFC00000000000000
FFFFFC00000000000000
FFFFFC00000000000000
FFFFFFFFFFFFFFFFFFE0
FFFFFFFFFFFFFFFFFFE0
FFFFFFFFFFFFFFFFFFE0
FFFFFFFFFFFFFFFFFFE0
FFFFFFFFFFFFFFFFFFE0
FFFFFFFFFFFFFFFFFFE0
FFFFFFFFFFFFFFFFFFE0
FFFFFFFFFFFFFFFFFFE0
FFFFFFFFFFFFFFFFFFE0
FFFFFFFFFFFFFFFFFFE0
FFFFFFFFFFFFFFFFFFE0
FFFFFFFFFFFFFFFFFFE0
FFFFFFFFFFFFFFFFFFE0
FFFFFFFFFFFFFFFFFFE0
FFFFFFFFFFFFFFFFFFC0
FFFFFFFFFFFFFFFFFF00
ENDCHAR
STARTCHAR 0046
ENCODING 70
SWIDTH 374 0
DWIDTH 104 0
BBX 75 195 20 0
BITMAP
1FFFFFFFFFFFFFFFFFE0
3FFFFFFFFFFFFFFFFFE0
7FFFFFFFFFFFFFFFFFE0
FFFFFFFFFFFFFFFFFFE0
FFFFFFFFFFFFFFFFFFE0
FFFFFFFFFFFFFFFFFFE0
FFFFFFFFFFFFFFFFFFE0
FFFFFFFFFFFFFFFFFFE0
FFFFFFFFFFFFFFFFFFE0
FFFFFFFFFFFFFFFFFFE0
FFFFFFFFFFFFFFFFFFE0
FFFFFFFFFFFFFFFFFFE0
FFFFFFFFFFFFFFFFFFE0
FFFFFFFFFFFFFFFFFFE0
FFFFFFFFFFFFFFFFFFC0
FFFFFFFFFFFFFFFFFF00
FFFFFC00000000000000
FFFFFC00000000000000
FFFFFC00000000000000
FFFFFC00000000000000
FFFFFC00000000000000
FFFFFC00000000000000
FFFFFC00000000000000
FFFFFC00000000000000
FFFFFC00000000000000
FFFFFC00000000000000
FFFFFC00000000000000
FFFFFC00000000000000
FFFFFC00000000000000
FFFFFC00000000000000
FFFFFC00000000000000
FFFFFC00000000000000
FFFFFC00000000000000
FFFFFC00000000000000
FFFFFC00000000000000
FFFFFC00000000000000
FFFFFC00000000000000
FFFFFC00000000000000
FFFFFC00000000000000
FFFFFC00000000000000
FFFFFC00000000000000
FFFFFC00000000000000
FFFFFC00000000000000
FFFFFC00000000000000
FFFFFC00000000000000
FFFFFC00000000000000
FFFFFC00000000000000
FFFFFC00000000000000
FFFFFC00000000000000
FFFFFC00000000000000
FFFFFC00000000000000
FFFFFC00000000000000
FFFFFC00000000000000
FFFFFC00000000000000
FFFFFC00000000000000
FFFFFC00000000000000
FFFFFC00000000000000
FFFFFC00000000000000
FFFFFC00000000000000
FFFFFC00000000000000
FFFFFC00000000000000
FFFFFC00000000000000
FFFFFC00000000000000
FFFFFC00000000000000
FFFFFC00000000000000
FFFFFC00000000000000
FFFFFC00000000000000
FFFFFC00000000000000
FFFFFC00000000000000
FFFFFC00000000000000
FFFFFC00000000000000
FFFFFC00000000000000
FFFFFC00000000000000
FFFFFC00000000000000
FFFFFC00000000000000
FFFFFC00000000000000
FFFFFC00000000000000
FFFFFC00000000000000
FFFFFC00000000000000
FFFFFC00000000000000
FFFFFC00000000000000
FFFFFC00000000000000
FFFFFC00000000000000
FFFFFC00000000000000
FFFFFC00000000000000
FFFFFC00000000000000
FFFFFFFFFFFFFFFFE000
FFFFFFFFFFFFFFFFE000
FFFFFFFFFFFFFFFFE000
FFFFFFFFFFFFFFFFE000
FFFFFFFFFFFFFFFFE000
FFFFFFFFFFFFFFFFE000
FFFFFFFFFFFFFFFFE000
FFFFFFFFFFFFFFFFE000
FFFFFFFFFFFFFFFFE000
FFFFFFFFFFFFFFFFE000
FFFFFFFFFFFFFFFFE000
FFFFFFFFFFFFFFFFE000
FFFFFFFFFFFFFFFFE000
FFFFFFFFFFFFFFFFC000
FFFFFFFFFFFFFFFFC000
FFFFFFFFFFFFFFFF0000
FFFFFC00000000000000
FFFFFC00000000000000
FFFFFC00000000000000
FFFFFC00000000000000
FFFFFC00000000000000
FFFFFC00000000000000
FFFFFC00000000000000
FFFFFC00000000000000
FFFFFC00000000000000
FFFFFC00000000000000
FFFFFC00000000000000
FFFFFC00000000000000
FFFFFC00000000000000
FFFFFC00000000000000
FFFFFC00000000000000
FFFFFC00000000000000
FFFFFC00000000000000
FFFFFC00000000000000
FFFFFC00000000000000
FFFFFC00000000000000
FFFFFC00000000000000
FFFFFC00000000000000
FFFFFC00000000000000
FFFFFC00000000000000
FFFFFC00000000000000
FFFFFC00000000000000
FFFFFC00000000000000
FFFFFC00000000000000
FFFFFC00000000000000
FFFFFC00000000000000
FFFFFC00000000000000
FFFFFC00000000000000
FFFFFC00000000000000
FFFFFC00000000000000
FFFFFC00000000000000
FFFFFC00000000000000
FFFFFC00000000000000
FFFFFC00000000000000
FFFFFC00000000000000
FFFFFC00000000000000
FFFFFC00000000000000
FFFFFC00000000000000
FFFFFC00000000000000
FFFFFC00000000000000
FFFFFC00000000000000
FFFFFC00000000000000
FFFFFC00000000000000
FFFFFC00000000000000
FFFFFC00000000000000
FFFFFC00000000000000
FFFFFC00000000000000
FFFFFC00000000000000
FFFFFC00000000000000
FFFFFC00000000000000
FFFFFC00000000000000
FFFFFC00000000000000
FFFFFC00000000000000
FFFFFC00000000000000
FFFFFC00000000000000
FFFFFC00000000000000
FFFFFC00000000000000
FFFFFC00000000000000
FFFFFC00000000000000
FFFFFC00000000000000
FFFFFC00000000000000
FFFFFC00000000000000
FFFFFC00000000000000
FFFFFC00000000000000
FFFFFC00000000000000
FFFFFC00000000000000
FFFFFC00000000000000
FFFFFC00000000000000
FFFFFC00000000000000
FFFFFC00000000000000
FFFFFC00000000000000
FFFFFC00000000000000
FFFFFC00000000000000
FFFFFC00000000000000
FFFFFC00000000000000
FFFFFC00000000000000
FFFFFC00000000000000
FFFFFC00000000000000
FFFFFC00000000000000
FFFFFC00000000000000
FFFFFC00000000000000
FFFFFC00000000000000
FFFFFC00000000000000
FFFFFC00000000000000
FFFFFC00000000000000
FFFFFC00000000000000
FFFFF800000000000000
FFFFF800000000000000
FFFFE000000000000000
ENDCHAR
STARTCHAR 0047
ENCODING 71
SWIDTH 464 0
DWIDTH 129 0
BBX 93 195 19 0
BITMAP
00001FFFFFFFFFFFFFFFF800
0001FFFFFFFFFFFFFFFFFE00
000FFFFFFFFFFFFFFFFFFE00
003FFFFFFFFFFFFFFFFFFF00
00FFFFFFFFFFFFFFFFFFFF00
01FFFFFFFFFFFFFFFFFFFF00
03FFFFFFFFFFFFFFFFFFFF00
07FFFFFFFFFFFFFFFFFFFF00
0FFFFFFFFFFFFFFFFFFFFF00
0FFFFFFFFFFFFFFFFFFFFF00
1FFFFFFFFFFFFFFFFFFFFF00
1FFFFFFFFFFFFFFFFFFFFF00
3FFFFFFFFFFFFFFFFFFFFF00
3FFFFFFFFFFFFFFFFFFFFF00
3FFFFFFFFFFFFFFFFFFFFF00
3FFFFFFFFFFFFFFFFFFFFF00
7FFFFFFC0000000000000000
7FFFFFE00000000000000000
7FFFFFC00000000000000000
7FFFFF800000000000000000
7FFFFF000000000000000000
7FFFFF000000000000000000
7FFFFF000000000000000000
FFFFFE000000000000000000
FFFFFE000000000000000000
FFFFFE000000000000000000
FFFFFE000000000000000000
FFFFFE000000000000000000
FFFFFE000000000000000000
FFFFFE000000000000000000
FFFFFE000000000000000000
FFFFFE000000000000000000
FFFFFE000000000000000000
FFFFFE000000000000000000
FFFFFE000000000000000000
FFFFFE000000000000000000
FFFFFE000000000000000000
FFFFFE000000000000000000
FFFFFE000000000000000000
FFFFFE000000000000000000
FFFFFE000000000000000000
FFFFFE000000000000000000
FFFFFE000000000000000000
FFFFFE000000000000000000
FFFFFE000000000000000000
FFFFFE000000000000000000
FFFFFE000000000000000000
FFFFFE000000000000000000
FFFFFE000000000000000000
FFFFFE000000000000000000
FFFFFE000000000000000000
FFFFFE000000000000000000
FFFFFE000000000000000000
FFFFFE000000000000000000
FFFFFE000000000000000000
FFFFFE000000000000000000
FFFFFE000000000000000000
FFFFFE000000000000000000
FFFFFE000000000000000000
FFFFFE000000000000000000
FFFFFE000000000000000000
FFFFFE000000000000000000
FFFFFE000000000000000000
FFFFFE000000000000000000
FFFFFE000000000000000000
FFFFFE000000000000000000
FFFFFE000000000000000000
FFFFFE000000000000000000
FFFFFE000000000000000000
FFFFFE000000000000000000
FFFFFE000000000000000000
FFFFFE000000000000000000
FFFFFE000000000000000000
FFFFFE000000000000000000
FFFFFE000000000000000000
FFFFFE000000000000000000
FFFFFE000000000000000000
FFFFFE000000000000000000
FFFFFE000000000000000000
FFFFFE000000000000000000
FFFFFE000000000000000000
FFFFFE000000000000000000
FFFFFE000000000000000000
FFFFFE000000000000000000
FFFFFE000000000000000000
FFFFFE000000000000000000
FFFFFE0000001FFFFFFFFFF8
FFFFFE0000007FFFFFFFFFF8
FFFFFE000000FFFFFFFFFFF8
FFFFFE000000FFFFFFFFFFF8
FFFFFE000001FFFFFFFFFFF8
FFFFFE000001FFFFFFFFFFF8
FFFFFE000001FFFFFFFFFFF8
FFFFFE000001FFFFFFFFFFF8
FFFFFE000001FFFFFFFFFFF8
FFFFFE000001FFFFFFFFFFF8
FFFFFE000001FFFFFFFFFFF8
FFFFFE000001FFFFFFFFFFF8
FFFFFE000001FFFFFFFFFFF8
FFFFFE000001FFFFFFFFFFF8
FFFFFE000001FFFFFFFFFFF8
FFFFFE000001FFFFFFFFFFF8
FFFFFE000000000001FFFFF8
FFFFFE000000000001FFFFF8
FFFFFE000000000001FFFFF8
FFFFFE000000000001FFFFF8
FFFFFE000000000001FFFFF8
FFFFFE000000000001FFFFF8
FFFFFE000000000001FFFFF8
FFFFFE000000000001FFFFF8
FFFFFE000000000001FFFFF8
FFFFFE000000000001FFFFF8
FFFFFE000000000001FFFFF8
FFFFFE000000000001FFFFF8
FFFFFE000000000001FFFFF8
FFFFFE000000000001FFFFF8
FFFFFE000000000001FFFFF8
FFFFFE000000000001FFFFF8
FFFFFE000000000001FFFFF8
FFFFFE000000000001FFFFF8
FFFFFE000000000001FFFFF8
FFFFFE000000000001FFFFF8
FFFFFE000000000001FFFFF8
FFFFFE000000000001FFFFF8
FFFFFE000000000001FFFFF8
FFFFFE000000000001FFFFF8
FFFFFE000000000001FFFFF8
FFFFFE000000000001FFFFF8
FFFFFE000000000001FFFFF8
FFFFFE000000000001FFFFF8
FFFFFE000000000001FFFFF8
FFFFFE000000000001FFFFF8
FFFFFE000000000001FFFFF8
FFFFFE000000000001FFFFF8
FFFFFE000000000001FFFFF8
FFFFFE000000000001FFFFF8
FFFFFE000000000001FFFFF8
FFFFFE000000000001FFFFF8
FFFFFE000000000001FFFFF8
FFFFFE000000000001FFFFF8
FFFFFE000000000001FFFFF8
FFFFFE000000000001FFFFF8
FFFFFE000000000001FFFFF8
FFFFFE000000000001FFFFF8
FFFFFE000000000001FFFFF8
FFFFFE000000000001FFFFF8
FFFFFE000000000001FFFFF8
FFFFFE000000000001FFFFF8
FFFFFE000000000001FFFFF8
FFFFFE000000000001FFFFF8
FFFFFE000000000001FFFFF8
FFFFFE000000000001FFFFF8
FFFFFE000000000001FFFFF8
FFFFFE000000000001FFFFF8
FFFFFE000000000001FFFFF8
FFFFFE000000000001FFFFF8
FFFFFE000000000001FFFFF8
FFFFFE000000000001FFFFF8
FFFFFE000000000001FFFFF8
FFFFFE000000000001FFFFF8
FFFFFE000000000001FFFFF8
FFFFFE000000000001FFFFF8
FFFFFE000000000001FFFFF8
FFFFFE000000000001FFFFF8
FFFFFE000000000001FFFFF8
FFFFFE000000000001FFFFF8
FFFFFE000000000001FFFFF8
FFFFFE000000000001FFFFF8
FFFFFE000000000001FFFFF8
FFFFFE000000000001FFFFF8
FFFFFE000000000001FFFFF8
FFFFFE000000000003FFFFF8
7FFFFF000000000003FFFFF8
7FFFFF000000000003FFFFF8
7FFFFF000000000007FFFFF8
7FFFFF800000000007FFFFF8
7FFFFFC0000000000FFFFFF8
7FFFFFE0000000003FFFFFF8
7FFFFFFC00000000FFFFFFF0
3FFFFFFFFFFFFFFFFFFFFFF0
3FFFFFFFFFFFFFFFFFFFFFF0
3FFFFFFFFFFFFFFFFFFFFFF0
3FFFFFFFFFFFFFFFFFFFFFE0
1FFFFFFFFFFFFFFFFFFFFFE0
1FFFFFFFFFFFFFFFFFFFFFC0
0FFFFFFFFFFFFFFFFFFFFFC0
0FFFFFFFFFFFFFFFFFFFFF80
07FFFFFFFFFFFFFFFFFFFF80
03FFFFFFFFFFFFFFFFFFFF00
01FFFFFFFFFFFFFFFFFFFE00
00FFFFFFFFFFFFFFFFFFF800
003FFFFFFFFFFFFFFFFFF000
000FFFFFFFFFFFFFFFFFC000
0003FFFFFFFFFFFFFFFE0000
00001FFFFFFFFFFFFFC00000
ENDCHAR
STARTCHAR 0048
ENCODING 72
SWIDTH 496 0
DWIDTH 138 0
BBX 98 195 20 0
BITMAP
1FFFFC00000000000000FFFFC0
3FFFFC00000000000003FFFFC0
7FFFFC00000000000007FFFFC0
FFFFFC00000000000007FFFFC0
FFFFFC0000000000000FFFFFC0
FFFFFC0000000000000FFFFFC0
FFFFFC0000000000000FFFFFC0
FFFFFC0000000000000FFFFFC0
FFFFFC0000000000000FFFFFC0
FFFFFC0000000000000FFFFFC0
FFFFFC0000000000000FFFFFC0
FFFFFC0000000000000FFFFFC0
FFFFFC0000000000000FFFFFC0
FFFFFC0000000000000FFFFFC0
FFFFFC0000000000000FFFFFC0
FFFFFC0000000000000FFFFFC0
FFFFFC0000000000000FFFFFC0
FFFFFC0000000000000FFFFFC0
FFFFFC0000000000000FFFFFC0
FFFFFC0000000000000FFFFFC0
FFFFFC0000000000000FFFFFC0
FFFFFC0000000000000FFFFFC0
FFFFFC0000000000000FFFFFC0
FFFFFC0000000000000FFFFFC0
FFFFFC0000000000000FFFFFC0
FFFFFC0000000000000FFFFFC0
FFFFFC0000000000000FFFFFC0
FFFFFC0000000000000FFFFFC0
FFFFFC0000000000000FFFFFC0
FFFFFC0000000000000FFFFFC0
FFFFFC0000000000000FFFFFC0
FFFFFC0000000000000FFFFFC0
FFFFFC0000000000000FFFFFC0
FFFFFC0000000000000FFFFFC0
FFFFFC0000000000000FFFFFC0
FFFFFC0000000000000FFFFFC0
FFFFFC0000000000000FFFFFC0
FFFFFC0000000000000FFFFFC0
FFFFFC0000000000000FFFFFC0
FFFFFC0000000000000FFFFFC0
FFFFFC0000000000000FFFFFC0
FFFFFC0000000000000FFFFFC0
FFFFFC0000000000000FFFFFC0
FFFFFC0000000000000FFFFFC0
FFFFFC0000000000000FFFFFC0
FFFFFC0000000000000FFFFFC0
FFFFFC0000000000000FFFFFC0
FFFFFC0000000000000FFFFFC0
FFFFFC0000000000000FFFFFC0
FFFFFC0000000000000FFFFFC0
FFFFFC0000000000000FFFFFC0
FFFFFC0000000000000FFFFFC0
FFFFFC0000000000000FFFFFC0
FFFFFC0000000000000FFFFFC0
FFFFFC0000000000000FFFFFC0
FFFFFC0000000000000FFFFFC0
FFFFFC0000000000000FFFFFC0
FFFFFC0000000000000FFFFFC0
FFFFFC0000000000000FFFFFC0
FFFFFC0000000000000FFFFFC0
FFFFFC0000000000000FFFFFC0
FFFFFC0000000000000FFFFFC0
FFFFFC0000000000000FFFFFC0
FFFFFC0000000000000FFFFFC0
FFFFFC0000000000000FFFFFC0
FFFFFC0000000000000FFFFFC0
FFFFFC0000000000000FFFFFC0
FFFFFC0000000000000FFFFFC0
FFFFFC0000000000000FFFFFC0
FFFFFC0000000000000FFFFFC0
FFFFFC0000000000000FFFFFC0
FFFFFC0000000000000FFFFFC0
FFFFFC0000000000000FFFFFC0
FFFFFC0000000000000FFFFFC0
FFFFFC0000000000000FFFFFC0
FFFFFC0000000000000FFFFFC0
FFFFFC0000000000000FFFFFC0
FFFFFC0000000000000FFFFFC0
FFFFFC0000000000000FFFFFC0
FFFFFC0000000000000FFFFFC0
FFFFFC0000000000000FFFFFC0
FFFFFC0000000000000FFFFFC0
FFFFFC0000000000000FFFFFC0
FFFFFC0000000000000FFFFFC0
FFFFFC0000000000000FFFFFC0
FFFFFC0000000000000FFFFFC0
FFFFFFFFFFFFFFFF800FFFFFC0
FFFFFFFFFFFFFFFF800FFFFFC0
FFFFFFFFFFFFFFFF800FFFFFC0
FFFFFFFFFFFFFFFF800FFFFFC0
FFFFFFFFFFFFFFFF800FFFFFC0
FFFFFFFFFFFFFFFF800FFFFFC0
FFFFFFFFFFFFFFFF800FFFFFC0
FFFFFFFFFFFFFFFF800FFFFFC0
FFFFFFFFFFFFFFFF800FFFFFC0
FFFFFFFFFFFFFFFF800FFFFFC0
FFFFFFFFFFFFFFFF800FFFFFC0
FFFFFFFFFFFFFFFF800FFFFFC0
FFFFFFFFFFFFFFFF800FFFFFC0
FFFFFFFFFFFFFFFF000FFFFFC0
FFFFFFFFFFFFFFFF000FFFFFC0
FFFFFFFFFFFFFFFC000FFFFFC0
FFFFFC0000000000000FFFFFC0
FFFFFC0000000000000FFFFFC0
FFFFFC0000000000000FFFFFC0
FFFFFC0000000000000FFFFFC0
FFFFFC0000000000000FFFFFC0
FFFFFC0000000000000FFFFFC0
FFFFFC0000000000000FFFFFC0
FFFFFC0000000000000FFFFFC0
FFFFFC0000000000000FFFFFC0
FFFFFC0000000000000FFFFFC0
FFFFFC0000000000000FFFFFC0
FFFFFC0000000000000FFFFFC0
FFFFFC0000000000000FFFFFC0
FFFFFC0000000000000FFFFFC0
FFFFFC0000000000000FFFFFC0
FFFFFC0000000000000FFFFFC0
FFFFFC0000000000000FFFFFC0
FFFFFC0000000000000FFFFFC0
FFFFFC0000000000000FFFFFC0
FFFFFC0000000000000FFFFFC0
FFFFFC0000000000000FFFFFC0
FFFFFC0000000000000FFFFFC0
FFFFFC0000000000000FFFFFC0
FFFFFC0000000000000FFFFFC0
FFFFFC0000000000000FFFFFC0
FFFFFC0000000000000FFFFFC0
FFFFFC0000000000000FFFFFC0
FFFFFC0000000000000FFFFFC0
FFFFFC0000000000000FFFFFC0
FFFFFC0000000000000FFFFFC0
FFFFFC0000000000000FFFFFC0
FFFFFC0000000000000FFFFFC0
FFFFFC0000000000000FFFFFC0
FFFFFC0000000000000FFFFFC0
FFFFFC0000000000000FFFFFC0
FFFFFC0000000000000FFFFFC0
FFFFFC0000000000000FFFFFC0
FFFFFC0000000000000FFFFFC0
FFFFFC0000000000000FFFFFC0
FFFFFC0000000000000FFFFFC0
FFFFFC0000000000000FFFFFC0
FFFFFC0000000000000FFFFFC0
FFFFFC0000000000000FFFFFC0
FFFFFC0000000000000FFFFFC0
FFFFFC0000000000000FFFFFC0
FFFFFC0000000000000FFFFFC0
FFFFFC0000000000000FFFFFC0
FFFFFC0000000000000FFFFFC0
FFFFFC0000000000000FFFFFC0
FFFFFC0000000000000FFFFFC0
FFFFFC0000000000000FFFFFC0
FFFFFC0000000000000FFFFFC0
FFFFFC0000000000000FFFFFC0
FFFFFC0000000000000FFFFFC0
FFFFFC0000000000000FFFFFC0
FFFFFC0000000000000FFFFFC0
FFFFFC0000000000000FFFFFC0
FFFFFC0000000000000FFFFFC0
FFFFFC0000000000000FFFFFC0
FFFFFC0000000000000FFFFFC0
FFFFFC0000000000000FFFFFC0
FFFFFC0000000000000FFFFFC0
FFFFFC0000000000000FFFFFC0
FFFFFC0000000000000FFFFFC0
FFFFFC0000000000000FFFFFC0
FFFFFC0000000000000FFFFFC0
FFFFFC0000000000000FFFFFC0
FFFFFC0000000000000FFFFFC0
FFFFFC0000000000000FFFFFC0
FFFFFC0000000000000FFFFFC0
FFFFFC0000000000000FFFFFC0
FFFFFC0000000000000FFFFFC0
FFFFFC0000000000000FFFFFC0
FFFFFC0000000000000FFFFFC0
FFFFFC0000000000000FFFFFC0
FFFFFC0000000000000FFFFFC0
FFFFFC0000000000000FFFFFC0
FFFFFC0000000000000FFFFFC0
FFFFFC0000000000000FFFFFC0
FFFFFC0000000000000FFFFFC0
FFFFFC0000000000000FFFFFC0
FFFFFC0000000000000FFFFFC0
FFFFFC0000000000000FFFFFC0
FFFFFC0000000000000FFFFFC0
FFFFFC0000000000000FFFFFC0
FFFFFC0000000000000FFFFFC0
FFFFFC0000000000000FFFFFC0
FFFFFC0000000000000FFFFFC0
FFFFFC0000000000000FFFFFC0
FFFFFC0000000000000FFFFFC0
FFFFF80000000000000FFFFFC0
FFFFF80000000000000FFFFF80
FFFFE00000000000000FFFFE00
ENDCHAR
STARTCHAR 0049
ENCODING 73
SWIDTH 223 0
DWIDTH 62 0
BBX 22 195 20 0
BITMAP
1FFFFC
3FFFFC
7FFFFC
FFFFFC
FFFFFC
FFFFFC
FFFFFC
FFFFFC
FFFFFC
FFFFFC
FFFFFC
FFFFFC
FFFFFC
FFFFFC
FFFFFC
FFFFFC
FFFFFC
FFFFFC
FFFFFC
FFFFFC
FFFFFC
FFFFFC
FFFFFC
FFFFFC
FFFFFC
FFFFFC
FFFFFC
FFFFFC
FFFFFC
FFFFFC
FFFFFC
FFFFFC
FFFFFC
FFFFFC
FFFFFC
FFFFFC
FFFFFC
FFFFFC
FFFFFC
FFFFFC
FFFFFC
FFFFFC
FFFFFC
FFFFFC
FFFFFC
FFFFFC
FFFFFC
FFFFFC
FFFFFC
FFFFFC
FFFFFC
FFFFFC
FFFFFC
FFFFFC
FFFFFC
FFFFFC
FFFFFC
FFFFFC
FFFFFC
FFFFFC
FFFFFC
FFFFFC
FFFFFC
FFFFFC
FFFFFC
FFFFFC
FFFFFC
FFFFFC
FFFFFC
FFFFFC
FFFFFC
FFFFFC
FFFFFC
FFFFFC
FFFFFC
FFFFFC
FFFFFC
FFFFFC
FFFFFC
FFFFFC
FFFFFC
FFFFFC
FFFFFC
FFFFFC
FFFFFC
FFFFFC
FFFFFC
FFFFFC
FFFFFC
FFFFFC
FFFFFC
FFFFFC
FFFFFC
FFFFFC
FFFFFC
FFFFFC
FFFFFC
FFFFFC
FFFFFC
FFFFFC
FFFFFC
FFFFFC
FFFFFC
FFFFFC
FFFFFC
FFFFFC
FFFFFC
FFFFFC
FFFFFC
FFFFFC
FFFFFC
FFFFFC
FFFFFC
FFFFFC
FFFFFC
FFFFFC
FFFFFC
FFFFFC
FFFFFC
FFFFFC
FFFFFC
FFFFFC
FFFFFC
FFFFFC
FFFFFC
FFFFFC
FFFFFC
FFFFFC
FFFFFC
FFFFFC
FFFFFC
FFFFFC
FFFFFC
FFFFFC
FFFFFC
FFFFFC
FFFFFC
FFFFFC
FFFFFC
FFFFFC
FFFFFC
FFFFFC
FFFFFC
FFFFFC
FFFFFC
FFFFFC
FFFFFC
FFFFFC
FFFFFC
FFFFFC
FFFFFC
FFFFFC
FFFFFC
FFFFFC
FFFFFC
FFFFFC
FFFFFC
FFFFFC
FFFFFC
FFFFFC
FFFFFC
FFFFFC
FFFFFC
FFFFFC
FFFFFC
FFFFFC
FFFFFC
FFFFFC
FFFFFC
FFFFFC
FFFFFC
FFFFFC
FFFFFC
FFFFFC
FFFFFC
FFFFFC
FFFFFC
FFFFFC
FFFFFC
FFFFFC
FFFFFC
FFFFFC
FFFFFC
FFFFFC
FFFFFC
FFFFFC
FFFFFC
FFFFFC
FFFFFC
FFFFFC
FFFFFC
FFFFFC
FFFFF8
FFFFF8
FFFFE0
ENDCHAR
STARTCHAR 004A
ENCODING 74
SWIDTH 223 0
DWIDTH 62 0
BBX 51 227 -9 -32
BITMAP
00000000FFFFE0
00000001FFFFE0
00000003FFFFE0
00000007FFFFE0
00000007FFFFE0
00000007FFFFE0
00000007FFFFE0
00000007FFFFE0
00000007FFFFE0
00000007FFFFE0
00000007FFFFE0
00000007FFFFE0
00000007FFFFE0
00000007FFFFE0
00000007FFFFE0
00000007FFFFE0
00000007FFFFE0
00000007FFFFE0
00000007FFFFE0
00000007FFFFE0
00000007FFFFE0
00000007FFFFE0
00000007FFFFE0
00000007FFFFE0
00000007FFFFE0
00000007FFFFE0
00000007FFFFE0
00000007FFFFE0
00000007FFFFE0
00000007FFFFE0
00000007FFFFE0
00000007FFFFE0
00000007FFFFE0
00000007FFFFE0
00000007FFFFE0
00000007FFFFE0
00000007FFFFE0
00000007FFFFE0
00000007FFFFE0
00000007FFFFE0
00000007FFFFE0
00000007FFFFE0
00000007FFFFE0
00000007FFFFE0
00000007FFFFE0
00000007FFFFE0
00000007FFFFE0
00000007FFFFE0
00000007FFFFE0
00000007FFFFE0
00000007FFFFE0
00000007FFFFE0
00000007FFFFE0
00000007FFFFE0
00000007FFFFE0
00000007FFFFE0
00000007FFFFE0
00000007FFFFE0
00000007FFFFE0
00000007FFFFE0
00000007FFFFE0
00000007FFFFE0
00000007FFFFE0
00000007FFFFE0
00000007FFFFE0
00000007FFFFE0
00000007FFFFE0
00000007FFFFE0
00000007FFFFE0
00000007FFFFE0
00000007FFFFE0
00000007FFFFE0
00000007FFFFE0
00000007FFFFE0
00000007FFFFE0
00000007FFFFE0
00000007FFFFE0
00000007FFFFE0
00000007FFFFE0
00000007FFFFE0
00000007FFFFE0
00000007FFFFE0
00000007FFFFE0
00000007FFFFE0
00000007FFFFE0
00000007FFFFE0
00000007FFFFE0
00000007FFFFE0
00000007FFFFE0
00000007FFFFE0
00000007FFFFE0
00000007FFFFE0
00000007FFFFE0
00000007FFFFE0
00000007FFFFE0
00000007FFFFE0
00000007FFFFE0
00000007FFFFE0
00000007FFFFE0
00000007FFFFE0
00000007FFFFE0
00000007FFFFE0
00000007FFFFE0
00000007FFFFE0
00000007FFFFE0
00000007FFFFE0
00000007FFFFE0
00000007FFFFE0
00000007FFFFE0
00000007FFFFE0
00000007FFFFE0
00000007FFFFE0
00000007FFFFE0
00000007FFFFE0
00000007FFFFE0
00000007FFFFE0
00000007FFFFE0
00000007FFFFE0
00000007FFFFE0
00000007FFFFE0
00000007FFFFE0
00000007FFFFE0
00000007FFFFE0
00000007FFFFE0
00000007FFFFE0
00000007FFFFE0
00000007FFFFE0
00000007FFFFE0
00000007FFFFE0
00000007FFFFE0
00000007FFFFE0
00000007FFFFE0
00000007FFFFE0
00000007FFFFE0
00000007FFFFE0
00000007FFFFE0
00000007FFFFE0
00000007FFFFE0
00000007FFFFE0
00000007FFFFE0
00000007FFFFE0
00000007FFFFE0
00000007FFFFE0
00000007FFFFE0
00000007FFFFE0
00000007FFFFE0
00000007FFFFE0
00000007FFFFE0
00000007FFFFE0
00000007FFFFE0
00000007FFFFE0
00000007FFFFE0
00000007FFFFE0
00000007FFFFE0
00000007FFFFE0
00000007FFFFE0
00000007FFFFE0
00000007FFFFE0
00000007FFFFE0
00000007FFFFE0
00000007FFFFE0
00000007FFFFE0
00000007FFFFE0
00000007FFFFE0
00000007FFFFE0
00000007FFFFE0
00000007FFFFE0
00000007FFFFE0
00000007FFFFE0
00000007FFFFE0
00000007FFFFE0
00000007FFFFE0
00000007FFFFE0
00000007FFFFE0
00000007FFFFE0
00000007FFFFE0
00000007FFFFE0
00000007FFFFE0
00000007FFFFE0
00000007FFFFE0
00000007FFFFE0
00000007FFFFE0
00000007FFFFE0
00000007FFFFE0
00000007FFFFE0
00000007FFFFE0
00000007FFFFE0
00000007FFFFE0
00000007FFFFE0
00000007FFFFE0
00000007FFFFE0
00000007FFFFE0
00000007FFFFE0
00000007FFFFE0
00000007FFFFE0
00000007FFFFE0
00000007FFFFE0
00000007FFFFE0
00000007FFFFE0
00000007FFFFE0
00000007FFFFE0
00000007FFFFE0
0000000FFFFFE0
0000000FFFFFE0
0000000FFFFFE0
0000000FFFFFE0
0000001FFFFFE0
0000001FFFFFE0
0000003FFFFFE0
000000FFFFFFE0
000003FFFFFFC0
1FFFFFFFFFFFC0
7FFFFFFFFFFFC0
7FFFFFFFFFFFC0
FFFFFFFFFFFF80
FFFFFFFFFFFF80
FFFFFFFFFFFF00
FFFFFFFFFFFF00
FFFFFFFFFFFE00
FFFFFFFFFFFE00
FFFFFFFFFFFC00
FFFFFFFFFFF800
FFFFFFFFFFF000
FFFFFFFFFFC000
FFFFFFFFFF0000
FFFFFFFFF80000
FFFFFFFF000000
ENDCHAR
STARTCHAR 004B
ENCODING 75
SWIDTH 457 0
DWIDTH 127 0
BBX 103 195 20 0
BITMAP
1FFFFC000000000000003FFFC0
3FFFFC00000000000001FFFFC0
7FFFFC00000000000007FFFF80
FFFFFC0000000000000FFFFF80
FFFFFC0000000000001FFFFF00
FFFFFC0000000000003FFFFF00
FFFFFC0000000000007FFFFE00
FFFFFC0000000000007FFFFE00
FFFFFC000000000000FFFFFC00
FFFFFC000000000000FFFFF800
FFFFFC000000000001FFFFF800
FFFFFC000000000001FFFFF000
FFFFFC000000000003FFFFF000
FFFFFC000000000007FFFFE000
FFFFFC000000000007FFFFE000
FFFFFC00000000000FFFFFC000
FFFFFC00000000000FFFFFC000
FFFFFC00000000001FFFFF8000
FFFFFC00000000001FFFFF8000
FFFFFC00000000003FFFFF0000
FFFFFC00000000003FFFFF0000
FFFFFC00000000007FFFFE0000
FFFFFC00000000007FFFFE0000
FFFFFC0000000000FFFFFC0000
FFFFFC0000000000FFFFFC0000
FFFFFC0000000001FFFFF80000
FFFFFC0000000001FFFFF80000
FFFFFC0000000003FFFFF00000
FFFFFC0000000003FFFFE00000
FFFFFC0000000007FFFFE00000
FFFFFC0000000007FFFFC00000
FFFFFC000000000FFFFFC00000
FFFFFC000000000FFFFF800000
FFFFFC000000001FFFFF800000
FFFFFC000000001FFFFF000000
FFFFFC000000003FFFFF000000
FFFFFC000000003FFFFE000000
FFFFFC000000007FFFFE000000
FFFFFC000000007FFFFC000000
FFFFFC00000000FFFFFC000000
FFFFFC00000000FFFFF8000000
FFFFFC00000001FFFFF8000000
FFFFFC00000001FFFFF0000000
FFFFFC00000003FFFFF0000000
FFFFFC00000003FFFFE0000000
FFFFFC00000007FFFFE0000000
FFFFFC00000007FFFFC0000000
FFFFFC0000000FFFFFC0000000
FFFFFC0000000FFFFF80000000
FFFFFC0000001FFFFF00000000
FFFFFC0000003FFFFF00000000
FFFFFC0000003FFFFE00000000
FFFFFC0000007FFFFE00000000
FFFFFC0000007FFFFC00000000
FFFFFC000000FFFFFC00000000
FFFFFC000000FFFFF800000000
FFFFFC000001FFFFF800000000
FFFFFC000001FFFFF000000000
FFFFFC000003FFFFF000000000
FFFFFC000003FFFFE000000000
FFFFFC000007FFFFE000000000
FFFFFC000007FFFFC000000000
FFFFFC00000FFFFFC000000000
FFFFFC00000FFFFF8000000000
FFFFFC00001FFFFF8000000000
FFFFFC00001FFFFF0000000000
FFFFFC00003FFFFF0000000000
FFFFFC00003FFFFE0000000000
FFFFFC00007FFFFE0000000000
FFFFFC00007FFFFC0000000000
FFFFFC0000FFFFF80000000000
FFFFFC0000FFFFF80000000000
FFFFFC0001FFFFF00000000000
FFFFFC0001FFFFF00000000000
FFFFFC0003FFFFE00000000000
FFFFFC0003FFFFE00000000000
FFFFFC0007FFFFC00000000000
FFFFFC0007FFFFC00000000000
FFFFFC000FFFFF800000000000
FFFFFC000FFFFF800000000000
FFFFFC001FFFFF000000000000
FFFFFC001FFFFF000000000000
FFFFFC003FFFFE000000000000
FFFFFC003FFFFE000000000000
FFFFFC007FFFFC000000000000
FFFFFC007FFFFC000000000000
FFFFFC007FFFF8000000000000
FFFFFC007FFFF8000000000000
FFFFFC007FFFF0000000000000
FFFFFC007FFFE0000000000000
FFFFFC007FFFE0000000000000
FFFFFC007FFFC0000000000000
FFFFFC007FFFC0000000000000
FFFFFC007FFFE0000000000000
FFFFFC007FFFE0000000000000
FFFFFC007FFFF0000000000000
FFFFFC007FFFF0000000000000
FFFFFC007FFFF8000000000000
FFFFFC007FFFF8000000000000
FFFFFC007FFFFC000000000000
FFFFFC007FFFFC000000000000
FFFFFC007FFFFE000000000000
FFFFFC007FFFFE000000000000
FFFFFC007FFFFF000000000000
FFFFFC003FFFFF000000000000
FFFFFC003FFFFF800000000000
FFFFFC001FFFFF800000000000
FFFFFC001FFFFFC00000000000
FFFFFC000FFFFFC00000000000
FFFFFC000FFFFFE00000000000
FFFFFC0007FFFFE00000000000
FFFFFC0007FFFFF00000000000
FFFFFC0003FFFFF00000000000
FFFFFC0003FFFFF80000000000
FFFFFC0001FFFFFC0000000000
FFFFFC0001FFFFFC0000000000
FFFFFC0000FFFFFE0000000000
FFFFFC0000FFFFFE0000000000
FFFFFC00007FFFFF0000000000
FFFFFC00007FFFFF0000000000
FFFFFC00003FFFFF8000000000
FFFFFC00003FFFFF8000000000
FFFFFC00001FFFFFC000000000
FFFFFC00001FFFFFC000000000
FFFFFC00000FFFFFE000000000
FFFFFC00000FFFFFE000000000
FFFFFC000007FFFFF000000000
FFFFFC000007FFFFF000000000
FFFFFC000003FFFFF800000000
FFFFFC000003FFFFF800000000
FFFFFC000001FFFFFC00000000
FFFFFC000001FFFFFC00000000
FFFFFC000000FFFFFE00000000
FFFFFC000000FFFFFE00000000
FFFFFC0000007FFFFF00000000
FFFFFC0000007FFFFF00000000
FFFFFC0000003FFFFF80000000
FFFFFC0000003FFFFF80000000
FFFFFC0000001FFFFFC0000000
FFFFFC0000001FFFFFC0000000
FFFFFC0000000FFFFFE0000000
FFFFFC0000000FFFFFE0000000
FFFFFC00000007FFFFF0000000
FFFFFC00000007FFFFF0000000
FFFFFC00000003FFFFF8000000
FFFFFC00000003FFFFF8000000
FFFFFC00000001FFFFFC000000
FFFFFC00000001FFFFFC000000
FFFFFC00000000FFFFFE000000
FFFFFC00000000FFFFFE000000
FFFFFC000000007FFFFF000000
FFFFFC000000007FFFFF800000
FFFFFC000000003FFFFF800000
FFFFFC000000003FFFFFC00000
FFFFFC000000001FFFFFC00000
FFFFFC000000001FFFFFE00000
FFFFFC000000001FFFFFE00000
FFFFFC000000000FFFFFF00000
FFFFFC000000000FFFFFF00000
FFFFFC0000000007FFFFF80000
FFFFFC0000000007FFFFF80000
FFFFFC0000000003FFFFFC0000
FFFFFC0000000003FFFFFC0000
FFFFFC0000000001FFFFFE0000
FFFFFC0000000001FFFFFE0000
FFFFFC0000000000FFFFFF0000
FFFFFC0000000000FFFFFF0000
FFFFFC00000000007FFFFF8000
FFFFFC00000000007FFFFF8000
FFFFFC00000000003FFFFFC000
FFFFFC00000000003FFFFFC000
FFFFFC00000000001FFFFFE000
FFFFFC00000000001FFFFFE000
FFFFFC00000000000FFFFFF000
FFFFFC00000000000FFFFFF000
FFFFFC000000000007FFFFF800
FFFFFC000000000007FFFFF800
FFFFFC000000000003FFFFFC00
FFFFFC000000000003FFFFFC00
FFFFFC000000000001FFFFFE00
FFFFFC000000000001FFFFFE00
FFFFFC000000000000FFFFFF00
FFFFFC000000000000FFFFFF00
FFFFFC0000000000007FFFFF80
FFFFFC0000000000007FFFFF80
FFFFFC0000000000003FFFFFC0
FFFFFC0000000000003FFFFFC0
FFFFFC0000000000001FFFFFE0
FFFFFC0000000000001FFFFFF0
FFFFFC0000000000000FFFFFF0
FFFFFC00000000000007FFFFF8
FFFFFC00000000000003FFFFF8
FFFFF800000000000001FFFFFC
FFFFF8000000000000007FFFFC
FFFFE0000000000000000FFFFE
ENDCHAR
STARTCHAR 004C
ENCODING 76
SWIDTH 388 0
DWIDTH 108 0
BBX 81 195 20 0
BITMAP
1FFFFC0000000000000000
3FFFFC0000000000000000
7FFFFC0000000000000000
FFFFFC0000000000000000
FFFFFC0000000000000000
FFFFFC0000000000000000
FFFFFC0000000000000000
FFFFFC0000000000000000
FFFFFC0000000000000000
FFFFFC0000000000000000
FFFFFC0000000000000000
FFFFFC0000000000000000
FFFFFC0000000000000000
FFFFFC0000000000000000
FFFFFC0000000000000000
FFFFFC0000000000000000
FFFFFC0000000000000000
FFFFFC0000000000000000
FFFFFC0000000000000000
FFFFFC0000000000000000
FFFFFC0000000000000000
FFFFFC0000000000000000
FFFFFC0000000000000000
FFFFFC0000000000000000
FFFFFC0000000000000000
FFFFFC0000000000000000
FFFFFC0000000000000000
FFFFFC0000000000000000
FFFFFC0000000000000000
FFFFFC0000000000000000
FFFFFC0000000000000000
FFFFFC0000000000000000
FFFFFC0000000000000000
FFFFFC0000000000000000
FFFFFC0000000000000000
FFFFFC0000000000000000
FFFFFC0000000000000000
FFFFFC0000000000000000
FFFFFC0000000000000000
FFFFFC0000000000000000
FFFFFC0000000000000000
FFFFFC0000000000000000
FFFFFC0000000000000000
FFFFFC0000000000000000
FFFFFC0000000000000000
FFFFFC0000000000000000
FFFFFC0000000000000000
FFFFFC0000000000000000
FFFFFC0000000000000000
FFFFFC0000000000000000
FFFFFC0000000000000000
FFFFFC0000000000000000
FFFFFC0000000000000000
FFFFFC0000000000000000
FFFFFC0000000000000000
FFFFFC0000000000000000
FFFFFC0000000000000000
FFFFFC0000000000000000
FFFFFC0000000000000000
FFFFFC0000000000000000
FFFFFC0000000000000000
FFFFFC0000000000000000
FFFFFC0000000000000000
FFFFFC0000000000000000
FFFFFC0000000000000000
FFFFFC0000000000000000
FFFFFC0000000000000000
FFFFFC0000000000000000
FFFFFC0000000000000000
FFFFFC0000000000000000
FFFFFC0000000000000000
FFFFFC0000000000000000
FFFFFC0000000000000000
FFFFFC0000000000000000
FFFFFC0000000000000000
FFFFFC0000000000000000
FFFFFC0000000000000000
FFFFFC0000000000000000
FFFFFC0000000000000000
FFFFFC0000000000000000
FFFFFC0000000000000000
FFFFFC0000000000000000
FFFFFC0000000000000000
FFFFFC0000000000000000
FFFFFC0000000000000000
FFFFFC0000000000000000
FFFFFC0000000000000000
FFFFFC0000000000000000
FFFFFC0000000000000000
FFFFFC0000000000000000
FFFFFC0000000000000000
FFFFFC0000000000000000
FFFFFC0000000000000000
FFFFFC0000000000000000
FFFFFC0000000000000000
FFFFFC0000000000000000
FFFFFC0000000000000000
FFFFFC0000000000000000
FFFFFC0000000000000000
FFFFFC0000000000000000
FFFFFC0000000000000000
FFFFFC0000000000000000
FFFFFC0000000000000000
FFFFFC0000000000000000
FFFFFC0000000000000000
FFFFFC0000000000000000
FFFFFC0000000000000000
FFFFFC0000000000000000
FFFFFC0000000000000000
FFFFFC0000000000000000
FFFFFC0000000000000000
FFFFFC0000000000000000
FFFFFC0000000000000000
FFFFFC0000000000000000
FFFFFC0000000000000000
FFFFFC0000000000000000
FFFFFC0000000000000000
FFFFFC0000000000000000
FFFFFC0000000000000000
FFFFFC0000000000000000
FFFFFC0000000000000000
FFFFFC0000000000000000
FFFFFC0000000000000000
FFFFFC0000000000000000
FFFFFC0000000000000000
FFFFFC0000000000000000
FFFFFC0000000000000000
FFFFFC0000000000000000
FFFFFC0000000000000000
FFFFFC0000000000000000
FFFFFC0000000000000000
FFFFFC0000000000000000
FFFFFC0000000000000000
FFFFFC0000000000000000
FFFFFC0000000000000000
FFFFFC0000000000000000
FFFFFC0000000000000000
FFFFFC0000000000000000
FFFFFC0000000000000000
FFFFFC0000000000000000
FFFFFC0000000000000000
FFFFFC0000000000000000
FFFFFC0000000000000000
FFFFFC0000000000000000
FFFFFC0000000000000000
FFFFFC0000000000000000
FFFFFC0000000000000000
FFFFFC0000000000000000
FFFFFC0000000000000000
FFFFFC0000000000000000
FFFFFC0000000000000000
FFFFFC0000000000000000
FFFFFC0000000000000000
FFFFFC0000000000000000
FFFFFC0000000000000000
FFFFFC0000000000000000
FFFFFC0000000000000000
FFFFFC0000000000000000
FFFFFC0000000000000000
FFFFFC0000000000000000
FFFFFC0000000000000000
FFFFFC0000000000000000
FFFFFC0000000000000000
FFFFFC0000000000000000
FFFFFC0000000000000000
FFFFFC0000000000000000
FFFFFC0000000000000000
FFFFFC0000000000000000
FFFFFC0000000000000000
FFFFFC0000000000000000
FFFFFC0000000000000000
FFFFFC0000000000000000
FFFFFC0000000000000000
FFFFFC0000000000000000
FFFFFC0000000000000000
FFFFFC0000000000000000
FFFFFC0000000000000000
FFFFFC0000000000000000
FFFFFC0000000000000000
FFFFFFFFFFFFFFFFFFFF80
FFFFFFFFFFFFFFFFFFFF80
FFFFFFFFFFFFFFFFFFFF80
FFFFFFFFFFFFFFFFFFFF80
FFFFFFFFFFFFFFFFFFFF80
FFFFFFFFFFFFFFFFFFFF80
FFFFFFFFFFFFFFFFFFFF80
FFFFFFFFFFFFFFFFFFFF80
FFFFFFFFFFFFFFFFFFFF80
FFFFFFFFFFFFFFFFFFFF80
FFFFFFFFFFFFFFFFFFFF80
FFFFFFFFFFFFFFFFFFFF80
FFFFFFFFFFFFFFFFFFFF00
FFFFFFFFFFFFFFFFFFFF00
FFFFFFFFFFFFFFFFFFFE00
FFFFFFFFFFFFFFFFFFF800
ENDCHAR
STARTCHAR 004D
ENCODING 77
SWIDTH 640 0
DWIDTH 178 0
BBX 138 195 20 0
BITMAP
1FFFFFC00000000000000000000007FFFFC0
3FFFFFE0000000000000000000001FFFFFC0
7FFFFFE0000000000000000000003FFFFFC0
FFFFFFF0000000000000000000007FFFFFC0
FFFFFFF000000000000000000000FFFFFFC0
FFFFFFF000000000000000000000FFFFFFC0
FFFFFFF800000000000000000001FFFFFFC0
FFFFFFF800000000000000000001FFFFFFC0
FFFFFFF800000000000000000001FFFFFFC0
FFFFFFFC00000000000000000003FFFFFFC0
FFFFFFFC00000000000000000003FFFFFFC0
FFFFFFFE00000000000000000007FFFFFFC0
FFFFFFFE00000000000000000007FFFFFFC0
FFFFFFFE0000000000000000000FFFFFFFC0
FFFFFFFF0000000000000000000FFFFFFFC0
FFFFFFFF0000000000000000000FFFFFFFC0
FFFFFFFF8000000000000000001FFFFFFFC0
FFFFFFFF8000000000000000001FFFFFFFC0
FFFFFFFF8000000000000000003FFFFFFFC0
FFFFFFFFC000000000000000003FFFFFFFC0
FFFFFFFFC000000000000000007FFFFFFFC0
FFFFFFFFE000000000000000007FFFFFFFC0
FFFFFFFFE000000000000000007FFFFFFFC0
FFFFFFFFE00000000000000000FFFFFFFFC0
FFFFFFFFF00000000000000000FFFFFFFFC0
FFFFFFFFF00000000000000001FFFFFFFFC0
FFFFFFFFF80000000000000001FFFFFFFFC0
FFFFFFFFF80000000000000001FFFFFFFFC0
FFFFFFFFF80000000000000003FFFFFFFFC0
FFFFFFFFFC0000000000000003FFFFFFFFC0
FFFFFFFFFC0000000000000007FFFFFFFFC0
FFFFFFFFFC0000000000000007FFFFFFFFC0
FFFFFFFFFE000000000000000FFFFFFFFFC0
FFFFE7FFFE000000000000000FFFF3FFFFC0
FFFFE3FFFF000000000000000FFFF3FFFFC0
FFFFE3FFFF000000000000001FFFE3FFFFC0
FFFFE3FFFF000000000000001FFFE3FFFFC0
FFFFE1FFFF800000000000003FFFE3FFFFC0
FFFFF1FFFF800000000000003FFFC3FFFFC0
FFFFF1FFFFC00000000000003FFFC3FFFFC0
FFFFF0FFFFC00000000000007FFF83FFFFC0
FFFFF0FFFFC00000000000007FFF83FFFFC0
FFFFF07FFFE0000000000000FFFF87FFFFC0
FFFFF07FFFE0000000000000FFFF07FFFFC0
FFFFF07FFFF0000000000001FFFF07FFFFC0
FFFFF03FFFF0000000000001FFFE07FFFFC0
FFFFF03FFFF0000000000001FFFE07FFFFC0
FFFFF03FFFF8000000000003FFFC07FFFFC0
FFFFF01FFFF8000000000003FFFC07FFFFC0
FFFFF01FFFFC000000000007FFFC07FFFFC0
FFFFF00FFFFC000000000007FFF807FFFFC0
FFFFF00FFFFC00000000000FFFF807FFFFC0
FFFFF00FFFFE00000000000FFFF007FFFFC0
FFFFF807FFFE00000000000FFFF007FFFFC0
FFFFF807FFFE00000000001FFFF007FFFFC0
FFFFF807FFFF00000000001FFFE00FFFFFC0
FFFFF803FFFF00000000003FFFE00FFFFFC0
FFFFF803FFFF80000000003FFFC00FFFFFC0
FFFFF801FFFF80000000003FFFC00FFFFFC0
FFFFF801FFFF80000000007FFFC00FFFFFC0
FFFFF801FFFFC0000000007FFF800FFFFFC0
FFFFF800FFFFC000000000FFFF800FFFFFC0
FFFFF800FFFFE000000000FFFF000FFFFFC0
FFFFF800FFFFE000000001FFFF000FFFFFC0
FFFFF8007FFFE000000001FFFE000FFFFFC0
FFFFF8007FFFF000000001FFFE000FFFFFC0
FFFFF8003FFFF000000003FFFE000FFFFFC0
FFFFF8003FFFF800000003FFFC000FFFFFC0
FFFFF8003FFFF800000007FFFC000FFFFFC0
FFFFF8001FFFF800000007FFF8000FFFFFC0
FFFFF8001FFFFC0000000FFFF8000FFFFFC0
FFFFF8001FFFFC0000000FFFF8000FFFFFC0
FFFFF8000FFFFE0000000FFFF0000FFFFFC0
FFFFF8000FFFFE0000001FFFF0000FFFFFC0
FFFFFC0007FFFE0000001FFFE0000FFFFFC0
FFFFFC0007FFFF0000003FFFE0000FFFFFC0
FFFFFC0007FFFF0000003FFFE0000FFFFFC0
FFFFFC0003FFFF0000003FFFC0000FFFFFC0
FFFFFC0003FFFF8000007FFFC0000FFFFFC0
FFFFFC0001FFFF8000007FFF80000FFFFFC0
FFFFFC0001FFFFC00000FFFF80000FFFFFC0
FFFFFC0001FFFFC00000FFFF80000FFFFFC0
FFFFFC0000FFFFC00001FFFF00000FFFFFC0
FFFFFC0000FFFFE00001FFFF00000FFFFFC0
FFFFFC0000FFFFE00001FFFE00000FFFFFC0
FFFFFC00007FFFF00003FFFE00000FFFFFC0
FFFFFC00007FFFF00003FFFC00000FFFFFC0
FFFFFC00003FFFF00007FFFC00000FFFFFC0
FFFFFC00003FFFF80007FFFC00000FFFFFC0
FFFFFC00003FFFF80007FFF800000FFFFFC0
FFFFFC00001FFFFC000FFFF800000FFFFFC0
FFFFFC00001FFFFC000FFFF000000FFFFFC0
FFFFFC00001FFFFC001FFFF000000FFFFFC0
FFFFFC00000FFFFC001FFFF000000FFFFFC0
FFFFFC00000FFFFE001FFFE000000FFFFFC0
FFFFFC000007FFFE001FFFE000000FFFFFC0
FFFFFC000007FFFE003FFFC000000FFFFFC0
FFFFFC000007FFFE003FFFC000000FFFFFC0
FFFFFC000003FFFF003FFFC000000FFFFFC0
FFFFFC000003FFFF003FFF8000000FFFFFC0
FFFFFC000003FFFF007FFF8000000FFFFFC0
FFFFFC000001FFFF007FFF0000000FFFFFC0
FFFFFC000001FFFF807FFF0000000FFFFFC0
FFFFFC000000FFFF80FFFE0000000FFFFFC0
FFFFFC000000FFFF80FFFE0000000FFFFFC0
FFFFFC000000FFFFC0FFFE0000000FFFFFC0
FFFFFC0000007FFFC0FFFC0000000FFFFFC0
FFFFFC0000007FFFC1FFFC0000000FFFFFC0
FFFFFC0000007FFFC1FFF80000000FFFFFC0
FFFFFC0000003FFFE1FFF80000000FFFFFC0
FFFFFC0000003FFFE3FFF80000000FFFFFC0
FFFFFC0000001FFFE3FFF00000000FFFFFC0
FFFFFC0000001FFFE3FFF00000000FFFFFC0
FFFFFC0000001FFFF3FFE00000000FFFFFC0
FFFFFC0000000FFFFFFFE00000000FFFFFC0
FFFFFC0000000FFFFFFFE00000000FFFFFC0
FFFFFC00000007FFFFFFC00000000FFFFFC0
FFFFFC00000007FFFFFFC00000000FFFFFC0
FFFFFC00000007FFFFFF800000000FFFFFC0
FFFFFC00000003FFFFFF800000000FFFFFC0
FFFFFC00000003FFFFFF000000000FFFFFC0
FFFFFC00000003FFFFFF000000000FFFFFC0
FFFFFC00000001FFFFFF000000000FFFFFC0
FFFFFC00000001FFFFFE000000000FFFFFC0
FFFFFC00000000FFFFFE000000000FFFFFC0
FFFFFC00000000FFFFFC000000000FFFFFC0
FFFFFC00000000FFFFFC000000000FFFFFC0
FFFFFC000000007FFFFC000000000FFFFFC0
FFFFFC000000007FFFF8000000000FFFFFC0
FFFFFC000000007FFFF8000000000FFFFFC0
FFFFFC000000003FFFF0000000000FFFFFC0
FFFFFC000000003FFFE0000000000FFFFFC0
FFFFFC000000001FFFE0000000000FFFFFC0
FFFFFC000000001FFFC0000000000FFFFFC0
FFFFFC000000001FFF00000000000FFFFFC0
FFFFFC00000000000000000000000FFFFFC0
FFFFFC00000000000000000000000FFFFFC0
FFFFFC00000000000000000000000FFFFFC0
FFFFFC00000000000000000000000FFFFFC0
FFFFFC00000000000000000000000FFFFFC0
FFFFFC00000000000000000000000FFFFFC0
FFFFFC00000000000000000000000FFFFFC0
FFFFFC00000000000000000000000FFFFFC0
FFFFFC00000000000000000000000FFFFFC0
FFFFFC00000000000000000000000FFFFFC0
FFFFFC00000000000000000000000FFFFFC0
FFFFFC00000000000000000000000FFFFFC0
FFFFFC00000000000000000000000FFFFFC0
FFFFFC00000000000000000000000FFFFFC0
FFFFFC00000000000000000000000FFFFFC0
FFFFFC00000000000000000000000FFFFFC0
FFFFFC00000000000000000000000FFFFFC0
FFFFFC00000000000000000000000FFFFFC0
FFFFFC00000000000000000000000FFFFFC0
FFFFFC00000000000000000000000FFFFFC0
FFFFFC00000000000000000000000FFFFFC0
FFFFFC00000000000000000000000FFFFFC0
FFFFFC00000000000000000000000FFFFFC0
FFFFFC00000000000000000000000FFFFFC0
FFFFFC00000000000000000000000FFFFFC0
FFFFFC00000000000000000000000FFFFFC0
FFFFFE00000000000000000000000FFFFFC0
FFFFFE00000000000000000000000FFFFFC0
FFFFFE00000000000000000000000FFFFFC0
FFFFFE00000000000000000000000FFFFFC0
FFFFFE00000000000000000000000FFFFFC0
FFFFFE00000000000000000000000FFFFFC0
FFFFFE00000000000000000000000FFFFFC0
FFFFFE00000000000000000000000FFFFFC0
FFFFFE00000000000000000000000FFFFFC0
FFFFFE00000000000000000000000FFFFFC0
FFFFFE00000000000000000000000FFFFFC0
FFFFFE00000000000000000000000FFFFFC0
FFFFFE00000000000000000000000FFFFFC0
FFFFFE00000000000000000000000FFFFFC0
FFFFFE00000000000000000000000FFFFFC0
FFFFFE00000000000000000000000FFFFFC0
FFFFFE00000000000000000000000FFFFFC0
FFFFFE00000000000000000000000FFFFFC0
FFFFFE00000000000000000000000FFFFFC0
FFFFFE00000000000000000000000FFFFFC0
FFFFFE00000000000000000000000FFFFFC0
FFFFFE00000000000000000000000FFFFFC0
FFFFFE00000000000000000000000FFFFFC0
FFFFFE00000000000000000000000FFFFFC0
FFFFFE00000000000000000000000FFFFFC0
FFFFFE00000000000000000000000FFFFFC0
FFFFFE00000000000000000000000FFFFFC0
FFFFFE00000000000000000000000FFFFFC0
FFFFFE00000000000000000000000FFFFFC0
FFFFFE00000000000000000000000FFFFFC0
FFFFFC00000000000000000000000FFFFF80
FFFFFC00000000000000000000000FFFFF80
FFFFF800000000000000000000000FFFFF00
FFFFE000000000000000000000000FFFFC00
ENDCHAR
STARTCHAR 004E
ENCODING 78
SWIDTH 536 0
DWIDTH 149 0
BBX 109 195 20 0
BITMAP
1FFFFE00000000000000003FFFF8
3FFFFE0000000000000000FFFFF8
7FFFFF0000000000000001FFFFF8
FFFFFF0000000000000001FFFFF8
FFFFFF0000000000000001FFFFF8
FFFFFF8000000000000001FFFFF8
FFFFFF8000000000000003FFFFF8
FFFFFFC000000000000003FFFFF8
FFFFFFC000000000000003FFFFF8
FFFFFFE000000000000003FFFFF8
FFFFFFE000000000000003FFFFF8
FFFFFFE000000000000003FFFFF8
FFFFFFF000000000000003FFFFF8
FFFFFFF000000000000003FFFFF8
FFFFFFF800000000000003FFFFF8
FFFFFFF800000000000003FFFFF8
FFFFFFFC00000000000003FFFFF8
FFFFFFFC00000000000003FFFFF8
FFFFFFFE00000000000003FFFFF8
FFFFFFFE00000000000003FFFFF8
FFFFFFFE00000000000003FFFFF8
FFFFFFFF00000000000003FFFFF8
FFFFFFFF00000000000003FFFFF8
FFFFFFFF80000000000003FFFFF8
FFFFFFFF80000000000003FFFFF8
FFFFFFFFC0000000000003FFFFF8
FFFFFFFFC0000000000003FFFFF8
FFFFFFFFC0000000000003FFFFF8
FFFFFFFFE0000000000003FFFFF8
FFFFFFFFE0000000000003FFFFF8
FFFFFFFFF0000000000003FFFFF8
FFFFFFFFF0000000000003FFFFF8
FFFFFFFFF8000000000003FFFFF8
FFFFCFFFF8000000000003FFFFF8
FFFFCFFFF8000000000003FFFFF8
FFFFC7FFFC000000000003FFFFF8
FFFFC7FFFC000000000003FFFFF8
FFFFE7FFFE000000000003FFFFF8
FFFFE3FFFE000000000003FFFFF8
FFFFE3FFFF000000000003FFFFF8
FFFFE3FFFF000000000003FFFFF8
FFFFE1FFFF000000000003FFFFF8
FFFFE1FFFF800000000003FFFFF8
FFFFE1FFFF800000000003FFFFF8
FFFFE0FFFFC00000000003FFFFF8
FFFFE0FFFFC00000000003FFFFF8
FFFFF0FFFFE00000000003FFFFF8
FFFFF07FFFE00000000003FFFFF8
FFFFF07FFFE00000000003FFFFF8
FFFFF07FFFF00000000003FFFFF8
FFFFF03FFFF00000000003FFFFF8
FFFFF03FFFF80000000003FFFFF8
FFFFF01FFFF80000000003FFFFF8
FFFFF01FFFFC0000000003FFFFF8
FFFFF01FFFFC0000000003FFFFF8
FFFFF00FFFFC0000000003FFFFF8
FFFFF80FFFFE0000000003FFFFF8
FFFFF80FFFFE0000000003FFFFF8
FFFFF807FFFF0000000003FFFFF8
FFFFF807FFFF0000000003FFFFF8
FFFFF807FFFF8000000003FFFFF8
FFFFF803FFFF8000000003FFFFF8
FFFFF803FFFF8000000003FFFFF8
FFFFF803FFFFC000000003FFFFF8
FFFFF801FFFFC000000003FFFFF8
FFFFFC01FFFFE000000003FFFFF8
FFFFFC01FFFFE000000003FFFFF8
FFFFFC00FFFFF000000003FFFFF8
FFFFFC00FFFFF000000003FFFFF8
FFFFFC00FFFFF800000003FFFFF8
FFFFFC007FFFF800000003FFFFF8
FFFFFC007FFFF800000003FFFFF8
FFFFFC007FFFFC00000003FFFFF8
FFFFFC003FFFFC00000003FFFFF8
FFFFFC003FFFFE00000003FFFFF8
FFFFFC003FFFFE00000003FFFFF8
FFFFFC001FFFFF00000003FFFFF8
FFFFFC001FFFFF00000003FFFFF8
FFFFFC000FFFFF00000003FFFFF8
FFFFFC000FFFFF80000003FFFFF8
FFFFFC000FFFFF80000003FFFFF8
FFFFFC0007FFFFC0000003FFFFF8
FFFFFC0007FFFFC0000003FFFFF8
FFFFFC0003FFFFE0000003FFFFF8
FFFFFC0003FFFFE0000003FFFFF8
FFFFFC0001FFFFE0000003FFFFF8
FFFFFC0001FFFFF0000003FFFFF8
FFFFFC0000FFFFF0000003FFFFF8
FFFFFC0000FFFFF8000003FFFFF8
FFFFFC0000FFFFF8000003FFFFF8
FFFFFC00007FFFFC000003FFFFF8
FFFFFC00007FFFFC000003FFFFF8
FFFFFC00003FFFFC000003FFFFF8
FFFFFC00003FFFFE000003FFFFF8
FFFFFC00001FFFFE000003FFFFF8
FFFFFC00001FFFFF000003FFFFF8
FFFFFC00001FFFFF000003FFFFF8
FFFFFC00000FFFFF800003FFFFF8
FFFFFC00000FFFFF800003FFFFF8
FFFFFC000007FFFF800003FFFFF8
FFFFFC000007FFFFC00003FFFFF8
FFFFFC000003FFFFC00003FFFFF8
FFFFFC000003FFFFE00003FFFFF8
FFFFFC000001FFFFE00003FFFFF8
FFFFFC000001FFFFF00003FFFFF8
FFFFFC000001FFFFF00003FFFFF8
FFFFFC000000FFFFF00003FFFFF8
FFFFFC000000FFFFF80003FFFFF8
FFFFFC0000007FFFF80003FFFFF8
FFFFFC0000007FFFFC0003FFFFF8
FFFFFC0000003FFFFC0003FFFFF8
FFFFFC0000003FFFFE0003FFFFF8
FFFFFC0000001FFFFE0003FFFFF8
FFFFFC0000001FFFFE0003FFFFF8
FFFFFC0000001FFFFF0003FFFFF8
FFFFFC0000000FFFFF0003FFFFF8
FFFFFC0000000FFFFF8003FFFFF8
FFFFFC00000007FFFF8003FFFFF8
FFFFFC00000007FFFFC003FFFFF8
FFFFFC00000003FFFFC001FFFFF8
FFFFFC00000003FFFFC001FFFFF8
FFFFFC00000003FFFFE001FFFFF8
FFFFFC00000001FFFFE001FFFFF8
FFFFFC00000001FFFFF001FFFFF8
FFFFFC00000000FFFFF001FFFFF8
FFFFFC00000000FFFFF001FFFFF8
FFFFFC000000007FFFF801FFFFF8
FFFFFC000000007FFFF801FFFFF8
FFFFFC000000003FFFF800FFFFF8
FFFFFC000000003FFFFC00FFFFF8
FFFFFC000000003FFFFC00FFFFF8
FFFFFC000000001FFFFC00FFFFF8
FFFFFC000000001FFFFE00FFFFF8
FFFFFC000000000FFFFE00FFFFF8
FFFFFC000000000FFFFF00FFFFF8
FFFFFC0000000007FFFF00FFFFF8
FFFFFC0000000007FFFF00FFFFF8
FFFFFC0000000007FFFF80FFFFF8
FFFFFC0000000003FFFF807FFFF8
FFFFFC0000000003FFFF807FFFF8
FFFFFC0000000001FFFFC07FFFF8
FFFFFC0000000001FFFFC07FFFF8
FFFFFC0000000000FFFFE07FFFF8
FFFFFC0000000000FFFFE07FFFF8
FFFFFC00000000007FFFE07FFFF8
FFFFFC00000000007FFFF07FFFF8
FFFFFC00000000007FFFF07FFFF8
FFFFFC00000000003FFFF03FFFF8
FFFFFC00000000003FFFF83FFFF8
FFFFFC00000000001FFFF83FFFF8
FFFFFC00000000001FFFF83FFFF8
FFFFFC00000000000FFFFC3FFFF8
FFFFFC00000000000FFFFC3FFFF8
FFFFFC000000000007FFFE3FFFF8
FFFFFC000000000007FFFE3FFFF8
FFFFFC000000000007FFFE3FFFF8
FFFFFC000000000003FFFF3FFFF8
FFFFFC000000000003FFFF1FFFF8
FFFFFC000000000001FFFF1FFFF8
FFFFFC000000000001FFFF9FFFF8
FFFFFC000000000000FFFF9FFFF8
FFFFFC000000000000FFFFFFFFF8
FFFFFC000000000000FFFFFFFFF8
FFFFFC0000000000007FFFFFFFF8
FFFFFC0000000000007FFFFFFFF8
FFFFFC0000000000003FFFFFFFF8
FFFFFC0000000000003FFFFFFFF8
FFFFFC0000000000001FFFFFFFF8
FFFFFC0000000000001FFFFFFFF8
FFFFFC0000000000000FFFFFFFF8
FFFFFC0000000000000FFFFFFFF8
FFFFFC0000000000000FFFFFFFF8
FFFFFC00000000000007FFFFFFF8
FFFFFC00000000000007FFFFFFF8
FFFFFC00000000000003FFFFFFF8
FFFFFC00000000000003FFFFFFF8
FFFFFC00000000000001FFFFFFF8
FFFFFC00000000000001FFFFFFF8
FFFFFC00000000000000FFFFFFF8
FFFFFC00000000000000FFFFFFF8
FFFFFC00000000000000FFFFFFF8
FFFFFC000000000000007FFFFFF8
FFFFFC000000000000007FFFFFF8
FFFFFC000000000000003FFFFFF8
FFFFFC000000000000003FFFFFF8
FFFFFC000000000000001FFFFFF8
FFFFFC000000000000001FFFFFF8
FFFFFC000000000000001FFFFFF8
FFFFFC000000000000000FFFFFF8
FFFFFC000000000000000FFFFFF8
FFFFFC0000000000000007FFFFF0
FFFFFC0000000000000007FFFFF0
FFFFF80000000000000003FFFFF0
FFFFF80000000000000003FFFFE0
FFFFE00000000000000001FFFF80
ENDCHAR
STARTCHAR 004F
ENCODING 79
SWIDTH 486 0
DWIDTH 135 0
BBX 96 195 19 0
BITMAP
00001FFFFFFFFFFFFFF80000
0001FFFFFFFFFFFFFFFFC000
000FFFFFFFFFFFFFFFFFF800
003FFFFFFFFFFFFFFFFFFE00
00FFFFFFFFFFFFFFFFFFFF00
01FFFFFFFFFFFFFFFFFFFFC0
03FFFFFFFFFFFFFFFFFFFFE0
07FFFFFFFFFFFFFFFFFFFFE0
0FFFFFFFFFFFFFFFFFFFFFF0
0FFFFFFFFFFFFFFFFFFFFFF8
1FFFFFFFFFFFFFFFFFFFFFF8
1FFFFFFFFFFFFFFFFFFFFFFC
3FFFFFFFFFFFFFFFFFFFFFFC
3FFFFFFFFFFFFFFFFFFFFFFC
3FFFFFFFFFFFFFFFFFFFFFFE
3FFFFFFFFFFFFFFFFFFFFFFE
7FFFFFFC000000003FFFFFFE
7FFFFFE00000000007FFFFFE
7FFFFFC00000000001FFFFFF
7FFFFF800000000000FFFFFF
7FFFFF000000000000FFFFFF
7FFFFF000000000000FFFFFF
7FFFFF0000000000007FFFFF
FFFFFE0000000000007FFFFF
FFFFFE0000000000007FFFFF
FFFFFE0000000000007FFFFF
FFFFFE0000000000003FFFFF
FFFFFE0000000000003FFFFF
FFFFFE0000000000003FFFFF
FFFFFE0000000000003FFFFF
FFFFFE0000000000003FFFFF
FFFFFE0000000000003FFFFF
FFFFFE0000000000003FFFFF
FFFFFE0000000000003FFFFF
FFFFFE0000000000003FFFFF
FFFFFE0000000000003FFFFF
FFFFFE0000000000003FFFFF
FFFFFE0000000000003FFFFF
FFFFFE0000000000003FFFFF
FFFFFE0000000000003FFFFF
FFFFFE0000000000003FFFFF
FFFFFE0000000000003FFFFF
FFFFFE0000000000003FFFFF
FFFFFE0000000000003FFFFF
FFFFFE0000000000003FFFFF
FFFFFE0000000000003FFFFF
FFFFFE0000000000003FFFFF
FFFFFE0000000000003FFFFF
FFFFFE0000000000003FFFFF
FFFFFE0000000000003FFFFF
FFFFFE0000000000003FFFFF
FFFFFE0000000000003FFFFF
FFFFFE0000000000003FFFFF
FFFFFE0000000000003FFFFF
FFFFFE0000000000003FFFFF
FFFFFE0000000000003FFFFF
FFFFFE0000000000003FFFFF
FFFFFE0000000000003FFFFF
FFFFFE0000000000003FFFFF
FFFFFE0000000000003FFFFF
FFFFFE0000000000003FFFFF
FFFFFE0000000000003FFFFF
FFFFFE0000000000003FFFFF
FFFFFE0000000000003FFFFF
FFFFFE0000000000003FFFFF
FFFFFE0000000000003FFFFF
FFFFFE0000000000003FFFFF
FFFFFE0000000000003FFFFF
FFFFFE0000000000003FFFFF
FFFFFE0000000000003FFFFF
FFFFFE0000000000003FFFFF
FFFFFE0000000000003FFFFF
FFFFFE0000000000003FFFFF
FFFFFE0000000000003FFFFF
FFFFFE0000000000003FFFFF
FFFFFE0000000000003FFFFF
FFFFFE0000000000003FFFFF
FFFFFE0000000000003FFFFF
FFFFFE0000000000003FFFFF
FFFFFE0000000000003FFFFF
FFFFFE0000000000003FFFFF
FFFFFE0000000000003FFFFF
FFFFFE0000000000003FFFFF
FFFFFE0000000000003FFFFF
FFFFFE0000000000003FFFFF
FFFFFE0000000000003FFFFF
FFFFFE0000000000003FFFFF
FFFFFE0000000000003FFFFF
FFFFFE0000000000003FFFFF
FFFFFE0000000000003FFFFF
FFFFFE0000000000003FFFFF
FFFFFE0000000000003FFFFF
FFFFFE0000000000003FFFFF
FFFFFE0000000000003FFFFF
FFFFFE0000000000003FFFFF
FFFFFE0000000000003FFFFF
FFFFFE0000000000003FFFFF
FFFFFE0000000000003FFFFF
FFFFFE0000000000003FFFFF
FFFFFE0000000000003FFFFF
FFFFFE0000000000003FFFFF
FFFFFE0000000000003FFFFF
FFFFFE0000000000003FFFFF
FFFFFE0000000000003FFFFF
FFFFFE0000000000003FFFFF
FFFFFE0000000000003FFFFF
FFFFFE0000000000003FFFFF
FFFFFE0000000000003FFFFF
FFFFFE0000000000003FFFFF
FFFFFE0000000000003FFFFF
FFFFFE0000000000003FFFFF
FFFFFE0000000000003FFFFF
FFFFFE0000000000003FFFFF
FFFFFE0000000000003FFFFF
FFFFFE0000000000003FFFFF
FFFFFE0000000000003FFFFF
FFFFFE0000000000003FFFFF
FFFFFE0000000000003FFFFF
FFFFFE0000000000003FFFFF
FFFFFE0000000000003FFFFF
FFFFFE0000000000003FFFFF
FFFFFE0000000000003FFFFF
FFFFFE0000000000003FFFFF
FFFFFE0000000000003FFFFF
FFFFFE0000000000003FFFFF
FFFFFE0000000000003FFFFF
FFFFFE0000000000003FFFFF
FFFFFE0000000000003FFFFF
FFFFFE0000000000003FFFFF
FFFFFE0000000000003FFFFF
FFFFFE0000000000003FFFFF
FFFFFE0000000000003FFFFF
FFFFFE0000000000003FFFFF
FFFFFE0000000000003FFFFF
FFFFFE0000000000003FFFFF
FFFFFE0000000000003FFFFF
FFFFFE0000000000003FFFFF
FFFFFE0000000000003FFFFF
FFFFFE0000000000003FFFFF
FFFFFE0000000000003FFFFF
FFFFFE0000000000003FFFFF
FFFFFE0000000000003FFFFF
FFFFFE0000000000003FFFFF
FFFFFE0000000000003FFFFF
FFFFFE0000000000003FFFFF
FFFFFE0000000000003FFFFF
FFFFFE0000000000003FFFFF
FFFFFE0000000000003FFFFF
FFFFFE0000000000003FFFFF
FFFFFE0000000000003FFFFF
FFFFFE0000000000003FFFFF
FFFFFE0000000000003FFFFF
FFFFFE0000000000003FFFFF
FFFFFE0000000000003FFFFF
FFFFFE0000000000003FFFFF
FFFFFE0000000000003FFFFF
FFFFFE0000000000003FFFFF
FFFFFE0000000000003FFFFF
FFFFFE0000000000003FFFFF
FFFFFE0000000000003FFFFF
FFFFFE0000000000003FFFFF
FFFFFE0000000000003FFFFF
FFFFFE0000000000003FFFFF
FFFFFE0000000000003FFFFF
FFFFFE0000000000003FFFFF
FFFFFE0000000000003FFFFF
FFFFFE0000000000003FFFFF
FFFFFE0000000000003FFFFF
FFFFFE0000000000003FFFFF
FFFFFE0000000000007FFFFF
FFFFFE0000000000007FFFFF
FFFFFE0000000000007FFFFF
7FFFFF0000000000007FFFFF
7FFFFF000000000000FFFFFF
7FFFFF000000000000FFFFFF
7FFFFF800000000000FFFFFF
7FFFFFC00000000001FFFFFF
7FFFFFE00000000007FFFFFE
7FFFFFFC000000003FFFFFFE
3FFFFFFFFFFFFFFFFFFFFFFE
3FFFFFFFFFFFFFFFFFFFFFFE
3FFFFFFFFFFFFFFFFFFFFFFC
3FFFFFFFFFFFFFFFFFFFFFFC
1FFFFFFFFFFFFFFFFFFFFFFC
1FFFFFFFFFFFFFFFFFFFFFF8
0FFFFFFFFFFFFFFFFFFFFFF8
0FFFFFFFFFFFFFFFFFFFFFF0
07FFFFFFFFFFFFFFFFFFFFE0
03FFFFFFFFFFFFFFFFFFFFE0
01FFFFFFFFFFFFFFFFFFFFC0
00FFFFFFFFFFFFFFFFFFFF00
003FFFFFFFFFFFFFFFFFFE00
000FFFFFFFFFFFFFFFFFF800
0003FFFFFFFFFFFFFFFFC000
00001FFFFFFFFFFFFFF80000
ENDCHAR
STARTCHAR 0050
ENCODING 80
SWIDTH 446 0
DWIDTH 124 0
BBX 90 195 20 0
BITMAP
1FFFFFFFFFFFFFFFFE000000
3FFFFFFFFFFFFFFFFFF00000
7FFFFFFFFFFFFFFFFFFE0000
FFFFFFFFFFFFFFFFFFFF8000
FFFFFFFFFFFFFFFFFFFFC000
FFFFFFFFFFFFFFFFFFFFF000
FFFFFFFFFFFFFFFFFFFFF800
FFFFFFFFFFFFFFFFFFFFF800
FFFFFFFFFFFFFFFFFFFFFC00
FFFFFFFFFFFFFFFFFFFFFE00
FFFFFFFFFFFFFFFFFFFFFE00
FFFFFFFFFFFFFFFFFFFFFF00
FFFFFFFFFFFFFFFFFFFFFF00
FFFFFFFFFFFFFFFFFFFFFF00
FFFFFFFFFFFFFFFFFFFFFF80
FFFFFFFFFFFFFFFFFFFFFF80
FFFFFC000000000FFFFFFF80
FFFFFC0000000001FFFFFF80
FFFFFC00000000007FFFFFC0
FFFFFC00000000003FFFFFC0
FFFFFC00000000003FFFFFC0
FFFFFC00000000003FFFFFC0
FFFFFC00000000001FFFFFC0
FFFFFC00000000001FFFFFC0
FFFFFC00000000001FFFFFC0
FFFFFC00000000001FFFFFC0
FFFFFC00000000000FFFFFC0
FFFFFC00000000000FFFFFC0
FFFFFC00000000000FFFFFC0
FFFFFC00000000000FFFFFC0
FFFFFC00000000000FFFFFC0
FFFFFC00000000000FFFFFC0
FFFFFC00000000000FFFFFC0
FFFFFC00000000000FFFFFC0
FFFFFC00000000000FFFFFC0
FFFFFC00000000000FFFFFC0
FFFFFC00000000000FFFFFC0
FFFFFC00000000000FFFFFC0
FFFFFC00000000000FFFFFC0
FFFFFC00000000000FFFFFC0
FFFFFC00000000000FFFFFC0
FFFFFC00000000000FFFFFC0
FFFFFC00000000000FFFFFC0
FFFFFC00000000000FFFFFC0
FFFFFC00000000000FFFFFC0
FFFFFC00000000000FFFFFC0
FFFFFC00000000000FFFFFC0
FFFFFC00000000000FFFFFC0
FFFFFC00000000000FFFFFC0
FFFFFC00000000000FFFFFC0
FFFFFC00000000000FFFFFC0
FFFFFC00000000000FFFFFC0
FFFFFC00000000000FFFFFC0
FFFFFC00000000000FFFFFC0
FFFFFC00000000000FFFFFC0
FFFFFC00000000000FFFFFC0
FFFFFC00000000000FFFFFC0
FFFFFC00000000000FFFFFC0
FFFFFC00000000000FFFFFC0
FFFFFC00000000000FFFFFC0
FFFFFC00000000000FFFFFC0
FFFFFC00000000000FFFFFC0
FFFFFC00000000000FFFFFC0
FFFFFC00000000000FFFFFC0
FFFFFC00000000000FFFFFC0
FFFFFC00000000000FFFFFC0
FFFFFC00000000000FFFFFC0
FFFFFC00000000000FFFFFC0
FFFFFC00000000000FFFFFC0
FFFFFC00000000000FFFFFC0
FFFFFC00000000000FFFFFC0
FFFFFC00000000000FFFFFC0
FFFFFC00000000000FFFFFC0
FFFFFC00000000000FFFFFC0
FFFFFC00000000000FFFFFC0
FFFFFC00000000000FFFFFC0
FFFFFC00000000000FFFFFC0
FFFFFC00000000000FFFFFC0
FFFFFC00000000000FFFFFC0
FFFFFC00000000000FFFFFC0
FFFFFC00000000000FFFFFC0
FFFFFC00000000000FFFFFC0
FFFFFC00000000000FFFFFC0
FFFFFC00000000000FFFFFC0
FFFFFC00000000000FFFFFC0
FFFFFC00000000000FFFFFC0
FFFFFC00000000000FFFFFC0
FFFFFC00000000001FFFFFC0
FFFFFC00000000001FFFFFC0
FFFFFC00000000001FFFFFC0
FFFFFC00000000001FFFFFC0
FFFFFC00000000003FFFFFC0
FFFFFC00000000003FFFFFC0
FFFFFC00000000003FFFFFC0
FFFFFC00000000007FFFFFC0
FFFFFC0000000001FFFFFF80
FFFFFC000000000FFFFFFF80
FFFFFC007FFFFFFFFFFFFF80
FFFFFC007FFFFFFFFFFFFF80
FFFFFC007FFFFFFFFFFFFF00
FFFFFC007FFFFFFFFFFFFF00
FFFFFC007FFFFFFFFFFFFF00
FFFFFC007FFFFFFFFFFFFE00
FFFFFC007FFFFFFFFFFFFE00
FFFFFC007FFFFFFFFFFFFC00
FFFFFC007FFFFFFFFFFFF800
FFFFFC007FFFFFFFFFFFF800
FFFFFC007FFFFFFFFFFFF000
FFFFFC003FFFFFFFFFFFC000
FFFFFC003FFFFFFFFFFF8000
FFFFFC003FFFFFFFFFFE0000
FFFFFC001FFFFFFFFFF00000
FFFFFC000FFFFFFFFE000000
FFFFFC000000000000000000
FFFFFC000000000000000000
FFFFFC000000000000000000
FFFFFC000000000000000000
FFFFFC000000000000000000
FFFFFC000000000000000000
FFFFFC000000000000000000
FFFFFC000000000000000000
FFFFFC000000000000000000
FFFFFC000000000000000000
FFFFFC000000000000000000
FFFFFC000000000000000000
FFFFFC000000000000000000
FFFFFC000000000000000000
FFFFFC000000000000000000
FFFFFC000000000000000000
FFFFFC000000000000000000
FFFFFC000000000000000000
FFFFFC000000000000000000
FFFFFC000000000000000000
FFFFFC000000000000000000
FFFFFC000000000000000000
FFFFFC000000000000000000
FFFFFC000000000000000000
FFFFFC000000000000000000
FFFFFC000000000000000000
FFFFFC000000000000000000
FFFFFC000000000000000000
FFFFFC000000000000000000
FFFFFC000000000000000000
FFFFFC000000000000000000
FFFFFC000000000000000000
FFFFFC000000000000000000
FFFFFC000000000000000000
FFFFFC000000000000000000
FFFFFC000000000000000000
FFFFFC000000000000000000
FFFFFC000000000000000000
FFFFFC000000000000000000
FFFFFC000000000000000000
FFFFFC000000000000000000
FFFFFC000000000000000000
FFFFFC000000000000000000
FFFFFC000000000000000000
FFFFFC000000000000000000
FFFFFC000000000000000000
FFFFFC000000000000000000
FFFFFC000000000000000000
FFFFFC000000000000000000
FFFFFC000000000000000000
FFFFFC000000000000000000
FFFFFC000000000000000000
FFFFFC000000000000000000
FFFFFC000000000000000000
FFFFFC000000000000000000
FFFFFC000000000000000000
FFFFFC000000000000000000
FFFFFC000000000000000000
FFFFFC000000000000000000
FFFFFC000000000000000000
FFFFFC000000000000000000
FFFFFC000000000000000000
FFFFFC000000000000000000
FFFFFC000000000000000000
FFFFFC000000000000000000
FFFFFC000000000000000000
FFFFFC000000000000000000
FFFFFC000000000000000000
FFFFFC000000000000000000
FFFFFC000000000000000000
FFFFFC000000000000000000
FFFFFC000000000000000000
FFFFFC000000000000000000
FFFFFC000000000000000000
FFFFFC000000000000000000
FFFFFC000000000000000000
FFFFFC000000000000000000
FFFFFC000000000000000000
FFFFFC000000000000000000
FFFFF8000000000000000000
FFFFF8000000000000000000
FFFFE0000000000000000000
ENDCHAR
STARTCHAR 0051
ENCODING 81
SWIDTH 486 0
DWIDTH 135 0
BBX 96 229 19 -34
BITMAP
00001FFFFFFFFFFFFFF80000
0001FFFFFFFFFFFFFFFFC000
000FFFFFFFFFFFFFFFFFF800
003FFFFFFFFFFFFFFFFFFE00
00FFFFFFFFFFFFFFFFFFFF00
01FFFFFFFFFFFFFFFFFFFFC0
03FFFFFFFFFFFFFFFFFFFFE0
07FFFFFFFFFFFFFFFFFFFFE0
0FFFFFFFFFFFFFFFFFFFFFF0
0FFFFFFFFFFFFFFFFFFFFFF8
1FFFFFFFFFFFFFFFFFFFFFF8
1FFFFFFFFFFFFFFFFFFFFFFC
3FFFFFFFFFFFFFFFFFFFFFFC
3FFFFFFFFFFFFFFFFFFFFFFC
3FFFFFFFFFFFFFFFFFFFFFFE
3FFFFFFFFFFFFFFFFFFFFFFE
7FFFFFFC000000003FFFFFFE
7FFFFFE00000000007FFFFFE
7FFFFFC00000000001FFFFFF
7FFFFF800000000000FFFFFF
7FFFFF000000000000FFFFFF
7FFFFF000000000000FFFFFF
7FFFFF0000000000007FFFFF
FFFFFE0000000000007FFFFF
FFFFFE0000000000007FFFFF
FFFFFE0000000000007FFFFF
FFFFFE0000000000003FFFFF
FFFFFE0000000000003FFFFF
FFFFFE0000000000003FFFFF
FFFFFE0000000000003FFFFF
FFFFFE0000000000003FFFFF
FFFFFE0000000000003FFFFF
FFFFFE0000000000003FFFFF
FFFFFE0000000000003FFFFF
FFFFFE0000000000003FFFFF
FFFFFE0000000000003FFFFF
FFFFFE0000000000003FFFFF
FFFFFE0000000000003FFFFF
FFFFFE0000000000003FFFFF
FFFFFE0000000000003FFFFF
FFFFFE0000000000003FFFFF
FFFFFE0000000000003FFFFF
FFFFFE0000000000003FFFFF
FFFFFE0000000000003FFFFF
FFFFFE0000000000003FFFFF
FFFFFE0000000000003FFFFF
FFFFFE0000000000003FFFFF
FFFFFE0000000000003FFFFF
FFFFFE0000000000003FFFFF
FFFFFE0000000000003FFFFF
FFFFFE0000000000003FFFFF
FFFFFE0000000000003FFFFF
FFFFFE0000000000003FFFFF
FFFFFE0000000000003FFFFF
FFFFFE0000000000003FFFFF
FFFFFE0000000000003FFFFF
FFFFFE0000000000003FFFFF
FFFFFE0000000000003FFFFF
FFFFFE0000000000003FFFFF
FFFFFE0000000000003FFFFF
FFFFFE0000000000003FFFFF
FFFFFE0000000000003FFFFF
FFFFFE0000000000003FFFFF
FFFFFE0000000000003FFFFF
FFFFFE0000000000003FFFFF
FFFFFE0000000000003FFFFF
FFFFFE0000000000003FFFFF
FFFFFE0000000000003FFFFF
FFFFFE0000000000003FFFFF
FFFFFE0000000000003FFFFF
FFFFFE0000000000003FFFFF
FFFFFE0000000000003FFFFF
FFFFFE0000000000003FFFFF
FFFFFE0000000000003FFFFF
FFFFFE0000000000003FFFFF
FFFFFE0000000000003FFFFF
FFFFFE0000000000003FFFFF
FFFFFE0000000000003FFFFF
FFFFFE0000000000003FFFFF
FFFFFE0000000000003FFFFF
FFFFFE0000000000003FFFFF
FFFFFE0000000000003FFFFF
FFFFFE0000000000003FFFFF
FFFFFE0000000000003FFFFF
FFFFFE0000000000003FFFFF
FFFFFE0000000000003FFFFF
FFFFFE0000000000003FFFFF
FFFFFE0000000000003FFFFF
FFFFFE0000000000003FFFFF
FFFFFE0000000000003FFFFF
FFFFFE0000000000003FFFFF
FFFFFE0000000000003FFFFF
FFFFFE0000000000003FFFFF
FFFFFE0000000000003FFFFF
FFFFFE0000000000003FFFFF
FFFFFE0000000000003FFFFF
FFFFFE0000000000003FFFFF
FFFFFE0000000000003FFFFF
FFFFFE0000000000003FFFFF
FFFFFE0000000000003FFFFF
FFFFFE0000000000003FFFFF
FFFFFE0000000000003FFFFF
FFFFFE0000000000003FFFFF
FFFFFE0000000000003FFFFF
FFFFFE0000000000003FFFFF
FFFFFE0000000000003FFFFF
FFFFFE0000000000003FFFFF
FFFFFE0000000000003FFFFF
FFFFFE0000000000003FFFFF
FFFFFE0000000000003FFFFF
FFFFFE0000000000003FFFFF
FFFFFE0000000000003FFFFF
FFFFFE0000000000003FFFFF
FFFFFE0000000000003FFFFF
FFFFFE0000000000003FFFFF
FFFFFE0000000000003FFFFF
FFFFFE0000000000003FFFFF
FFFFFE0000000000003FFFFF
FFFFFE0000000000003FFFFF
FFFFFE0000000000003FFFFF
FFFFFE0000000000003FFFFF
FFFFFE0000000000003FFFFF
FFFFFE0000000000003FFFFF
FFFFFE0000000000003FFFFF
FFFFFE0000000000003FFFFF
FFFFFE0000000000003FFFFF
FFFFFE0000000000003FFFFF
FFFFFE0000000000003FFFFF
FFFFFE0000000000003FFFFF
FFFFFE0000000000003FFFFF
FFFFFE0000000000003FFFFF
FFFFFE0000000000003FFFFF
FFFFFE0000000000003FFFFF
FFFFFE0000000000003FFFFF
FFFFFE0000000000003FFFFF
FFFFFE0000000000003FFFFF
FFFFFE0000000000003FFFFF
FFFFFE0000000000003FFFFF
FFFFFE0000000000003FFFFF
FFFFFE0000000000003FFFFF
FFFFFE0000000000003FFFFF
FFFFFE0000000000003FFFFF
FFFFFE0000000000003FFFFF
FFFFFE0000000000003FFFFF
FFFFFE0000000000003FFFFF
FFFFFE0000000000003FFFFF
FFFFFE0000000000003FFFFF
FFFFFE0000000000003FFFFF
FFFFFE0000000000003FFFFF
FFFFFE0000000000003FFFFF
FFFFFE0000000000003FFFFF
FFFFFE0000000000003FFFFF
FFFFFE0000000000003FFFFF
FFFFFE0000000000003FFFFF
FFFFFE0000000000003FFFFF
FFFFFE0000000000003FFFFF
FFFFFE0000000000003FFFFF
FFFFFE0000000000003FFFFF
FFFFFE0000000000003FFFFF
FFFFFE0000000000003FFFFF
FFFFFE0000000000003FFFFF
FFFFFE0000000000003FFFFF
FFFFFE0000000000003FFFFF
FFFFFE0000000000003FFFFF
FFFFFE0000000000003FFFFF
FFFFFE0000000000003FFFFF
FFFFFE0000000000003FFFFF
FFFFFE0000000000003FFFFF
FFFFFE0000000000003FFFFF
FFFFFE0000000000007FFFFF
FFFFFE0000000000007FFFFF
FFFFFE0000000000007FFFFF
7FFFFF0000000000007FFFFF
7FFFFF000000000000FFFFFF
7FFFFF000000000000FFFFFF
7FFFFF800000000000FFFFFF
7FFFFFC00000000001FFFFFF
7FFFFFE00000000007FFFFFE
7FFFFFFC000000003FFFFFFE
3FFFFFFFFFFFFFFFFFFFFFFE
3FFFFFFFFFFFFFFFFFFFFFFE
3FFFFFFFFFFFFFFFFFFFFFFC
3FFFFFFFFFFFFFFFFFFFFFFC
1FFFFFFFFFFFFFFFFFFFFFFC
1FFFFFFFFFFFFFFFFFFFFFF8
0FFFFFFFFFFFFFFFFFFFFFF8
0FFFFFFFFFFFFFFFFFFFFFF0
07FFFFFFFFFFFFFFFFFFFFE0
03FFFFFFFFFFFFFFFFFFFFE0
01FFFFFFFFFFFFFFFFFFFFC0
00FFFFFFFFFFFFFFFFFFFF00
003FFFFFFFFFFFFFFFFFFE00
000FFFFFFFFFFFFFFFFFF800
0003FFFFFFFFFFFFFFFFC000
00001FFFFFFFFFFFFFF80000
0000000003FFFC0000000000
0000000003FFFC0000000000
0000000003FFFC0000000000
0000000003FFFC0000000000
0000000003FFFC0000000000
0000000003FFFC0000000000
0000000003FFFC0000000000
0000000003FFFC0000000000
0000000003FFFC0000000000
0000000003FFFE0000000000
0000000003FFFE0000000000
0000000003FFFE0000000000
0000000003FFFE0000000000
0000000003FFFF0000000000
0000000003FFFF0000000000
0000000003FFFF8000000000
0000000001FFFFE000000000
0000000001FFFFFC00000000
0000000001FFFFFFFFFE0000
0000000001FFFFFFFFFE0000
0000000000FFFFFFFFFE0000
0000000000FFFFFFFFFE0000
0000000000FFFFFFFFFE0000
00000000007FFFFFFFFE0000
00000000007FFFFFFFFE0000
00000000003FFFFFFFFE0000
00000000001FFFFFFFFE0000
00000000001FFFFFFFFE0000
00000000000FFFFFFFFE0000
000000000003FFFFFFFE0000
000000000001FFFFFFFE0000
0000000000007FFFFFFC0000
0000000000001FFFFFFC0000
00000000000001FFFFF00000
ENDCHAR
STARTCHAR 0052
ENCODING 82
SWIDTH 468 0
DWIDTH 130 0
BBX 99 195 20 0
BITMAP
1FFFFFFFFFFFFFFFFF80000000
3FFFFFFFFFFFFFFFFFF8000000
7FFFFFFFFFFFFFFFFFFF000000
FFFFFFFFFFFFFFFFFFFFC00000
FFFFFFFFFFFFFFFFFFFFF00000
FFFFFFFFFFFFFFFFFFFFF80000
FFFFFFFFFFFFFFFFFFFFFC0000
FFFFFFFFFFFFFFFFFFFFFE0000
FFFFFFFFFFFFFFFFFFFFFE0000
FFFFFFFFFFFFFFFFFFFFFF0000
FFFFFFFFFFFFFFFFFFFFFF8000
FFFFFFFFFFFFFFFFFFFFFF8000
FFFFFFFFFFFFFFFFFFFFFF8000
FFFFFFFFFFFFFFFFFFFFFFC000
FFFFFFFFFFFFFFFFFFFFFFC000
FFFFFFFFFFFFFFFFFFFFFFC000
FFFFFC0000000003FFFFFFE000
FFFFFC00000000007FFFFFE000
FFFFFC00000000003FFFFFE000
FFFFFC00000000001FFFFFE000
FFFFFC00000000001FFFFFE000
FFFFFC00000000000FFFFFE000
FFFFFC00000000000FFFFFE000
FFFFFC00000000000FFFFFE000
FFFFFC000000000007FFFFE000
FFFFFC000000000007FFFFE000
FFFFFC000000000007FFFFE000
FFFFFC000000000007FFFFE000
FFFFFC000000000007FFFFE000
FFFFFC000000000007FFFFE000
FFFFFC000000000007FFFFE000
FFFFFC000000000007FFFFE000
FFFFFC000000000007FFFFE000
FFFFFC000000000007FFFFE000
FFFFFC000000000007FFFFE000
FFFFFC000000000007FFFFE000
FFFFFC000000000007FFFFE000
FFFFFC000000000007FFFFE000
FFFFFC000000000007FFFFE000
FFFFFC000000000007FFFFE000
FFFFFC000000000007FFFFE000
FFFFFC000000000007FFFFE000
FFFFFC000000000007FFFFE000
FFFFFC000000000007FFFFE000
FFFFFC000000000007FFFFE000
FFFFFC000000000007FFFFE000
FFFFFC000000000007FFFFE000
FFFFFC000000000007FFFFE000
FFFFFC000000000007FFFFE000
FFFFFC000000000007FFFFE000
FFFFFC000000000007FFFFE000
FFFFFC000000000007FFFFE000
FFFFFC000000000007FFFFE000
FFFFFC000000000007FFFFE000
FFFFFC000000000007FFFFE000
FFFFFC000000000007FFFFE000
FFFFFC000000000007FFFFE000
FFFFFC000000000007FFFFE000
FFFFFC000000000007FFFFE000
FFFFFC000000000007FFFFE000
FFFFFC000000000007FFFFE000
FFFFFC000000000007FFFFE000
FFFFFC000000000007FFFFE000
FFFFFC000000000007FFFFE000
FFFFFC000000000007FFFFE000
FFFFFC000000000007FFFFE000
FFFFFC000000000007FFFFE000
FFFFFC000000000007FFFFE000
FFFFFC000000000007FFFFE000
FFFFFC000000000007FFFFE000
FFFFFC000000000007FFFFE000
FFFFFC000000000007FFFFE000
FFFFFC000000000007FFFFE000
FFFFFC000000000007FFFFE000
FFFFFC000000000007FFFFE000
FFFFFC000000000007FFFFE000
FFFFFC000000000007FFFFE000
FFFFFC000000000007FFFFE000
FFFFFC00000000000FFFFFE000
FFFFFC00000000000FFFFFE000
FFFFFC00000000000FFFFFE000
FFFFFC00000000001FFFFFE000
FFFFFC00000000001FFFFFE000
FFFFFC00000000003FFFFFE000
FFFFFC00000000007FFFFFE000
FFFFFC0000000003FFFFFFE000
FFFFFC007FFFFFFFFFFFFFC000
FFFFFC007FFFFFFFFFFFFFC000
FFFFFC007FFFFFFFFFFFFFC000
FFFFFC007FFFFFFFFFFFFFC000
FFFFFC007FFFFFFFFFFFFF8000
FFFFFC007FFFFFFFFFFFFF8000
FFFFFC007FFFFFFFFFFFFF0000
FFFFFC007FFFFFFFFFFFFF0000
FFFFFC007FFFFFFFFFFFFE0000
FFFFFC007FFFFFFFFFFFFC0000
FFFFFC007FFFFFFFFFFFF80000
FFFFFC003FFFFFFFFFFFF00000
FFFFFC003FFFFFFFFFFFC00000
FFFFFC003FFFFFFFFFFF000000
FFFFFC001FFFFFFFFFF8000000
FFFFFC000FFFFFFFFF80000000
FFFFFC0000007FFFFE00000000
FFFFFC0000007FFFFE00000000
FFFFFC0000007FFFFE00000000
FFFFFC0000003FFFFF00000000
FFFFFC0000003FFFFF00000000
FFFFFC0000003FFFFF00000000
FFFFFC0000001FFFFF80000000
FFFFFC0000001FFFFF80000000
FFFFFC0000001FFFFF80000000
FFFFFC0000000FFFFFC0000000
FFFFFC0000000FFFFFC0000000
FFFFFC0000000FFFFFC0000000
FFFFFC0000000FFFFFC0000000
FFFFFC00000007FFFFE0000000
FFFFFC00000007FFFFE0000000
FFFFFC00000007FFFFE0000000
FFFFFC00000003FFFFF0000000
FFFFFC00000003FFFFF0000000
FFFFFC00000003FFFFF0000000
FFFFFC00000001FFFFF8000000
FFFFFC00000001FFFFF8000000
FFFFFC00000001FFFFF8000000
FFFFFC00000001FFFFF8000000
FFFFFC00000000FFFFFC000000
FFFFFC00000000FFFFFC000000
FFFFFC00000000FFFFFC000000
FFFFFC000000007FFFFE000000
FFFFFC000000007FFFFE000000
FFFFFC000000007FFFFE000000
FFFFFC000000003FFFFF000000
FFFFFC000000003FFFFF000000
FFFFFC000000003FFFFF000000
FFFFFC000000003FFFFF000000
FFFFFC000000001FFFFF800000
FFFFFC000000001FFFFF800000
FFFFFC000000001FFFFF800000
FFFFFC000000000FFFFFC00000
FFFFFC000000000FFFFFC00000
FFFFFC000000000FFFFFC00000
FFFFFC0000000007FFFFE00000
FFFFFC0000000007FFFFE00000
FFFFFC0000000007FFFFE00000
FFFFFC0000000003FFFFE00000
FFFFFC0000000003FFFFF00000
FFFFFC0000000003FFFFF00000
FFFFFC0000000003FFFFF00000
FFFFFC0000000001FFFFF80000
FFFFFC0000000001FFFFF80000
FFFFFC0000000001FFFFF80000
FFFFFC0000000000FFFFFC0000
FFFFFC0000000000FFFFFC0000
FFFFFC0000000000FFFFFC0000
FFFFFC00000000007FFFFC0000
FFFFFC00000000007FFFFE0000
FFFFFC00000000007FFFFE0000
FFFFFC00000000007FFFFE0000
FFFFFC00000000003FFFFF0000
FFFFFC00000000003FFFFF0000
FFFFFC00000000003FFFFF0000
FFFFFC00000000001FFFFF8000
FFFFFC00000000001FFFFF8000
FFFFFC00000000001FFFFF8000
FFFFFC00000000000FFFFFC000
FFFFFC00000000000FFFFFC000
FFFFFC00000000000FFFFFC000
FFFFFC00000000000FFFFFC000
FFFFFC000000000007FFFFE000
FFFFFC000000000007FFFFE000
FFFFFC000000000007FFFFE000
FFFFFC000000000003FFFFF000
FFFFFC000000000003FFFFF000
FFFFFC000000000003FFFFF000
FFFFFC000000000001FFFFF800
FFFFFC000000000001FFFFF800
FFFFFC000000000001FFFFF800
FFFFFC000000000001FFFFF800
FFFFFC000000000000FFFFFC00
FFFFFC000000000000FFFFFC00
FFFFFC000000000000FFFFFC00
FFFFFC0000000000007FFFFE00
FFFFFC0000000000007FFFFE00
FFFFFC0000000000007FFFFE00
FFFFFC0000000000003FFFFF00
FFFFFC0000000000003FFFFF00
FFFFFC0000000000003FFFFF00
FFFFFC0000000000001FFFFF00
FFFFFC0000000000001FFFFF80
FFFFFC0000000000001FFFFF80
FFFFFC0000000000000FFFFF80
FFFFFC0000000000000FFFFFC0
FFFFF800000000000007FFFFC0
FFFFF800000000000003FFFFC0
FFFFE000000000000000FFFFE0
ENDCHAR
STARTCHAR 0053
ENCODING 83
SWIDTH 396 0
DWIDTH 110 0
BBX 77 195 16 0
BITMAP
00001FFFFFFFFFFF8000
0003FFFFFFFFFFFFF000
000FFFFFFFFFFFFFFC00
003FFFFFFFFFFFFFFE00
00FFFFFFFFFFFFFFFF00
01FFFFFFFFFFFFFFFF80
03FFFFFFFFFFFFFFFF80
07FFFFFFFFFFFFFFFFC0
0FFFFFFFFFFFFFFFFFC0
0FFFFFFFFFFFFFFFFFE0
1FFFFFFFFFFFFFFFFFE0
1FFFFFFFFFFFFFFFFFE0
3FFFFFFFFFFFFFFFFFF0
3FFFFFFFFFFFFFFFFFF0
3FFFFFFFFFFFFFFFFFF0
3FFFFFFFFFFFFFFFFFF0
7FFFFFFC000000000000
7FFFFFE0000000000000
7FFFFFC0000000000000
7FFFFF80000000000000
7FFFFF00000000000000
7FFFFF00000000000000
FFFFFF00000000000000
FFFFFE00000000000000
FFFFFE00000000000000
FFFFFE00000000000000
FFFFFE00000000000000
FFFFFE00000000000000
FFFFFE00000000000000
FFFFFE00000000000000
FFFFFE00000000000000
FFFFFE00000000000000
FFFFFE00000000000000
FFFFFE00000000000000
FFFFFE00000000000000
FFFFFE00000000000000
FFFFFE00000000000000
FFFFFE00000000000000
FFFFFE00000000000000
FFFFFE00000000000000
FFFFFE00000000000000
FFFFFE00000000000000
FFFFFE00000000000000
FFFFFE00000000000000
FFFFFE00000000000000
FFFFFE00000000000000
FFFFFE00000000000000
FFFFFE00000000000000
FFFFFE00000000000000
FFFFFE00000000000000
FFFFFE00000000000000
FFFFFE00000000000000
FFFFFE00000000000000
FFFFFE00000000000000
FFFFFE00000000000000
FFFFFE00000000000000
FFFFFE00000000000000
FFFFFE00000000000000
FFFFFE00000000000000
FFFFFE00000000000000
FFFFFE00000000000000
FFFFFE00000000000000
FFFFFE00000000000000
FFFFFE00000000000000
FFFFFE00000000000000
FFFFFE00000000000000
FFFFFE00000000000000
FFFFFE00000000000000
FFFFFE00000000000000
FFFFFE00000000000000
FFFFFE00000000000000
FFFFFE00000000000000
FFFFFE00000000000000
FFFFFE00000000000000
FFFFFE00000000000000
FFFFFE00000000000000
FFFFFE00000000000000
FFFFFE00000000000000
FFFFFE00000000000000
7FFFFF00000000000000
7FFFFF00000000000000
7FFFFF00000000000000
7FFFFF80000000000000
7FFFFFC0000000000000
7FFFFFE0000000000000
7FFFFFFC000000000000
3FFFFFFFFFFFFFC00000
3FFFFFFFFFFFFFFE0000
3FFFFFFFFFFFFFFFC000
3FFFFFFFFFFFFFFFF000
1FFFFFFFFFFFFFFFFC00
1FFFFFFFFFFFFFFFFE00
0FFFFFFFFFFFFFFFFF00
0FFFFFFFFFFFFFFFFF80
07FFFFFFFFFFFFFFFF80
03FFFFFFFFFFFFFFFFC0
01FFFFFFFFFFFFFFFFE0
00FFFFFFFFFFFFFFFFE0
003FFFFFFFFFFFFFFFE0
000FFFFFFFFFFFFFFFF0
0003FFFFFFFFFFFFFFF0
00001FFFFFFFFFFFFFF0
000000000001FFFFFFF0
0000000000003FFFFFF8
0000000000000FFFFFF8
00000000000007FFFFF8
00000000000007FFFFF8
00000000000003FFFFF8
00000000000003FFFFF8
00000000000003FFFFF8
00000000000001FFFFF8
00000000000001FFFFF8
00000000000001FFFFF8
00000000000001FFFFF8
00000000000001FFFFF8
00000000000001FFFFF8
00000000000001FFFFF8
00000000000001FFFFF8
00000000000001FFFFF8
00000000000001FFFFF8
00000000000001FFFFF8
00000000000001FFFFF8
00000000000001FFFFF8
00000000000001FFFFF8
00000000000001FFFFF8
00000000000001FFFFF8
00000000000001FFFFF8
00000000000001FFFFF8
00000000000001FFFFF8
00000000000001FFFFF8
00000000000001FFFFF8
00000000000001FFFFF8
00000000000001FFFFF8
00000000000001FFFFF8
00000000000001FFFFF8
00000000000001FFFFF8
00000000000001FFFFF8
00000000000001FFFFF8
00000000000001FFFFF8
00000000000001FFFFF8
00000000000001FFFFF8
00000000000001FFFFF8
00000000000001FFFFF8
00000000000001FFFFF8
00000000000001FFFFF8
00000000000001FFFFF8
00000000000001FFFFF8
00000000000001FFFFF8
00000000000001FFFFF8
00000000000001FFFFF8
00000000000001FFFFF8
00000000000001FFFFF8
00000000000001FFFFF8
00000000000001FFFFF8
00000000000001FFFFF8
00000000000001FFFFF8
00000000000001FFFFF8
00000000000001FFFFF8
00000000000001FFFFF8
00000000000001FFFFF8
00000000000001FFFFF8
00000000000001FFFFF8
00000000000001FFFFF8
00000000000001FFFFF8
00000000000001FFFFF8
00000000000001FFFFF8
00000000000001FFFFF8
00000000000001FFFFF8
00000000000001FFFFF8
00000000000001FFFFF8
00000000000001FFFFF8
00000000000003FFFFF8
00000000000003FFFFF8
00000000000003FFFFF8
00000000000007FFFFF8
00000000000007FFFFF8
0000000000000FFFFFF8
0000000000001FFFFFF8
000000000000FFFFFFF8
FFFFFFFFFFFFFFFFFFF0
7FFFFFFFFFFFFFFFFFF0
7FFFFFFFFFFFFFFFFFF0
7FFFFFFFFFFFFFFFFFE0
3FFFFFFFFFFFFFFFFFE0
3FFFFFFFFFFFFFFFFFE0
3FFFFFFFFFFFFFFFFFC0
1FFFFFFFFFFFFFFFFF80
1FFFFFFFFFFFFFFFFF80
0FFFFFFFFFFFFFFFFF00
0FFFFFFFFFFFFFFFFE00
07FFFFFFFFFFFFFFFC00
03FFFFFFFFFFFFFFF000
01FFFFFFFFFFFFFFC000
007FFFFFFFFFFFFE0000
000FFFFFFFFFFFE00000
ENDCHAR
ENDFONT
